<svg xmlns="http://www.w3.org/2000/svg" viewBox="0 0 547.03 568.75"><defs><style>.cls-1{fill:#83b3fd;}.cls-2{fill:#ccc;}.cls-2,.cls-3{stroke:#e6e6e6;stroke-width:3px;opacity:0.4;}.cls-2,.cls-3,.cls-5,.cls-7{stroke-miterlimit:10;}.cls-3,.cls-7{fill:none;}.cls-4{fill:#41a1ac;}.cls-5,.cls-6{fill:#fff;}.cls-5{stroke:#fff;stroke-width:0.75px;}.cls-7{stroke:gray;stroke-width:10px;}.cls-10,.cls-8{fill:#999;}.cls-9{font-size:54.3px;fill:#4d4d4d;}.cls-10,.cls-9{font-family:Muli;}.cls-10{font-size:17.15px;}</style></defs><title>Recurso 2</title><g id="Capa_2" data-name="Capa 2"><g id="Cuarto"><ellipse id="Círculo_Fondo" data-name="Círculo Fondo" class="cls-1" cx="283.5" cy="288.74" rx="202.82" ry="203.79"/><line class="cls-2" x1="283.82" y1="491.26" x2="284.46" y2="85.59"/><line class="cls-2" x1="483.14" y1="286.83" x2="77.48" y2="286.19"/><path class="cls-3" d="M188.64,465.7s-18.89-67.51-21.72-179.51"/><path class="cls-3" d="M382.21,111.79s18.88,66.31,21.72,176.32"/><path class="cls-3" d="M466.53,372.75s-68.59,18.89-182.39,21.72"/><path class="cls-3" d="M104.63,191.32s67.51-18.89,179.51-21.72"/><path class="cls-3" d="M462.06,191.32s-66.91-18.89-177.92-21.72"/><path class="cls-3" d="M382.2,465.7s18.89-67.51,21.73-179.51"/><path class="cls-3" d="M188.64,107.31s-18.89,67.52-21.72,179.52"/><path class="cls-3" d="M96,372.75s70.52,18.89,187.5,21.72"/><path class="cls-4" d="M309.7,241.15l-2.56-.64-1.28.64s0,1.28-.64.64-2.55-.64-2.55-.64h-8.31v7.67s.64-.64-.63,1.27v3.2l-.64,1.28h4.47l1.11.5.45,1.66a6.16,6.16,0,0,0,.37,1.12c.15.23.61.16.61.16l1.5-2,1.28-.53,2.18.15,1-.15,2.63-2.63,1.36-1.43s.52.23.3-3.08l3.09-3.66-1-.46-.9-.9-.51-.36-1.55-.11-.48-.12.93-1.3Z"/><path class="cls-4" d="M157.41,287.43l1.91-.9,2.6-.9.79-.23h1.35l1.13.45a7.9,7.9,0,0,0,1,.34l1.92.56.79.23,1.24.45c.45.56.79.9.79.9l.37.52,1.43.95h0l.45.11a.79.79,0,0,1,.2.54.77.77,0,0,1-.28.54l-.37.5-.32.54-.13.59H173l.78-.57.46-.22,1.12-.23.9-.11.46-.11h.67a1.39,1.39,0,0,0,.79,0,3.21,3.21,0,0,0,1.13-.57l.45-.9-.34-.79-1.8-.56-1.36-.23L175,288l-.5-.19c-.41-.26-.83-.53-1.24-.82s-1-.71-1.48-1.07l-.91-.28h-1.91l-.9-.12-.91-.67a6.08,6.08,0,0,1-1.24-.45c-.34-.23-.9-.57-.9-.57s1.35-.34-.79-.34h-4.06l-.9.12-.79.9-1,.9L157,286l-.09,1a2.46,2.46,0,0,0,0,.51C157,287.51,157.41,287.43,157.41,287.43Z"/><path class="cls-4" d="M171.13,294.32l.25.35.27.13a1.15,1.15,0,0,1,.27.13l.31.31.5.41.1.09.33.17.24,0s.38-.24.47-.32a1.2,1.2,0,0,0,.32-.27l.21-.26.21-.13.08-.18-.05-.18-.15-.15a.38.38,0,0,0-.15-.09,1.7,1.7,0,0,0-.28,0l-.21,0-.47-.07a5.18,5.18,0,0,0-.53,0h-.5s-.31,0-.48,0a3.23,3.23,0,0,0-.44,0C171.27,294.15,171.2,294.14,171.13,294.32Z"/><path class="cls-4" d="M179,294.72l.26-.23.23-.2a.3.3,0,0,0,.15-.12l0-.07.23-.15.28-.06.3-.05a3.49,3.49,0,0,1,.51,0,1.2,1.2,0,0,0,.32,0h.39l.64-.06.34-.07.38-.08c0-.15,0-.15,0-.2v-.17l0-.45-.07-.34,0-.19a.49.49,0,0,0,0-.19l0-.11-.19,0-.33,0-.47-.07a.66.66,0,0,1-.23,0,.67.67,0,0,0-.17-.06s-.07,0-.07-.07,0-.19,0-.19l.12-.13.17-.17.18-.21.12,0h1.8l.41-.06.29,0H185l.41,0H186l.49,0a3.66,3.66,0,0,1,.5,0,.64.64,0,0,1,.4.15.82.82,0,0,0,.32.22c.15.08.28.11.41.17l.49.19a3.74,3.74,0,0,1,.49.2l.45.21a6.85,6.85,0,0,0,.66.43,4.67,4.67,0,0,0,.45.15c.3.12.09,0,.62.27a4.31,4.31,0,0,1,.83.39.75.75,0,0,0,.24.21c.17.11.47.34.47.34s.19.15.13.3a.89.89,0,0,1-.28.49,5.08,5.08,0,0,1-.43.33c-.15.1-.15.21-.49.19a4.69,4.69,0,0,1-1-.28l-.82,0s-.62-.09-.91-.11-.6-.08-.84-.09-.66-.1-.66-.1a2.26,2.26,0,0,0-.36-.07c-.09,0-.05-.19-.17,0s-.07.31-.16.52a1.49,1.49,0,0,0-.15.45,2.5,2.5,0,0,0-.1.45c0,.19,0,.21,0,.38a1,1,0,0,1-.15.26s-.17.23-.3,0a1,1,0,0,1-.13-.39,2.19,2.19,0,0,1,0-.3,3.22,3.22,0,0,1-.16-.36,3.3,3.3,0,0,0-.13-.35s0-.19-.17-.19-.2-.12-.43,0a2.14,2.14,0,0,1-.47.2c-.22.08-.24.06-.52.14l-.55.13-.68.17-.6,0c-.5,0-.54-.06-.86-.1s-.11,0-.68-.07-1-.11-1-.11-.41-.13-.43-.21S179,294.72,179,294.72Z"/><path class="cls-4" d="M195.32,294.53l.31.65.5.62.51.17.62-.17.68-.45.22-.42a.4.4,0,0,0,0-.4.94.94,0,0,0-.36-.39l-.91-.09-.84-.05h-.51s-.31.19-.31.31Z"/><path class="cls-4" d="M96.19,267.33l.39,2.65.38,1.57a24.7,24.7,0,0,0,1.42,2.77,8.6,8.6,0,0,0,1.16,1.09,4.81,4.81,0,0,0,1.16,1.21c.9.72,1.93,1.44,1.93,1.44a1.43,1.43,0,0,1,.51.49c.26.36.65.48.65,1v1.33l.51.72.9.72,1.16,1.21,1.16,1.21,1.42,1.32a7.56,7.56,0,0,1,.9,1.33l.9,1,.26.6.38,1.08,1,1.69.91,1.09.9,1.08,1.16.85s1,.48,2.18,1,2.45,1,2.45,1l2.32,1,1.16.85a13.08,13.08,0,0,0,1.67.48c1.42.36,3.86.84,3.86.84a4.7,4.7,0,0,1,1.42-.72,10.29,10.29,0,0,0,1.41-.24,5.87,5.87,0,0,1,1.94.6,3.57,3.57,0,0,0,1,.6,3.49,3.49,0,0,1,1.15.25,6,6,0,0,1,1.29.72l1.29,2.17,1.54.6a1.39,1.39,0,0,0,.91.24c.64,0,2.06.13,2.06.13h.9l1.54-.25s.52,0,.65.73.25,1.32.25,1.32l.52.61.51.48a4.82,4.82,0,0,1,.26,1.45l.77,1.2,1.16.85.77.72.26.6.39.49.64.12,1.16.36s-.26.24.52,0l.77-.24,1-.36,1,.6.77.6c.9.24,0,.24.9.24a15.61,15.61,0,0,0,1.8-.12v-.84l.26-1a1.4,1.4,0,0,1,.77-.48c.52-.12.52-.72.9-.24s1,1.21,1,1.21a6.45,6.45,0,0,0,.13,1.2,8.48,8.48,0,0,1,.13,1.45s.26,1.81.39,2.41a5.73,5.73,0,0,1,.13,1.09,6.49,6.49,0,0,0-.39,1.44c-.13.85.13.37-.64,1.45a9.86,9.86,0,0,0-1,1.69l-2.71,2.17-1.28.85-.65,1.2.9,1,.52,1-.65,2.17-1.54,2.05s-1.16.49-.13,1.45l1.42,1.33,1.41,1.44,1.29.73,1,.84.9,1.21.9,1.69a9,9,0,0,1,.65,1.44c.13.37,0,.37.38.85a3.9,3.9,0,0,1,.78,1.45c.25.72.25,1.2.51,1.93s0,.72.39,1.56.77,2,.77,2l.51,1,.65.6a9.5,9.5,0,0,0,1.8,1.21,14,14,0,0,0,1.55.84,6.12,6.12,0,0,1,1.41.36c.52.25.77.25,1.16.49a7.68,7.68,0,0,0,1.55.48,6.24,6.24,0,0,0,1.28.12l.78.24a1.85,1.85,0,0,1,.38,1,3.28,3.28,0,0,0,.26,1.08,2.77,2.77,0,0,0,.26,1,15.69,15.69,0,0,1,.51,1.68s.13.49.26,1.09a5.57,5.57,0,0,1,.13,2.05V367c0,1.21-.9,1.69-.9,2.17a11.88,11.88,0,0,0,0,2.18c.13,1,0,1.32.13,2.65s.12,2.89.12,2.89a6,6,0,0,1-.25,2.29c-.39,1.09-.52,1.57-.52,1.57l-.13,1a10.15,10.15,0,0,0-.25,1.69v1.56c0,.37-.26-.36-.39,1.57a22,22,0,0,0,.13,3.86s.51.24-.13,1.57-1.29,3.14-1.29,3.14-.9,1.32-1.16,1.8a10,10,0,0,0-.51,1.45v1.57s-.13.12,0,.72a8.07,8.07,0,0,1,.13,2v1.81c0,.73-.26.61,0,1a3.85,3.85,0,0,1,.38,1.2l-1,1.69.13.85a.51.51,0,0,1,.13.72,3,3,0,0,0-.39,1.69,13.11,13.11,0,0,1-.51,2.17c-.13.84-.26,1.69-.39,2.41a8.58,8.58,0,0,0-.13,1.69,5,5,0,0,0,0,1.45,11.32,11.32,0,0,0,.52,2.29l.39,1s.25.13.12.85l-.12.72v1l.51.6s.13-.12.13.6a8.45,8.45,0,0,1-.39,1.93c-.13.61-.51-.12-.13,1.21a17.08,17.08,0,0,0,.78,2.17l.25.6a5.31,5.31,0,0,0,0,1.45c.13.6,1.29,4.83,1.29,4.83a2.57,2.57,0,0,1,.35.8v1.12l.94,1.13.86,1.21.77.72a5.07,5.07,0,0,0,2.49.72s.26,0,.43.41a11.35,11.35,0,0,0,.6,1.36c.17.24-.09.08.77.57a10.53,10.53,0,0,0,2.23.8l2-.08a3.67,3.67,0,0,0,2.4-1.05,11.31,11.31,0,0,1,2.15-1.68l1.28-.33,1.29.16a2,2,0,0,0,1.29-.16,3.29,3.29,0,0,0,.69-1.44s.08-.41-1-.41h-3.95l-2.06-.64-1.46-.48-.86-.89.09-.56.25-.72-.17-1-1.29-.64-.51-.24.08-.81.26-1.12a6.74,6.74,0,0,0-.68-1.45c-.26-.24-.69-.72-.69-.72l.08-1.21.35-1a2.9,2.9,0,0,1,.68-1.21c.43-.32.61-.48.86-.48s.26-.16.52-.24a5.75,5.75,0,0,0,1-.81l.17-.88V426l.26-.8.51-.81,1.12-1.12.17-1.85-1.37-.81s.25,0-.18-.32-1.11-.72-1.11-.72l-.52-.64a5.46,5.46,0,0,1-.17-1.05c0-.4-.17-.4.17-.72a5.47,5.47,0,0,0,.6-.65l.86-.56,1-.72s-.34.24.43-.4a8.78,8.78,0,0,0,1.2-1.21l.35-.4a1.62,1.62,0,0,0,.43-.08,3.28,3.28,0,0,0,.68-.41,1.9,1.9,0,0,0,.43-.72,5.12,5.12,0,0,0,.26-1.37l.17-1.44a6.09,6.09,0,0,0-.34-1.37.89.89,0,0,0-.69-.48c-.43-.08-.69-.08-.94-.16l-.26-.08-.09-.73.6-.16a5,5,0,0,1,.69-.08h2.15a1.7,1.7,0,0,0,.68-.32c.52-.32.69-.4.95-.88a3.1,3.1,0,0,0,.34-1.29c0-.24.17.56,0-.24a3.21,3.21,0,0,0-.34-1.05,1.25,1.25,0,0,1,1.2-.48,4.42,4.42,0,0,0,1,0c.43-.08,1.12-.16,1.12-.16l1.11-.08.69-.16a1.5,1.5,0,0,0,.77-.24c.34-.24.17-.32.77-.49s.6-.08.95-.32.6-.4.6-.4a4.2,4.2,0,0,0,1.54-.48,3.73,3.73,0,0,0,1.55-1.85l.34-.89-.08-1.2-.52-.89-.34-.48.17-.72-.34-1.21-1.12-.32s-.34-.32.09-.48a5.59,5.59,0,0,1,.85-.24s1.12.16,1.38.16,1,.08,1,.08,1.54.08,1.8.08a3.85,3.85,0,0,0,1-.48l1-.57.86-.8.68-1.53.35-1,.25-.89v-.64l.43-.48a1.64,1.64,0,0,0,.43-.33,7,7,0,0,1,1-.64l.95-1,1-1.21.77-2a5.37,5.37,0,0,0,.43-.48c.26-.32.77-.81.77-.81l.6-.64a2,2,0,0,0,.43-1,9,9,0,0,0,.09-1.21s-.52-1.05-.6-1.29a6.42,6.42,0,0,1-.18-.88,1.17,1.17,0,0,1-.42-.56l-.18-.65.18-.48.6-.48.51-.41a4.92,4.92,0,0,0,.69-.32,4.63,4.63,0,0,1,.94-.32.73.73,0,0,0,.6-.16,6.56,6.56,0,0,1,1.12-.4,7,7,0,0,1,1-.32l.77-.24.77-.49.78-.72.43-.72a5.84,5.84,0,0,1,1.45-.41H231l1,.17.69.16a1.25,1.25,0,0,0,.26-.57,5.54,5.54,0,0,0-.09-.72v-.32l.34-.57.52-.8s0,.4.26-.32.34-.8.34-1.05a1.51,1.51,0,0,1,.17-.56.71.71,0,0,1,.43-.64,7.16,7.16,0,0,0,1.2-.73l1.2-1.28s.43-.32.43-.65a1.06,1.06,0,0,1,.17-.56l.26-.48.17-.81a11.91,11.91,0,0,0-.08-1.36c-.09-.56-.35-1.53-.35-1.53l-.25-.8a4.89,4.89,0,0,1-.09-1.13,7.08,7.08,0,0,1,.26-1.69,7.79,7.79,0,0,1,.26-1.28c.17-.57.51-2.42.51-2.42l.26-.56.77-1s.26-.49.43-.73a6,6,0,0,1,.6-.64l1.55-.73.68-.32.86-.32.94-.56.69-.81s.17-.08.26-.72.34-.16.08-1.69-.42-2.25-.42-2.25l-.26-.64-.77-.81a3.16,3.16,0,0,0-.61-.64,2.29,2.29,0,0,0-1-.56l-1.63-.49-1.28-.32a4.94,4.94,0,0,1-1.38-.48c-.51-.32-.94-.56-.94-.56l-.94-1.29-.69-.72-.69-.24-1.37-.08-1.72-.08-1.8-.25-.69-.24a.6.6,0,0,0-.68-.16c-.43.16-.52.24-.78.32a9.18,9.18,0,0,1-1,.17,1.32,1.32,0,0,1-.51-.41,12.33,12.33,0,0,1-.77-1.28l-1.12-.89-.86-.64a1.05,1.05,0,0,0-.94-.56h-1.29s-.09.48-.69-.33-.94-1.28-.94-1.28h-2.75l-1.46-.32-.43-1.85-.42-1.45-.35-.72s-.77-.25-.86-.57-.17-1-.17-1l-.08-1.05a7.79,7.79,0,0,0-1.38-.8,4.26,4.26,0,0,1-1.54-1,3,3,0,0,0-1.2-.64l-.78-.32-2-.24-1.2.08-.69.16-2.23.08-1.37-.4s.08-.24-.6-.81-2.24-2.17-2.24-2.17l-.6-.48-1.8-1.05a15,15,0,0,1-1.89-.72,6.77,6.77,0,0,1-1.2-.88,4.7,4.7,0,0,1-.77-.89c-.09-.24-.34-.8-.34-.8l-2.06.24a5.27,5.27,0,0,0-1.12.4l-.69.32a2.17,2.17,0,0,1-.77.08,10.53,10.53,0,0,1-1.63-.08c-.52-.08-1.8-.4-1.8-.4l-.86-.24-1.12-.64-.77-.57-1-.56a3.65,3.65,0,0,0-.86-.16,5.71,5.71,0,0,1-1.11-.24l-.6-.56a1.05,1.05,0,0,0-.69-.25,1.73,1.73,0,0,0-.86.17,2.91,2.91,0,0,1-.77.16l-.09-.73-.6-.56-.77.08a4.89,4.89,0,0,0-1,.48,12.53,12.53,0,0,1-1.63.73,7.77,7.77,0,0,0-1,.48c-.77.4-1.46.72-1.46.72s-.43.48-.77.81-.78.16-1.12.64a12.52,12.52,0,0,1-.94,1,2.39,2.39,0,0,0-.78,1.37c-.17.89-.25,1.29-.25,1.29l-1-.73-.51-.32-1.29-.64-.77-.16h-.86l-3,1.37a5.1,5.1,0,0,1-1.55-.33,7.71,7.71,0,0,1-.6-.64,9.79,9.79,0,0,0-.94-.8l-.69-.65s-.6-.4-.6-.64a5.66,5.66,0,0,0-.17-.88v-1.37l.08-1.13a.83.83,0,0,1,.35-.8,1.75,1.75,0,0,0,.85-.72,10.45,10.45,0,0,0,.61-1s.42-.08.08-.8-.6-1.21-.6-1.21a3.1,3.1,0,0,0-.77-.64,6,6,0,0,1-1-.41,5.27,5.27,0,0,0-1.38-.32s.69-.4-1-.08a15.83,15.83,0,0,1-2.14.4h-1a16.08,16.08,0,0,1-1.72-.32s-.77-.4-1-.56a3,3,0,0,1-.6-.64v-.73a1.09,1.09,0,0,1,.17-.56c.17-.24.6-.72.6-.72l.43-.81a2.33,2.33,0,0,0,.26-1,9.49,9.49,0,0,0,0-1.69,2.36,2.36,0,0,1,.09-1,3.74,3.74,0,0,1,.34-.64s.26-.72,0-1-.43-.57-.77-.65-1.55-.16-1.55-.16a8.43,8.43,0,0,0-1.11.08c-.52.08-.86-.16-1.29.08s-.95,1.53-.95,1.53l-.08.72-.69,1.13a11.5,11.5,0,0,1-.77.88,3.74,3.74,0,0,1-1.29.41s-.77.16-1.29.24a16.89,16.89,0,0,1-2,.08c-.43,0-1.8-.08-1.8-.08l-2.06-.24-1.55-.57-.43-1.44-.68-1.45a16,16,0,0,1-1-2.49,13.61,13.61,0,0,1-.17-2c0-.89.09-2,.09-2v-3.22a3.85,3.85,0,0,0,.51-1c.26-.64.09-.56.6-1.12a9.26,9.26,0,0,0,.86-1,7.55,7.55,0,0,0,.77-1.76,10.41,10.41,0,0,0-.17-2.66s-.77-.88-1.71-2.09a36.76,36.76,0,0,0-4.9-3.94,53.56,53.56,0,0,1-6.26-.88c-3-.65-5.58-1.29-8.07-.89s-6.87,1.21-6.87,1.21Z"/><path class="cls-5" d="M85.78,260.64l4.15,2.87,1.28,1.92v1.91l.64,1.28.64,1.92,1.28,1.91L95.68,275,97,276.29l-1.91.64.63,1.91H97.6l2.56,1.28-.64,1.28.64,1.28,1.27.63,1.28,1.28.64-1.28-.64-1.27-1.28-1.92v-1.28l-1.91-1.91L97.6,275l-1.92-2.56-1.27-2.55.64-.64H97.6l1.28.64v1.28L127,274.37l1.28-.64h2.55l.64-1.28.64-1.27,1.92.64h7.66l.64-.64v-.64h2.56l1.27-.64.64-.64h1.28l.64.64,1.91.64,1.28,1.28.64-.64.64-.64.64.64.64,1.27,1.28,1.28.63,1.92.64,2.55,1.28,1.28,1.28,1.28.64-1.28v-1.92l-.64-1.91-1.28-1.92-.64-1.91s-.64-4.48.64-5.75l1.92-1.92h1.28a.62.62,0,0,0,.63-.64,2.23,2.23,0,0,1,.64-1.28L164,261l1.28-.64.64-.64s3.19,0,.64-1.28l-1.28-1.28v-4.47h3.19l2.56-1.28v-1.28l.64-1.27.64-1.28s1.27-1.28,1.91-.64h0l1.28-1.28h1.28l1.28.64a4.47,4.47,0,0,0,0-3.19c-.64-1.92.63-2.56.63-2.56l1.28.64.64-.64v-.64l1.28-.64,1.28.64s2.55,0,.63-3.19v-3.2c0-.63,1.92,0,1.92,0v-1.27s1.28-.64,1.92,0h0l1.28-.64s1.27-1.28.63-1.28H187l-1.28.64-1.92.64-1.27.64v.64s-.64,1.27-1.28,0c0,0-2.56,1.27-1.92,0a7.92,7.92,0,0,1,1.28-1.92l1.28-.64,1.28-.64h.63a7.81,7.81,0,0,0,1.28-3.19h13.42s.64-1.28,1.28-.64,1.91-2.56,1.91-2.56a8.67,8.67,0,0,0,4.47,0v-4.47s-2.55-.64-3.19,0,0-2.55,0-2.55L201.09,215h-2.55l-.64.64v-1.92A2.37,2.37,0,0,0,196,212.4c-1.28,0,0-3.19,0-3.19l-2.55-1.28.64-1.28-.64-1.27-1.28-.64-.64-.64h-.64l-.64-1.28-.64-.64h-1.27l-.64,1.28.64.64L187,205.38h-5.11l-.64-.64v-.64h-.64v-1.28h0v-.64h0l-.64-.64s.64.64.64,0v-.64l.64-.63V199l-1.28-.64H178.1v-.64l-.64-.64-.64.64h-.64l-1.28-1.28-1.28-.64a6.35,6.35,0,0,1-1.91-.64h-3.84l-.64-.63h-1.91l-.64.63v1.28h.64l.64,1.28v4.47l-.64.64H164v.64l-.64.64v.64l.64.64h1.28c.64,0,1.91,1.27,1.91,1.27v2.56a6.52,6.52,0,0,1-.63,1.92v.63a.63.63,0,0,0-.64.64c0,.64.64,1.28,0,1.28s-.64,0-.64.64.64.64-.64.64H163.4l-.64-.64h-.64v1.28c0,.64-.63,1.27,0,1.27a.63.63,0,0,1,.64.64l.64.64s1.28.64.64,1.28-.64.64-.64,1.28v3.19h-3.19l-.64-.64-.64-.64h-.64l-.64-.63-.64-.64v-1.92l-.64-.64-.63-.64v-1.28a.62.62,0,0,1,.63-.63v-.64H157l-1.27-1.28h-.64l-.64.64-1.28-.64h-5.11l-.64-.64V213h0l-1.28-.64-1.27-.64-.64-.63-.64-.64H143l-.64-.64v-1.28a.89.89,0,0,0-1.28,0,2,2,0,0,1-1.28.64h0l-1.27.64h-.64l-.64-.64s.64-.64,0-.64a.63.63,0,0,1-.64-.64h.64a.63.63,0,0,1-.64-.64c0-.64-1.28-.64-1.28-.64l-.64-.64-.63-.63h-.64a.63.63,0,0,1-.64-.64.63.63,0,0,0-.64-.64v-1.92s-.64,0,0-.64a2,2,0,0,1,1.28-.64l.64-1.27v-1.28l-.64-.64a1.38,1.38,0,0,1,1.27-1.28c.64,0,1.92-1.28,1.92-1.28l.64-.63,1.28-.64.64-.64h1.27v-.64l-.64-1.28s-.63,0,0-.64a2.35,2.35,0,0,1,1.92-.64,6.45,6.45,0,0,0,1.92-.64l1.91-.63s1.28,0,1.28-.64v-1.28l-.64-1.28v-1.28s0,.64.64,0,0,0,.64,0a6.52,6.52,0,0,0,1.92-.63v-1.28l1.27-.64h4.48l.64.64V181.1l.63-.64h1.92l.64-.64a2.23,2.23,0,0,1-.64-1.28v-.63l-1.28-.64v-3.2l.64-1.28-.64-1.27v-1.28h.64l.64-.64h.64a.63.63,0,0,0,.64.64c.64,0,.64-.64.64,0a.63.63,0,0,0,.64.64h1.27l.64-.64v-.64h1.92v.64l.64.64h1.91l.64.64h0v1.27l.64.64s.64-.64.64,0a.63.63,0,0,0,.64.64l-.64,1.28V176l-.64.64h-1.28c-.63.64-.63,0-.63.64v1.27l.63.64h1.28l.64-.64v-.63l.64-.64V176a2.23,2.23,0,0,1,.64-1.28,6.45,6.45,0,0,1,1.92.64h1.27a2.23,2.23,0,0,1,.64,1.28v3.83a.63.63,0,0,0-.64.64c0,.64,0,0-.64.64l-.63.64a2,2,0,0,0-.64,1.28v1.27a.63.63,0,0,1-.64.64H166.6a.63.63,0,0,1-.64.64.63.63,0,0,0-.64.64v.64c0,.64-.64.64,0,.64h1.28l1.91.64h2.56l1.28-.64h1.27l.64,1.27,1.28.64.64,1.28h.64a.63.63,0,0,0,.64.64.63.63,0,0,1,.64.64v.64l.63.64h1.92a.89.89,0,0,1,1.28,0c.64.64,1.28,0,1.28.64a.62.62,0,0,0,.63.63,2.23,2.23,0,0,0,1.28.64.63.63,0,0,1,.64.64H187l.64-.64-.64-1.27-.64-.64h-1.28s.64-.64,0-.64a.63.63,0,0,1-.64-.64H187l.64.64H189c.63,0,.63.64.63-.64v-1.28a.62.62,0,0,1-.63-.64,6.35,6.35,0,0,0-.64-1.91s-.64.63-.64,0-.64-.64-1.28-1.28,0-.64-.64-.64a2.23,2.23,0,0,1-1.28-.64l-.64-1.28-.63-1.27v-1.28l.63-.64h3.84c.64,0,.64,0,1.28.64l1.27,1.28v.63l.64.64.64.64.64-.64.64-.64.64-.63.64-.64.63-.64s1.28.64,1.28,0,.64,0,.64-.64a2.23,2.23,0,0,1,.64-1.28l-.64-1.28h-3.19a6.45,6.45,0,0,0-1.92-.64,2.25,2.25,0,0,1-1.28-.63.88.88,0,0,0-1.27,0l-.64.63s-1.28,0-1.28-.63v-.64a.63.63,0,0,0-.64-.64h-2.56l-.63-1.28-.64-1.28c0-.64,0-.64.64-.64a2.23,2.23,0,0,0,1.27-.64l1.28-.63.64-.64H187v-.64l-1.28-.64-1.92-.64h-1.27l-1.28-.64H180s0,.64-.64,0-1.27-.64-1.27-1.28-.64,0-.64-.63,0-.64-.64-.64-.64.64-1.28,0a9.12,9.12,0,0,0-2.56-1.28s0,.64-.63,0a2,2,0,0,1-.64-1.28h-.64l-1.28-.64h-.64s0-1.28-.64-1.28a2.25,2.25,0,0,1-1.28-.63h-.63V160a2,2,0,0,0-.64-1.28,2.35,2.35,0,0,0-1.92-.64h-11.5v.64h0s-.64.64-.64,0a.63.63,0,0,0-.64-.64s-.64,0,0-.64.64-1.27,0-1.27a6.42,6.42,0,0,0-1.91.63l-.64,1.28h-1.92c-.64,0-1.91,1.28-1.91,1.28V160l-1.28.64a.63.63,0,0,0-.64.64v1.27c0,1.28.64,1.28.64,1.92s0,.64.64,1.28,0,.64.64,1.28a2,2,0,0,0,1.27.63l.64.64a3.16,3.16,0,0,0,1.92.64l.64.64.64,1.28s.63-1.28.63-.64v3.83A6.52,6.52,0,0,1,150,176l-.64.64-.64,1.28-.64.63a2,2,0,0,1-1.28.64.64.64,0,0,1-1.28,0l-.63-1.27.63-1.28s1.28-.64.64-1.28a2,2,0,0,1-.64-1.28,2.19,2.19,0,0,0-1.27-.64,2.23,2.23,0,0,0-1.28.64s.64,0,0,.64a3.16,3.16,0,0,1-1.92.64h-.64v-2.56l-1.27-1.27h-1.28V169l.64-1.28s0-1.27-.64-1.27a2.23,2.23,0,0,1-1.28-.64s0,1.28-.64.64a3.16,3.16,0,0,1-.64-1.92l-.64-.64s-.63-1.28,0-1.28,0-.64,0-.64v-.63l.64-.64,1.28-.64,1.28.64.64-.64.64-1.28.63-.64H141l.64-.64v-.64l-1.92-.63h-.63l-.64-.64s-1.92-.64-2.56,0a2,2,0,0,1-1.28.64H134l-5.12,2.55s-3.19,3.19-3.19,3.83v1.92l1.92-.64h1.91l.64-1.28-.64-.64v-.63l.64-.64.64-.64h1.28v3.19a2.23,2.23,0,0,1-.64,1.28l-.64.64a.63.63,0,0,1-.64.64c-.64,0-.64.64-.64,1.28v1.27c0,.64-.64,0,0,.64l.64.64,1.92,1.28,1.28.64.64.64v1.91l-.64.64-.64.64s-.64-.64-.64.64v1.92a.62.62,0,0,1-.64.63c-.64,0-1.28.64-1.28,0v-3.19l.64-.64h.64a.63.63,0,0,0,.64-.64v-.64a.63.63,0,0,0-.64-.64l-.64-.63h-.64l-1.28-1.28h-.63s-.64-.64-.64,0a2.23,2.23,0,0,1-.64,1.28h0c-.64.63,0,.63-1.28.63h-1.92a.63.63,0,0,0-.64.64c0,.64-.63,1.28.64,1.28h2.56c.64,0,.64.64.64,1.28s-.64.64-.64,1.28a.63.63,0,0,1-.64.64h-2.56s-.63.63-.63,0,0-.64-.64-.64-1.28-.64-1.28,0v1.27s0,.64-1.28,0a5,5,0,0,0-1.91-.63h-1.28S75.24,236,85.78,260.64Z"/><path class="cls-5" d="M138.49,151.07l1.27,1.92h.64l.64.64h8.31l1.91.64h1.28l1.28-.64h2.55a.89.89,0,0,1,1.28,0c.64.64,1.28,0,1.92,0h.64l.64-.64v-1.28l-.64-.64h-1.28l-1.28-.63-1.28.63h-3.19l-1.28.64-.64.64H150s.63-.64-.64-.64h-1.92l-.64-.64v-.63h-4.47l-.64-.64V146l3.2-5.11,4.47-2.55,1.91,1.28.64.63v1.28l-.64.64v.64H150l-.64.64-.64.64-.64.64V146h0l.64,1.28h3.19l.64-1.28,1.28-.64h.64c.64,0,.64.64,1.28.64h3.83v.64h1.28l.64-.64.63-.64v-1.91l.64-.64s.64.64.64,0v-.64a2.23,2.23,0,0,0-.64-1.28,2,2,0,0,1,1.28-.64h.64l.64.64,1.28-.64.63-.63V138.3l-1.27-.64h-.64L164,137l1.28-1.28c.64-.64.64-1.28,1.28-1.28a14.79,14.79,0,0,0,2.55-.63l.64-.64h6.39s1.28,0,.64-.64a2,2,0,0,1-.64-1.28h0s1.28-1.28,1.28-.64a.63.63,0,0,0,.64.64h1.27l.64-.64V130a.63.63,0,0,1,.64-.64h1.28l1.28-.64V126.8l-.64-1.28v-.64l.64-.64h4.47l1.28-.64h3.19l1.28-.63.64-.64v-.64h-2.56l-.64-.64h-7v-.64l-.63-.64h-.64a.63.63,0,0,0-.64-.64h-5.11c-.64,0,.64-1.28-1.92,0s-4.47,1.92-5.11,2.56a9.21,9.21,0,0,1-1.92,1.28L166,124.88c-.64.64-1.28.64-1.28,1.28a2.23,2.23,0,0,1-.64,1.28v1.91c0,.64-.64,0-.64.64s.64.64,0,.64h-3.19c-.64,0-3.2,1.92-4.47,1.92a8.78,8.78,0,0,0-2.34.33l-6.61,2.86-5.75,7-1.91,4.47-.64,3.83Z"/><path class="cls-5" d="M215.79,176h-3.2l-1.28.64-.63,1.91v1.28a2.25,2.25,0,0,1,.63,1.28v.64l1.28.64v3.19l.64.64,1.28,1.28,1.28,1.28a25.17,25.17,0,0,0,1.91,2.55,9.12,9.12,0,0,1,1.28,2.56l.64,1.91s-.64,0,0,.64-.64.64,1.28,1.28l1.91.64s0,.64.64,0,.64,0,1.28,0H226l1.28,1.28,1.27.64h1.28l1.28-1.28v-1.92l-.64-1.28.64-1.91,1.92-.64.63-.64,1.28-1.28V189.4l.64-1.27v-1.28l.64-.64,1.28-1.28a3.14,3.14,0,0,1,1.91-.64h3.84l1.27-.63,1.92-1.28,1.28-1.92.64-1.28.64-.64a.88.88,0,0,0,0-1.27s-.64-1.92,0-1.28a.87.87,0,0,0,1.27,0l3.2-.64h6.39l1.91-1.28,1.28-.64,1.28-.64h1.28s.64,1.28,1.27,0a6.32,6.32,0,0,0,.64-2.55s-.64-1.28-1.27-1.28h-.64l-.64-1.28a.62.62,0,0,0,.64-.63c0-.64,1.91-.64,1.91-.64l.64-.64a9.12,9.12,0,0,0,1.28-2.56l-.64-1.28s-1.28,0-.64-.63l1.28-1.28v-.64l1.28-1.92,1.27-.64,2.56-2.55v-3.2h1.28l-1.28-1.91h-1.28a1.38,1.38,0,0,1-1.28-1.28,2.25,2.25,0,0,0-.63-1.28v-1.28h3.19a2,2,0,0,1,1.28.64,2,2,0,0,0,1.28.64s1.91.64,1.27-.64a4.89,4.89,0,0,1-.64-1.91l-1.27-1.92-.64-.64h-1.28s-1.28.64-1.92,0a.87.87,0,0,0-1.27,0l-1.28.64.64-2.55V138.3l1.27-.64,1.28-1.28.64-.64.64-.64v-2.55h2.56s1.91.64,1.27-.64l-.64-1.28h1.92v-1.28l.64-1.27h3.19a2,2,0,0,0,1.28-.64l1.28-1.28h1.28l.64-1.28-1.28-.64H281l-1.28.64s.64.64-.64.64h-1.28a.62.62,0,0,1-.63.64H275.2s-1.28-.64-1.28,0,0,.64-.64,1.28L272,128.71h-1.27a6.45,6.45,0,0,1-1.92.64h-1.28l-.64-1.27a.63.63,0,0,0,.64-.64c0-.64,1.28-1.28,1.28-1.28l.64-.64.64-.64v-.64l-.64-1.27s0-.64-.64,0l-.64.63-.64.64-.64-1.27s0,.63.64,0a9.21,9.21,0,0,0,1.28-1.92v-1.28s0-1.92-.64-1.28a9.1,9.1,0,0,1-2.55,1.28l-1.28-1.28.64-1.27a.89.89,0,0,0-1.28,0,2,2,0,0,0-.64,1.27h-1.92l1.28-1.27-1.28-1.28-1.27,1.28c-.64.63-1.28-1.28-1.28-1.28h-1.92l-2.55.64-3.2.64-3.19-.64h-3.2l-1.27.64-1.92.63v.64s2.56-.64-1.28,0a17.15,17.15,0,0,1-6.39,0h-6.38l-1.92.64v1.92l-.64,1.28h-1.28l-1.27.64-1.28-.64-1.28-.64-.64-1.28h-2.55v1.92l.63.64s.64,1.27,0,1.27a27.92,27.92,0,0,1-3.19-.64l-1.28-1.27H209.4l-1.28.64h-2.55l-1.92.63h-1.28a6.54,6.54,0,0,0-2.55.64l-.64.64-1.92.64-.64,1.28-1.28.64-1.27,1.27h-2.56l-.64-.63v1.27h-1.28l-1.91.64s-1.28.64,0,1.28a7.7,7.7,0,0,1,1.91,1.28v.64a3.17,3.17,0,0,1-.63,1.91,9.21,9.21,0,0,1-1.92,1.28l-1.28.64h-1.28l-.64-.64-2.55,1.28-1.92.64H178.1v1.91l.63.64,1.28,1.28c0,1.28.64,0,0,1.28s0,1.91,0,1.91l1.28.64h1.28a2.19,2.19,0,0,1,1.27.64l1.28.64,1.28.64h10.22l.64.64,1.92.64,1.27.64,2.56,1.27s-.64,0,0,.64a39.2,39.2,0,0,1,2.56,3.84s0-.64.63,0l.64.64.64,1.91v2.56l-.64,2.55-.64.64a.9.9,0,0,0,0,1.28c.64.64,1.92,1.28,2.56,0s-.64-1.28.64-1.28H212c.64,0,.64,0,1.28.64s.64,1.28,1.28,1.28h.64s1.91.64,1.28,1.28l-1.28,1.27s-.64,0,0,1.28,0,1.92.64,2.56a3.81,3.81,0,0,1,.64,2.55A2.23,2.23,0,0,1,215.79,176Z"/><path class="cls-6" d="M277.43,189.72s.64.64.64,0v-.63H280a2.23,2.23,0,0,0,1.28-.64h0v-.64h.64s.64,1.28,1.27.64a9.21,9.21,0,0,0,1.28-1.92v-.64a.63.63,0,0,0-.64-.64l.64-.64-1.28-.64-.63-.63h0l-.64-.64s0-1.28-.64,0S280,184,280,184h-5.11a.63.63,0,0,1-.64.64h-2.55l-1.28-1.27s0-.64-1.28-.64-1.92,0-1.92.64-1.27,0,0,.63,1.28.64,1.92.64a2.23,2.23,0,0,1,1.28.64l-.64.64s0-.64-.64,0-1.28,1.28-.64,1.28h2.56c1.27,0,1.27.64,1.27.64s.64.64,0,.64a57,57,0,0,1-1.27,1.27.63.63,0,0,0,.64.64l1.27-.64h4.47Z"/><path class="cls-6" d="M399.45,380.1l-2.55-.64-.64-.64s.64-.64,0-.64H395l-.64-.64V375l-.64-.64a2.23,2.23,0,0,1,.64-1.28l.64-1.28.64-.63v-1.28a2.23,2.23,0,0,1,.64-1.28v-3.19l-.64-.64-.64-.64v-.64a.63.63,0,0,1-.64-.64v-1.92H395s1.92.64,1.92,0,.64-.64,1.28-.64h1.27a.62.62,0,0,1,.64-.63,2.23,2.23,0,0,0,1.28-.64l.64-.64V357.1h.64s-.64-.64,0-.64,0-.64,1.28-.64a1.24,1.24,0,0,0,1.27-1.27h.64a2.19,2.19,0,0,1,.64,1.27c0,.64-.64.64,0,1.28a2,2,0,0,1,.64,1.28V359a2.19,2.19,0,0,0,.64,1.27l-1.28.64-.64.64-.64.64v1.28h-.64V366h-.63V368a6.45,6.45,0,0,0-.64,1.92v2.55l-.64.64v1.28l.64.64v.64a2,2,0,0,1-.64,1.27c-.64.64,0,1.28-.64,1.28s-1.28,1.28-1.28,1.28Z"/><path class="cls-6" d="M347.71,399.26,346.43,398h-.64l-.64-.64v-1.28h.64l-.64-.64v-.64l-.64-1.28V391h-1.27l-.64-.64V388.4l-1.28-1.27-.64-.64-.64-.64a.64.64,0,0,1,0-1.28v-1.28l-1.28-.64-.64-.63V380.1s-.63.64-.63,0v-2.56l.63-1.27V375l-.63-.64h-.64v-1.28l-.64-.64-.64-.64-.64-1.27-.64-1.28-.64-.64L333,368v-1.28c0-.64.64,0,.64-1.27v-3.2l.64-1.28.64-.64V359l-.64-1.28v-.64l.64-.64.64-.64h.64l.64-.64.64-1.27-.64-.64V352h-.64l-.64-.64v-4.47l.64-1.28v-1.28h-1.28l-.64-.63v-1.28l-.64-.64-.64-.64-.63-.64a2,2,0,0,1-.64-1.28v-.64h-.64l-.64-.63V336l-.64-.64h-.64l-.64-.64-.64-1.28v-2.55h.64s-.64-.64,0-.64h.64v-3.19s.64.63.64,0v-1.92l-.64-.64s.64,0,0-.64,0-.64-.64-.64h-5.75l-1.27-.64V322s.63-3.83-7.67-1.27l-2.56.64-.64.63-.63.64h-2.56l-1.28.64H296l-.64-.64-.64-.64h-1.27l-2.56-1.91-1.28-1.28-.64-.64-.63-1.28-.64-.64-.64-.63v-1.92l-1.28-.64-.64-.64a2.23,2.23,0,0,1-.64-1.28,2.23,2.23,0,0,0-.64-1.27l-1.27-1.28a2,2,0,0,0-1.28-.64V306l-.64-.64-.64-.63v-.64a6.45,6.45,0,0,0-.64-1.92v-.64s-.64,0,0-.64a2,2,0,0,0,.64-1.28h.64l.64-.63v-1.92a.63.63,0,0,1-.64-.64l-.64-.64v-2.55l-.64-.64v-.64l-.64-.64.64-.64.64-1.92.64-.63,1.28-1.28.64-.64.63-.64v-.64l.64-.64.64-.64v-2.55l.64-.64.64-.64.64-.64.64-.64h.64l1.27-.64h.64l.64-.63h.64v-.64h.64l.64-.64.64-1.28.64-.64-.64-1.92v-1.27l.64-1.28H294v-1.92H296l1.92-1.27a.63.63,0,0,0,.64-.64v-.64l.64-.64v-1.28l.63-.64.64-.64s1.28-.64,1.28,0a.63.63,0,0,0,.64.64l.64.64h5.11l.64-.64h.64l.64-.64h1.27l1.28-.64a.62.62,0,0,1,.64-.63h.64l.64-.64H317l.64-.64H319a2.23,2.23,0,0,0,1.28-.64h10.22a.63.63,0,0,1,.64.64,2.23,2.23,0,0,1-.64,1.28v1.91l.64.64.64.64a3.09,3.09,0,0,1,0,2.56l.64.63a3.12,3.12,0,0,0,1.91.64l.64.64H340l.64.64.64,1.28v1.28h-.64l.64.63.64-.63h1.91l1.28.63v1.92h2.56l1.28-.64.63-.64v-2.55l-.63-1.28.63-.64a2.23,2.23,0,0,0,1.28-.64h2.56l1.27.64,1.28.64v.64h1.28a2.23,2.23,0,0,1,1.28.64h.64a2.23,2.23,0,0,0,1.27.64h1.28c.64,0,.64.64,1.28.64a2.25,2.25,0,0,1,1.28.63s1.91.64,1.91,0,0,0,.64-.63a2,2,0,0,1,1.28-.64.63.63,0,0,1,.64-.64c.64,0,.64-.64,1.28,0a2,2,0,0,0,1.27.64s-1.27.64,0,.64h1.92l1.28.63,1.92,1.28V276c0,.64.63,0-.64.64s-.64,0-1.28.64-.64.63-.64,1.27-.64.64,0,1.28,1.28,1.92,1.92,2.56.64,1.27,1.27,1.91a9.12,9.12,0,0,1,1.28,2.56,14.36,14.36,0,0,1,.64,2.55c0,.64.64,0,.64,1.28s0,.64,1.28,2.56,1.27,2.55,1.27,2.55,0-1.28.64,1.28a20.67,20.67,0,0,0,1.28,3.83s.64-.64,1.28.64a4.92,4.92,0,0,0,1.28,1.92c.64.64,1.27.64,1.91,1.91a8.83,8.83,0,0,0,1.92,2.56c.64.64.64,3.83,5.11,3.83h5.75l1.28-.64,1.28-.63a2.19,2.19,0,0,1,1.27-.64h2.56l-.64.64V313l-.64.64-.64.64-.64.64v3.83a.63.63,0,0,1-.64.64,2.23,2.23,0,0,0-1.27.64.63.63,0,0,0-.64.64A2.19,2.19,0,0,1,402,322v.64a.63.63,0,0,0-.64.64,2.23,2.23,0,0,1-.64,1.28l-1.28.64-.64.64-.63.64-.64.64-.64,1.27-.64.64-.64,1.28-1.28.64h-1.91a.63.63,0,0,0-.64.64v1.27s.64.64,0,.64h-1.28s-1.28,0-1.28.64v.64c0,.64.64-.64,0,.64a5,5,0,0,0-.64,1.92l-.64.64h-.63s-1.28,0-1.28.63-.64,0-.64,1.28a27.72,27.72,0,0,0,.64,3.2v1.27l.64,1.28v.64a6.45,6.45,0,0,1-.64,1.92v1.91c0,.64.64.64.64,1.28s1.27,1.28,1.27,1.92v1.28a.62.62,0,0,1,.64.63v2.56l-.64,2.55-.63,1.28-.64,1.28a2.26,2.26,0,0,1-1.92,1.92l-1.28.64H382.2a2.2,2.2,0,0,0-.63,1.27,2.23,2.23,0,0,1-.64,1.28h-.64l-.64.64h-1.28a2.23,2.23,0,0,0-.64,1.28,6.35,6.35,0,0,1-.64,1.91,2.23,2.23,0,0,1,.64,1.28c0,.64.64,1.28.64,1.92s.64.64,0,1.91l-1.28,2.56a.62.62,0,0,0-.63.64,2.23,2.23,0,0,1-.64,1.28l-1.28-.64s-1.28-.64-.64.64a4.89,4.89,0,0,1,.64,1.91v1.28l-.64,1.92s0,1.28-.64,1.28H372a2.19,2.19,0,0,0-.64,1.27v1.28a.62.62,0,0,1-.63.64s.63.64,0,.64-1.28.64-1.92,1.28a2,2,0,0,0-.64,1.27v.64l-.64.64-1.28-.64s0-.64-.63,0l-1.28,1.28h-2.56l-.64.64h-.64l-.63.64a.63.63,0,0,1-.64.64,2.23,2.23,0,0,1-1.28-.64h-.64l-.64.64c-.64.64-.64,0-.64.64s0,.63-.64.63a6.35,6.35,0,0,0-1.91.64H349Z"/><path class="cls-6" d="M464.62,318.77s-1.28,0-1.28-1.92.64-2.55,1.28-2.55,1.91,1.28,1.91,1.28,0,3.19-1.91,3.19"/><path class="cls-6" d="M338.12,138.62,340,138l1.28-.64,1.28.64.64.64-.64.64s-1.28,0-1.28.63a6.45,6.45,0,0,1-.64,1.92.63.63,0,0,0-.64.64v1.28l.64.64H342l.64.64v1.27h1.27s-.63-.64,0-.64a.62.62,0,0,0,.64-.63v-.64h0v-.64h.64v-.64l.64-1.92.64-.64h0a2,2,0,0,1,1.28-.64l.64-.63,1.27-1.28h.64l1.28.64s0-.64.64,0,.64,0,.64.64v1.27h0l-.64,1.28v.64l1.28.64h.64a2.23,2.23,0,0,0,1.27-.64h1.28a2.23,2.23,0,0,1,1.28.64s-.64-.64,0-.64,0-1.28,0-1.28l-1.28-.64-.64-.64h-1.28v-2.55h-.63a.63.63,0,0,0-.64-.64H350.9l-.64-.64h-3.19v-.64c0-.64-.64-1.28,0-1.28h.64l.64-.63h2.55s-.64,0,.64.63a5,5,0,0,0,1.92.64h5.11s0,.64.64,0l.64-.64h.63l1.28-.63s.64.63.64,0a.63.63,0,0,1,.64-.64v-1.28h-.64l-1.28-.64a.63.63,0,0,1-.64.64c-.63,0-.63.64-1.27.64h-2.56a.63.63,0,0,0-.64-.64h-.64l-.64-.64h-6.38a.63.63,0,0,0-.64.64s-.64-.64-.64,0,.64,0,0,.64a2.35,2.35,0,0,1-1.92.64,6.35,6.35,0,0,0-1.91.64s-.64-.64-.64,0a2.23,2.23,0,0,1-.64,1.27v1.28h-1.28l-.64-.64v-.64c0-.64,0-.64-.64-.64a2.23,2.23,0,0,0-1.28.64s-1.27.64-1.27,0-1.28,0-1.28-.64,1.28,0,0-.63a5,5,0,0,0-1.92-.64v3.19l-.64,1.28s-.63.64,0,.64a.63.63,0,0,1,.64.64h1.28l1.28.64,1.28-.64Z"/><path class="cls-6" d="M293.41,221l-.64,1.28,1.27.63,1.92-.63,1.92.63.64-.63V221s-.64,0,.64-.64,1.27-1.28,1.27-1.28h0c-1.27-.64-1.27,0-1.27-.64a2.25,2.25,0,0,1,.63-1.28h.64l.64-1.27s-.64-2.56-2.55-.64l-.64.64v.64c0,.63-1.28.63-1.28.63H296a2.25,2.25,0,0,1-1.28-.63h0l-.64.63v1.28h0v1.92A.62.62,0,0,1,293.41,221Z"/><path class="cls-6" d="M303,226.78h-.64l-.64-.64a.63.63,0,0,0,.64-.64c0-.64,1.28-.64,1.28-.64v-2.55L303,221v-.64a.63.63,0,0,0,.64-.64.63.63,0,0,1,.64-.64h1.91v-3.19l-.64-1.28V214h-.63l-.64-1.28-.64-.64h0l-.64.64h-1.92v-1.28a.62.62,0,0,0,.64-.63v-1.92h0l-.64-.64v-.64h0l.64-.64h.64a2,2,0,0,0,.64-1.27v-.64h1.28l.64.64h0V207h.63v.64h1.28l.64-.64a2,2,0,0,1,1.28.64h0v1.28h-.64l-.64.64-.64.64a3.06,3.06,0,0,0,0,2.55l1.28,1.92.64.64.64.64.64.64.63.63.64.64.64.64,1.28.64h0l1.28.64.64.64h0a.63.63,0,0,1,.64.64v.64h-.64l-.64-.64h-.64v3.83h-1.92l-.64-.64s-1.27,0-1.27.64-1.92.64-1.92.64h-1.92l-.64.64v.64h0a.62.62,0,0,1-.63.64h-.64l-1.28-.64Z"/><path class="cls-6" d="M419.9,168h-3.2l-.64-.64-1.27-.63h-.64v-1.92l-.64-.64h-1.28l-.64.64H411a.63.63,0,0,1-.64-.64c0-.64.64,0,.64-.64v-1.28h1.28a2,2,0,0,0,.64-1.27l.64-.64h0l.64-1.28s-.64-1.92.64-2.56a11.8,11.8,0,0,0,2.55-1.91L418,154l.64-.64s.64-.64,0-.64A.63.63,0,0,1,418,152v-.64s.64.64.64,0a.63.63,0,0,1,.64-.64h1.28l.63-.63h1.92v.63l.64-.63h.64v-.64l.64-.64v.64h.64l.64-.64h0l.63-.64,1.92,2.55-.64.64V152h-.64l-.64.64v.64h-.63l-1.28-.64h0s.64,0,0,.64l-.64.64h-1.28s-.64-.64-.64,0a2.23,2.23,0,0,1-.64,1.28l-.64.64-1.27,1.27-.64.64h0l-.64.64H418l-.64.64V161h-.64a.88.88,0,0,0,0,1.27v1.28h0v1.28h0s-.64.64,0,.64h.64l.64.64h.64l.64.64h0l.64.63h0Z"/><path class="cls-6" d="M329.18,214s0,.64-.64,0l-.64-.64v-1.92h0l-.64-.63v-.64l.64-.64h1.28s.64.64.64,0v-1.28s0-1.28.64-.64a2,2,0,0,0,1.28.64v2.56h0l.64.63H333s.64-1.27.64-.63a.62.62,0,0,0,.64.63v.64h0a.63.63,0,0,1-.64.64l-.64.64h-1.27s-.64-.64-.64,0a2.23,2.23,0,0,1-.64,1.28h0c-.64,0,0,.64-.64,0Z"/><path class="cls-6" d="M451.84,180.78s-1.28,0-1.28.64a.63.63,0,0,1-.64.64l-.64.64H448a.63.63,0,0,0-.64-.64h-3.84v-1.28h.64l.64-.64h1.92v-.64H448l.63-.64v-1.27l.64-.64v-.64l.64-.64L441,163.53v1.92l-.21,0-.36.39-.57.4-.51.79v.39a1.06,1.06,0,0,0,.06.54,8.06,8.06,0,0,0,.28,1c.2.48.31.76.48,1.16a7.08,7.08,0,0,0,.42.79s0,.05.37.48a6,6,0,0,0,.73.7,1,1,0,0,1,.29.34c.08.2.31,1,.31,1a2.62,2.62,0,0,1,.11.85,7.34,7.34,0,0,1-.34,1.61l-1.41.31a6,6,0,0,1-.79-.14,8.4,8.4,0,0,1-.84-.43s-.68-.56-.93-.79-.71-.56-.71-.56a2.5,2.5,0,0,0-.59-.48,4.41,4.41,0,0,0-.71-.2l-1.49-.87-.56-.37a1.72,1.72,0,0,0-1.36-.64,13.73,13.73,0,0,0-1.38.14,1.44,1.44,0,0,0-.42.14s0,.25-.45,0a1.79,1.79,0,0,1-.82-.71,1.16,1.16,0,0,0-.42-.53,1.84,1.84,0,0,0-.62-.34c-.2-.06-.68-.14-.68-.14l-.76,0a12,12,0,0,0-1.29-.48,11.49,11.49,0,0,1-1.72-.85,1.47,1.47,0,0,0-.51-.25c-.11,0-.42-.85-.37.17a2.53,2.53,0,0,0,.31,1.32l.26.2.64.51a1.83,1.83,0,0,0,.6.39c.39.17,1,.4,1,.4l.68.14s.36.19.42.39a1.81,1.81,0,0,1,.14.54,1,1,0,0,1-.08.73,2,2,0,0,1-.48.93,2.37,2.37,0,0,1-.62.59,1.67,1.67,0,0,1-1,.34,1.74,1.74,0,0,1-1-.34c-.08-.14-1.43-1.18-1.43-1.18a1.36,1.36,0,0,0-.62-.09,6,6,0,0,0-1.16.17l-.28.28-.06.37-.53.45-.62.4-.93,0a.87.87,0,0,1-.57-.2l-.42-.45-.7-.05a.55.55,0,0,0-.43.14c-.14.17-.25.25-.22.45s.17.22,0,.45a.8.8,0,0,1-.51.39,1,1,0,0,1-.76.12,3.8,3.8,0,0,1-.85-.31.52.52,0,0,1,.09-.59,7.26,7.26,0,0,0,.47-.62s.68.05-.08-.62-1-.68-1-.68l-.17.11a9.34,9.34,0,0,0-.9.9l-.14.23-.2.34-.14.22s0,.26-.34.26-.56-.06-.81,0-.09-.34-.88.25a5.44,5.44,0,0,1-1,.68l-.59-.11-.37-.2-.28.05a3.91,3.91,0,0,0-.87.62,2.5,2.5,0,0,1-.82.54c-.09,0-.73.11-.73.11a3.33,3.33,0,0,0-.93.26c-.29.17-.71.48-.71.48l-.42.64-.17.82a.35.35,0,0,1,.08.51,1.31,1.31,0,0,1-1,.62c-.43.05-.74.14-1.27.17a9.45,9.45,0,0,1-1.49-.12,3.91,3.91,0,0,1-1.16-.36,1,1,0,0,1-.48-.71c0-.33-.11-.48,0-.7a3.88,3.88,0,0,1,.48-.56s.25-.26.48-.46.45-.42.45-.42a4.15,4.15,0,0,0,.48-.82,6.73,6.73,0,0,0,.14-.81s.14-.85-.45-.62-1.13.48-1.13.48l-.51.56-.25.06a4.65,4.65,0,0,1-.9-.71c-.26-.31-.2-.36-.57-.53a2.49,2.49,0,0,0-.81-.31c-.2,0-.34-.17-.68,0s-.51.14-.51.45.57.5.57.5l.28.23.45.42a2.37,2.37,0,0,1,.39.4c.14.19.29.19.31.5s0,.62,0,.93.09,1.05.09,1.05.08.81.08,1.32a7,7,0,0,1,0,.93c0,.23-.11.76-.11.76a.71.71,0,0,1-.17.29,1,1,0,0,1-.84.11c-.48-.11-.85-.4-1-.42s-.87,0-.87,0l-.37-.09a1.4,1.4,0,0,1-.48-.45c-.14-.25-.22-.36-.36-.39a.74.74,0,0,0-.51,0c-.11.08-.25.11-.28.36a4.16,4.16,0,0,0,0,.59,2.78,2.78,0,0,1-.17.68,2.23,2.23,0,0,1-.59.56A3.69,3.69,0,0,1,389,184c-.42,0-.65,0-.82,0h-.36a.59.59,0,0,0-.29.36c0,.23-.11.2,0,.6a1,1,0,0,0,.45.59l.11.34.22.22a2.41,2.41,0,0,1-.11.54,1.18,1.18,0,0,1-.17.36l-.17.28a1.93,1.93,0,0,1-.53.06,2.77,2.77,0,0,1-.93-.08c-.4-.12-1.16-.43-1.16-.43a5.47,5.47,0,0,1-.67-.36,1.37,1.37,0,0,0-.51-.26c-.23,0-.76-.22-.76-.22a2.63,2.63,0,0,1-.45-.17,3.44,3.44,0,0,1-.43-.25.36.36,0,0,0-.39-.06c-.2.11-.4.06-.42.31s0,.65,0,.65a6.82,6.82,0,0,0,.22.65c.12.25.31.7.31.7l.6.65a.4.4,0,0,1,.28.25,2.42,2.42,0,0,1,0,.62.36.36,0,0,1-.54.23c-.39-.23-.59-.34-.7-.57s-.23-.53-.4-.59a1.5,1.5,0,0,0-.67,0c-.09.06-.31.17-.31.17l-.45,0-.57-.36c-.22-.14-.62-.23-.67-.31s-.23.36-.26-.51a13.34,13.34,0,0,1,0-1.52l.11-.85a1.28,1.28,0,0,0-.14-.82,4,4,0,0,0-.87-.93s0-.08-1.16-.7l-1.58-.82s-.16-.05-.14-.34a3.23,3.23,0,0,1,.12-.56l.28-.28s0-.2.28-.06,1,.62,1,.62l.26.09h.56a5.19,5.19,0,0,1,.88.08,9.64,9.64,0,0,1,1.15.42l.48.46.7.5a.93.93,0,0,0,.71,0c.39-.14.53-.31.93-.14s.51.59,1.07.73,1.16.26,1.16.26a3.59,3.59,0,0,0,1.15,0c.51-.12.85,0,1.13-.31s.45-.48.53-.57.34-.36.34-.36a1.45,1.45,0,0,1,.28-.79c.26-.26.26-.4.62-.65a2.34,2.34,0,0,1,.68-.42c.14,0,.71-.4.76-.6s.14-.11,0-.39.59.31-.34-.62a6.88,6.88,0,0,0-1.55-1.24l-.62-.82s-.51-1-.79-1.15a2.36,2.36,0,0,0-1.12-.14,4.39,4.39,0,0,0-.51.11,11.57,11.57,0,0,1-1.13-.42c-.39-.2-1.1-.34-1.38-.46a3.44,3.44,0,0,0-.87-.22.7.7,0,0,0-.31.08s-.71-.64-.79-.73-.31-.14-.4-.31,0-.39-.36-.48a2.79,2.79,0,0,0-1.22-.14,3.06,3.06,0,0,0-.81.4,1.43,1.43,0,0,1-.82.16c-.34,0-.14,0-1.16-.08a14.18,14.18,0,0,1-1.72-.2s-.39-.11-.19-.45.45-.42.36-.59,0-.31-.42-.34a9.68,9.68,0,0,0-1.15,0s-.12.14-.94.23-.76-.09-1.38,0a.93.93,0,0,1-.93-.31l-.17-.45a2.1,2.1,0,0,1,.06-.65,1.56,1.56,0,0,0,.25-.45c.17-.36.31-.76.31-.76a2,2,0,0,0-.08-.84,3.65,3.65,0,0,0-.42-.57s-.54-.17-.79.12-.51.47-.62.62a2.21,2.21,0,0,1-.34.31.43.43,0,0,1-.56-.23c-.23-.39-.37-.48-.23-.7s.48-.34.14-.43a4.11,4.11,0,0,0-.93-.08l-.84,0a9.84,9.84,0,0,0-1.44-.06c-.73,0-1,0-1.27,0a8.46,8.46,0,0,1-1.07-.23l-.56-.36s-.2-.31-.4-.31h-.76a.88.88,0,0,0-.45.33l-.51.65c-.11.14-.2.34-.31.45s-.28.23-.39.37a2.85,2.85,0,0,1-.34.31s-.68.11-.9-.08-.57-.57-.57-.57h-.36a3.47,3.47,0,0,0-.76.06c-.31,0-.45,0-.45.17s-.15.34.05.65-.22.47-.22.47v.2a1.58,1.58,0,0,1-.29.42,1.29,1.29,0,0,1-.25.2.45.45,0,0,1-.25.11,1.4,1.4,0,0,0-.57.29,1.76,1.76,0,0,0-.33.45l-.34.28-1.38-.08a1.25,1.25,0,0,0-.48-.2,8.23,8.23,0,0,0-1.07-.2,2.1,2.1,0,0,0-1.08.09,4,4,0,0,0-.7.5s0,.48,0,.74a1.12,1.12,0,0,1-.34.78,2.46,2.46,0,0,1-.56.46c-.17.08-.4.31-.76-.06s-.37-.54-.65-.51-.57-.48-.93.2a4.13,4.13,0,0,0-.45,1.3l-.85-.31a6,6,0,0,0-.51-.51.78.78,0,0,0-.45-.2,1.62,1.62,0,0,0-.5.17s-.2,0-.2.28,0,.54,0,.73a1,1,0,0,1-.14.43s-.17.14-.51-.06a1.61,1.61,0,0,0-.65-.28c-.2,0-.9.42-.9.42v.42l.28.57.51.08.36.06.26.87-.59,1.64a1.85,1.85,0,0,1-.34.53,1.57,1.57,0,0,1-.6.34c-.36.14-.62.2-.73.37s-.22.22-.39.5-.59.91-.59.91a.67.67,0,0,0-.06.56,3.25,3.25,0,0,1,.08.62s-.56.48-.87.37-.48-.59-.59-.26a2.63,2.63,0,0,0-.26,1.22c.06.53.4.67.06.87a4.41,4.41,0,0,1-1,.34s.2-.09-.2,0a2.28,2.28,0,0,0-.82.45l-.08.76a1,1,0,0,1-.06.56,5.46,5.46,0,0,1-.42.57,3.41,3.41,0,0,0-.48.79l-.14.56s.11.14-.28.42a9.59,9.59,0,0,0-1,.88,1.46,1.46,0,0,1-.53.33c-.29.09-.43.14-.54.06a1.7,1.7,0,0,0-.53-.28c-.12,0-.06-.14-.37.05a4.91,4.91,0,0,0-.59.46s-.2.36-.34.64a2,2,0,0,1-.37.51l-.34.37-.56.17-.37.17a3.43,3.43,0,0,1-.5.28c-.23.08-.48.62-.57.73s-.9.14-.9.14a2.22,2.22,0,0,1-.56.17c-.17,0-.43.28-.51.42a4.27,4.27,0,0,0-.2.48l-.5.93a1.54,1.54,0,0,0-.26.54,6,6,0,0,0-.11.79c0,.25,0,.34,0,.45s0-.57.08.59a5.77,5.77,0,0,0,.2,1.41l.22.39s.26.4.43.6.22.14.28.5a14.68,14.68,0,0,1,.17,2,2.65,2.65,0,0,0,0,1c.08.6,0,.74.45,1.1a4.57,4.57,0,0,0,1.16.65s.08.28.7,0,.42-.48,1.21-1a8.46,8.46,0,0,0,1.36-1c.08-.11-.62-.06.28-.42s1.24-.43,1.49-.26.23.26.42.23.06.14.65-.25a1.44,1.44,0,0,1,1.33,0l.39.56.31.93.09.42v.26l.22.48.4.31a1,1,0,0,1,.36.34,1.84,1.84,0,0,1,.2.56l.06.65v.53l.31.37s.36-.09.42.34a6.8,6.8,0,0,0,0,1.24,6.45,6.45,0,0,0,.19.79l.34.42.57.7.39.2.71.2.47,0,.48-.08.71-.26.48-.31.65-.56.33-.37a4.08,4.08,0,0,1,.54-.42c.2-.11.37-.23.68-.4s.81-.47.81-.47a.73.73,0,0,0,.48-.54,5.73,5.73,0,0,0,.09-1l-.23-.7-.05-.37.16-.7,1-.37c.09,0,.37.09.42-.14a1.75,1.75,0,0,0-.08-.68s-.59,0-.37-.5a.6.6,0,0,1,.76-.28l.26.16a1.88,1.88,0,0,0,.48.06c.08,0,.17-.08.36-.31s.45-.56.45-.56l.12-.6a.78.78,0,0,0,0-.5c-.11-.26-.23-.48-.23-.48l-.36-.48c-.09-.11-.65-.68-.65-.68l-.37-.22-.84-.23-.43-.08a3.17,3.17,0,0,1-.7-.31c-.17-.14-.45-.14-.45-.54a1.69,1.69,0,0,1,.22-.82,2.78,2.78,0,0,1,.29-.45c.14-.17.39-.53.39-.53l.34-.14.45-.09a6.9,6.9,0,0,0,.34-.79.63.63,0,0,0-.06-.48,4.21,4.21,0,0,0-.53-.73,1.58,1.58,0,0,1-.26-.25s-.2,0,0-.31.11-.34.42-.68l.6-.65.5-.22.48,0s.28,0,.28-.34-.14-.53.06-.73l.48-.48,1.47-1,.56-1.1a1.77,1.77,0,0,0,.39-.33c.29-.29-.22-.2.4-.4a5.5,5.5,0,0,1,.79-.22l.36,0,.54,0s.56-.08.56-.42v-.76a1,1,0,0,0-.19-.48l-.37-.62,0-.4.37-.33a1.22,1.22,0,0,1,.51-.26l.56-.11.37-.48a2.39,2.39,0,0,1,.33-.7c.2-.23.12-.29.31-.43a4.18,4.18,0,0,1,.62-.31l.88-.08s0,.08.5.2a5.16,5.16,0,0,0,.93.11.84.84,0,0,0,.71,0,8.51,8.51,0,0,1,1-.31l.6,0a3,3,0,0,1,.5,0,1.1,1.1,0,0,1,.57.45,1.32,1.32,0,0,1,.14.62c0,.31-.17.56-.2.87a3.55,3.55,0,0,1,0,.79,2.22,2.22,0,0,1-.2.74c-.14.25-.22.47-.36.73a8.5,8.5,0,0,1-.51.79.69.69,0,0,1-.59.28,3.19,3.19,0,0,1-.79-.06.57.57,0,0,0-.39.06c-.23.11-.62.31-.65.62a2,2,0,0,0,0,.62c0,.11.08.06,0,.28a.91.91,0,0,1-.4.56,3.29,3.29,0,0,0-.87.65,3.94,3.94,0,0,0-.51.71s0,.25-.34.62-.76.28-1,.53-.45.6-.36.91,0,.47.31.76l.7.56c.2.17.57,0,.57.45a2.3,2.3,0,0,1-.09.93c-.14.59-.14,1.07-.22,1.58a11.12,11.12,0,0,0-.06,1.58l.08.14a4.38,4.38,0,0,0,.57.34,2.08,2.08,0,0,0,.73.11,2,2,0,0,0,.87-.34l.31-.22.23-.31.79-.4a2,2,0,0,1,.79,0c.28.11.67.22.67.22l.4-.11a3.49,3.49,0,0,1,.48-.48l.65-.53.33-.09h.57c.28,0,.62.09,1.18.12s1.21,0,1.21,0l.31-.08h.14l.43.08s.28,0,.34.2a.76.76,0,0,1,0,.42,2.37,2.37,0,0,0,0,.29,2.9,2.9,0,0,0,.78,0,4.85,4.85,0,0,1,.82,0s.11-.2.37.14a3.45,3.45,0,0,1,.42.9,1.32,1.32,0,0,1-.28.9,5,5,0,0,1-.85.54c-.31.19-.36,0-.53.33a1.81,1.81,0,0,0-.2.54c0,.08-.11.22-.56.31a17.09,17.09,0,0,1-1.78.08,11.22,11.22,0,0,0-1.27-.11c-.5,0-1.18,0-1.46,0s-.9,0-1.3,0-.76-.17-1.15-.17-.65-.06-.82,0-.37-.12-.34.31,0,.62.14.81.17.15.4.37.42.25.5.71.06.64.14,1.21a8.19,8.19,0,0,1,.2,1.66c0,.76.11,1.27-.22,1.69a4.52,4.52,0,0,1-1,.9,1.23,1.23,0,0,1-.68.26,1.69,1.69,0,0,1-1,0l-.85-.28a1,1,0,0,1-.11-.62,1.55,1.55,0,0,1,.31-.74,3,3,0,0,0,.31-.76s.23-.7-.08-.79-1.1-.17-1.27.31a14.38,14.38,0,0,1-.82,1.58l-.08.17-.23.51s.14.08-.08.31a5,5,0,0,1-.4.34,2,2,0,0,1-.42.22c-.23.11-.51-.05-.42.42a2.85,2.85,0,0,0,.33.93c.14.31.14.15.26.51a1.13,1.13,0,0,1-.12,1.05c-.22.25-.22.19-.59.47s-.48.4-.5.6.08.22-.06.45-.06.34-.48.5a13,13,0,0,1-2.59,0,5.25,5.25,0,0,1-1.05.15c-.62,0-1.55,0-1.55,0l-.67.08-.59-.42s-.6,0-.82.31-.17.56-.26.68-.47.16-.78.19a2.14,2.14,0,0,0-.77.37l-.22.28-.28.48-.26.25a6.77,6.77,0,0,1-.9.14,4.46,4.46,0,0,1-1-.05,3.6,3.6,0,0,1-.65-.14c-.08-.06-.53-.31-.53-.31l-.17-.4A1.88,1.88,0,0,0,337,217c-.28-.23-.4-.34-.59-.37s-.34-.36-.65,0a4.59,4.59,0,0,0-.51.68l-.53.51-.62.11a4.22,4.22,0,0,1-.68.06,2.72,2.72,0,0,1-.85-.2c-.19-.14-.47-.37-.64-.48a5,5,0,0,0-.76-.53,2.72,2.72,0,0,0-.62-.12,2.48,2.48,0,0,0-.77,0c-.31.09-1.09,1.1-1.09,1.1l-.29.28-.5.37-.57.11s-1.29-.05-1.55-.08-.53-.09-.7-.09a2.08,2.08,0,0,1-.65-.14c-.11-.05-.2-.22-.34,0a.71.71,0,0,0-.14.59,3.91,3.91,0,0,1,.11.43c0,.11.23.17-.08.42s-.42.25-.62.48a4.8,4.8,0,0,0-.51.59c-.17.25-1.77,2.06-1.77,2.06a2.48,2.48,0,0,0-.4.31c-.17.17-.48.45-.48.45l-.76.22-.76-.14-.31-.14-.56.48a7.17,7.17,0,0,1-.31.85,2.27,2.27,0,0,1-.46.59c-.11.11-.56.42-.56.42a4.78,4.78,0,0,0-.59.65,1.54,1.54,0,0,0,.08.62c.12.34.2.48.12.76a2.61,2.61,0,0,1-.34.88,2.16,2.16,0,0,1-.65.47,1.41,1.41,0,0,1-.93.12c-.34-.12-1.13-.48-1.13-.48s-.17-.11-.42.14-.59.48-.7.59a2.29,2.29,0,0,1-1.05.31,6.14,6.14,0,0,1-1,0c-.19.06-.5,0-.64.34a2.32,2.32,0,0,0-.17.65c-.06.25.34.31-.34.34s-1.13,0-1.27.08a2.47,2.47,0,0,1-.39,0l-.77-.11-1-.57-.76-.42a.58.58,0,0,0-.51-.06,1.27,1.27,0,0,0-.53.57,1,1,0,0,0-.14.45c0,.2-.4.17.28.59a8.21,8.21,0,0,0,1.27.65,5,5,0,0,1,.62.22,3,3,0,0,1,.59.43,3.62,3.62,0,0,0,.53.36,1.75,1.75,0,0,0,.6.45,1.58,1.58,0,0,0,.76.17c.36,0,.76-.05.95-.05s.68,0,.68.48a2,2,0,0,1-.25.9l.19.45.4.45a1.34,1.34,0,0,1,.25.59,3.54,3.54,0,0,1,.26,1.07,11.94,11.94,0,0,1,0,1.64,4.62,4.62,0,0,1,0,1.35,5.83,5.83,0,0,1-.5.82,5.44,5.44,0,0,1-.59.7,2.44,2.44,0,0,0-.4.34l-.11.14,1.1.06a4.11,4.11,0,0,0,.5-.06,2.23,2.23,0,0,1,.54.09,2.1,2.1,0,0,1,.51.36,4.35,4.35,0,0,0,.5.45s.26.31.4.45a1.55,1.55,0,0,0,1,.46c.34,0,.56,0,.9,0h1.07l.85,0a4.1,4.1,0,0,1,.53,0c.14,0,.09,0,.28,0a1.28,1.28,0,0,0,.37,0l.25-.17a2.72,2.72,0,0,0,0-.54,1.42,1.42,0,0,0-.14-.59c-.08-.2-.22-.25-.11-.36s-.17-.23.65-.23,1.66-.08,2-.11.31-.17.9-.12.87-.16,1.1.2.23.42.51.57a3.56,3.56,0,0,0,1.6.11c.2-.11.29,0,.48-.28a1.78,1.78,0,0,1,1-.76,10.8,10.8,0,0,1,1.72-.77,10.4,10.4,0,0,0,1.89-.78s-.17,0,.34,0a2.43,2.43,0,0,1,1.09.31,6.86,6.86,0,0,1,.82.36,2.11,2.11,0,0,0,.45.23,1.77,1.77,0,0,1,.74.19,2.12,2.12,0,0,1,.53,1,8.69,8.69,0,0,0,.42,1c.17.4.17.48.34.85a2.48,2.48,0,0,0,.51.68l.93.39a4.16,4.16,0,0,1,1.66.51,15.14,15.14,0,0,1,1.3,1.13,1.25,1.25,0,0,0,.42.33,4.8,4.8,0,0,0,.88.26l.81.17,1,.62.54,1c.17.31.17.11.17.79s0,.93,0,1.61.14.53-.15,1.15-.36.85-.76,1a2.24,2.24,0,0,1-1.43.31l-1.08-.14-1-.17c-.23,0-1,.2-1.07.54s-.25.42,0,.76.19.4.62.51a5.35,5.35,0,0,0,.84.17c.26,0,.62-.2.9.17s.29.45.57.76.28.65.65.67.53,0,.73-.25.37-.28.25-.7-.22-.82-.22-.82-.23,0,.42-.31a5.35,5.35,0,0,0,1.07-.65c.57-.37,1-.17,1.35-1.1a5,5,0,0,0,.43-1.3l.17-1.29s-.12-.28-.34-.71-.31-.45-.28-.59-.62-.2.25-.2.68-.16,1,.09a5.45,5.45,0,0,0,.62.37,2.55,2.55,0,0,0,1,.33c.45,0,1.15.17,1.29,0s.2-.25.17-.36a1.91,1.91,0,0,0-.62-.65c-.17-.06.28.14-.65-.31s-1.46-.73-1.46-.73.11,0-.71-.23l-1.55-.53s-1-.57-1.24-.79-1-.74-1.4-1a6.49,6.49,0,0,1-.85-.68,8.31,8.31,0,0,1-.82-1l-.31-.45-.82-.93-.53-.59s-.2,0-.48-.46a5.48,5.48,0,0,1-.45-1l.17-.42-.11-.74-.06-.9,0-.84.79-.54.85-.08a7.55,7.55,0,0,1,.7.5c.17.17.82.51,1.1.77s.51.25.93.64a6.66,6.66,0,0,1,1,.93c.36.48.64.71.84,1s.54.42.76.79a4.91,4.91,0,0,1,.51.93,3.22,3.22,0,0,0,.42.73,4.34,4.34,0,0,1,.9.09,10.11,10.11,0,0,1,1.08.25c.25.11.59,0,1.07.31s.84.23,1,.65a12.57,12.57,0,0,1,.2,2c0,.08.06.34.11.7s0,.68.06,1,0,.31.11.54.09.31.23.45.05.2.31.17a1.37,1.37,0,0,0,.48-.17s.17-.06.22.22a2.12,2.12,0,0,1,0,.62c0,.31-.06.43-.06.74s-.28.22,0,.42a2.35,2.35,0,0,0,.65.28c.09,0-.11-.14.4.09s.59,0,1.15.59.82.59,1,1a5.24,5.24,0,0,1,.39,1,6.46,6.46,0,0,1-.11,1.33c0,.34-.06.93-.06.93a2,2,0,0,0,.09.76c.11.2.19.28.53.34a6.76,6.76,0,0,0,1.33-.14l.31-.34.59-.68.14-.48.08-1.1-.39-.53s-.34-.34-.54-.59-.56-.88-.56-.88l.11-1s0-.37,0-.88A13.07,13.07,0,0,0,355,250c0-.09-.31-.28-.17-.51a2.53,2.53,0,0,1,.71-.51,2.83,2.83,0,0,1,.9.06,2.25,2.25,0,0,0,.9.31c.59.09,1.35.17,1.35.17s.71.11.9,0a2.81,2.81,0,0,0,.34-.28s-.08-.34,0-.45.2-.25.73-.25.93,0,1.08.11-.09.45-.15.65-.31.33-.08.67a2.27,2.27,0,0,0,.62.65c.14.09.73.37.82.54s.53-.12.08.81a3.28,3.28,0,0,0-.34,1.72s.31.26.43.34.33,0,.48,0,.28-.31.42,0a1.75,1.75,0,0,1,.2,1,8.12,8.12,0,0,0-.15.84c0,.25-.28.17.09.42a1.57,1.57,0,0,0,.68.29l.42-.12.62-.14.28.45a3.21,3.21,0,0,0,.31.45l.51.17s-.28,0,.53,0,.88,0,1,.11a2.94,2.94,0,0,1,.34.67c.08.26-.17.37.25.48s.48,0,.9-.17a1.07,1.07,0,0,0,.65-.36,39.07,39.07,0,0,1,4-.06s-.07-.05.68-.07,2.12,0,2.65,0l1.94,0,1.48,0,.26.11.17.58,0,1,.12,1.19-.1,1a4.4,4.4,0,0,0-.13.94c0,.43-.06,1.18-.06,1.18v.73l-.08.28a1.21,1.21,0,0,1-.37.38,4.06,4.06,0,0,1-.55.13.37.37,0,0,0-.36.17,1,1,0,0,0-.18.73,1.49,1.49,0,0,0,.09.7c.11.32.17.24.21.69a14.16,14.16,0,0,1-.06,1.47l-.17,1.3s0,1.14,0,1.24,0,.31,0,.52,0,.43,0,.43l.07,1.34a2.19,2.19,0,0,1,0,.3c0,.17,0,.41-.06.67a7.42,7.42,0,0,1-.5,1.26.61.61,0,0,0,.07.79,5.82,5.82,0,0,0,.77.7c.17.13.62.39.62.39s.4-.45.72.3a3.3,3.3,0,0,1,.31,1.06s-.07.3-.15.54a3.84,3.84,0,0,0-.09.68,3.3,3.3,0,0,0,.36.84,2,2,0,0,0,.58.36,1.32,1.32,0,0,1,.47.24,5.7,5.7,0,0,0,.88.49l.51.36a.25.25,0,0,1,.3.19,2.18,2.18,0,0,1,.13.75v.52c0,.19,0,.44,0,.44s-.09.18.19.24.56.25.56.49a2.34,2.34,0,0,1-.2.68,1,1,0,0,0,.2,1.25c.12.1.47,0,.47,0s.32-.28.25.3-.28.76-.15,1.17a1.47,1.47,0,0,0,.56.84,7.89,7.89,0,0,1,.77.51,2.05,2.05,0,0,1,.51.47c.19.26.09.28.39.53a4.38,4.38,0,0,0,.89.45c.24.13.45-.34.9.51a10,10,0,0,1,.73,2.08l.11.4a.68.68,0,0,1,.17.28,2.27,2.27,0,0,0,.28.45l.17.51a4.63,4.63,0,0,0,.34.62l.4.56a5.75,5.75,0,0,1,.73.79c.22.34.34.28.51.56a1.73,1.73,0,0,1,.28.79,4.5,4.5,0,0,1,.28,1.64,37.72,37.72,0,0,1-.28,4.17s-.06.28.51.51a3.65,3.65,0,0,0,1.4.33,11.57,11.57,0,0,0,1.53,0l1.12-.28,1-.39s.34-.12.39-.28,0-.34.23-.4a4.64,4.64,0,0,1,.79-.06s.28.06.79.12a2,2,0,0,0,1-.23l.28-.51s.45-.39.68-.28a2.2,2.2,0,0,1,.45.34h1.3l1.18-.68s.23,0,.23-.45-.23-.73,0-.9a6.74,6.74,0,0,1,.79-.45s.45-.22.67,0,0,.4.4.28,1.07-1.29,1.07-1.29l1.24-1.13a3.49,3.49,0,0,1,1-.17,1.33,1.33,0,0,0,.84-.45l.17-.51a1.29,1.29,0,0,1,.68-.17,1.15,1.15,0,0,1,.5.28l.74.12a.37.37,0,0,0,.56,0,1.88,1.88,0,0,0,.45-.51s-.22.22.11-.45.46-1,.46-1a2.25,2.25,0,0,1,.33-.51,8.39,8.39,0,0,1,.74-.56l.73-.68.28-.28a5.19,5.19,0,0,0,.51-.62,1.87,1.87,0,0,0,.22-.28c.12-.17.57-.62.57-.62a1,1,0,0,1,.28-.34l.17-.11.28-.06a3.23,3.23,0,0,1,.51-.05l.56.11.71-.17a.64.64,0,0,0,.19-.37,6.2,6.2,0,0,0,.09-1.1,9.3,9.3,0,0,0-.23-1l-.25-.68s-.51-.37.22-.51,1-.14,1.24-.17.48.12.65-.11.57-.9.57-.9.67-.34-.06-.59a8.76,8.76,0,0,1-1.3-.59,2.66,2.66,0,0,0-.93-.34c-.34,0-.65-.06-.76,0s-1.24-.31-1.24-.31l.06-.33s.17-.06.14-.4a.93.93,0,0,0-.73-.82c-.43-.05-1-.14-1-.14s-.2,1.07-.26-.36A9,9,0,0,0,419,282a2.56,2.56,0,0,0-.42-.62s-.08-.06-.31.05a3.62,3.62,0,0,0-.59.51l-.76.85-.59,1a4.52,4.52,0,0,1-.65.42,3.73,3.73,0,0,1-1.44.39c-.56.06-1.27.06-1.27.06l-.84-.11a4,4,0,0,0-1.05.19c-.25.14-.25.29-.76.14a11.84,11.84,0,0,0-1.18-.36c-.45-.09-2.17-1.27-1.72-2.4a2.59,2.59,0,0,0-.08-2.08l-1.41-1.1a1.57,1.57,0,0,1-1.19-.82,8.11,8.11,0,0,0-.7-1.16l-.48-.56-.65-.68-.62-.5-.56-.26s-.34-.19-.34-.42-.11-.11,0-.51a3.2,3.2,0,0,1,.33-.73l.4-.56.42-.37.51-.17s.28-.22.53-.39.48-.4.74-.28a4.94,4.94,0,0,1,.56.31l.85-.09.73-.17s.28-.22.7.17a7.2,7.2,0,0,1,1,.93,5.51,5.51,0,0,0,.57.71c.25.25.48.42.56.7a2.12,2.12,0,0,1,.11,1,4.43,4.43,0,0,0,.12,1.15s-.26.23.78,1.16a6.18,6.18,0,0,0,1.58,1.13l1.07.39,1.89.42a6.43,6.43,0,0,0,1.21.17,2,2,0,0,0,1.16-.25,2,2,0,0,1,.65-.28,3.62,3.62,0,0,1,1.15-.11,5.39,5.39,0,0,1,1.27.22c.14.09.28.65.42.9a1.67,1.67,0,0,0,.46.57c.14.08.36.08.5.25s.09.39.57.54.42-.06,1.69.11a21.86,21.86,0,0,0,3.15.08l.88-.08a1,1,0,0,1,.76.31,1.06,1.06,0,0,0,1,.53c.5,0,1.46,0,1.46,0l1.44-.22a2.82,2.82,0,0,1,.7-.51,1.36,1.36,0,0,1,.82-.2c.51,0,1.38.06,2,.06s1.43-.08,1.86-.11l1.43-.09a.93.93,0,0,1,0,.76c-.16.48-.28.43-.28.74s-.14.42.4.64.93.26,1.07.48a5.63,5.63,0,0,1,.42.57c.14.28-.22.39.42.79s.79.31,1.16.53a4.35,4.35,0,0,1,.76.59c.28.26,1.44.23,1.44.23s.59-.14.73.22.31.23.08.82a3,3,0,0,1-.87,1.35c-.34.26-1-.11-.7.6s.33.93,1,1,.77.14,1.19-.17a3.3,3.3,0,0,1,.87-.45l2.43-.11.56-.2s.08-.34.25-.14.54.39.57.9a1.17,1.17,0,0,1-.37,1.18,5.34,5.34,0,0,0-.76,1.81,5.43,5.43,0,0,0-.14,1,1.46,1.46,0,0,0,.25,1,3.49,3.49,0,0,0,.59.68s.62-.2.77.36a6.76,6.76,0,0,1-.34,2.17c-.06.26-.54.06-.37.6a3.2,3.2,0,0,0,.76,1.18,3.75,3.75,0,0,0,.57.51,5.82,5.82,0,0,1,.56.48,2,2,0,0,1-.17.53c-.08.09-.2.06-.23.26s0,.28.17.36a.9.9,0,0,0,.48,0,.3.3,0,0,1,.28-.08c.2,0,.29-.12.37.14a3.68,3.68,0,0,1,.14.56,1,1,0,0,1,0,.39c-.05.2-.19.15-.28.48a2.31,2.31,0,0,0,.09.91l.25.5.2.26a.91.91,0,0,1,.31.08,1,1,0,0,1,.25.42,1.37,1.37,0,0,1,0,.43,4.2,4.2,0,0,0,.08.7s.17.4.29.71a1.4,1.4,0,0,0,.22.5c.11.14.14.12.25.26s.29.08.23.48a3.23,3.23,0,0,0-.08.84.88.88,0,0,0,.19.4l.31.31.57.31s.28.25.31.42,0,.31,0,.51a1.3,1.3,0,0,0,.12.48,3,3,0,0,0,.25.59,2,2,0,0,1,.17.81c0,.29-.7.37-.06.65s1,.51,1.39.12a20,20,0,0,0,1.35-1.92,2.37,2.37,0,0,0,.42-.28c.2-.17.42-.26.62-.45l.65-.62.62-.65.53-.62s.62-.54.71-.65a5.47,5.47,0,0,0,.28-.65l.11-1.58a12.51,12.51,0,0,1-.28-1.49c-.05-.62-.14-1.1-.14-1.61a13.34,13.34,0,0,1,0-1.55c.06-.56-.08-.76.14-1s.62-.45.62-.45a1.08,1.08,0,0,0,.59-.33c.26-.29.29-.34.68-.74s.39-.53.68-.82,1.8-1.66,1.8-1.66.25-.25.48-.53.68-.62.79-.76a.45.45,0,0,1,.42-.23c.23,0,.48.08.65-.06a5.93,5.93,0,0,1,.54-.36l.56-.54s.2-.36.48-.76,1.58-2,1.58-2l.81-1.15a4.06,4.06,0,0,1,.79-.91c.68-.64.82-.76,1.13-1.1a3.71,3.71,0,0,1,.93-.73c.31-.17,1.18-.51,1.18-.51a7.93,7.93,0,0,0,1.41-.31,5.12,5.12,0,0,0,1.13-.5,7.79,7.79,0,0,1,1.8-.74h.46l3.15-1.91-3.59-39.8-6.61-20.44-16.54-39.38Z"/><ellipse id="Contorno" class="cls-7" cx="283.5" cy="288.74" rx="202.83" ry="203.15"/><circle class="cls-8" cx="416.7" cy="513.62" r="12.14"/><circle class="cls-8" cx="474.84" cy="464.43" r="12.78"/><circle class="cls-8" cx="517" cy="390.96" r="12.78"/><circle class="cls-8" cx="534.25" cy="317.49" r="12.78"/><circle class="cls-8" cx="529.78" cy="231.25" r="12.78"/><circle class="cls-8" cx="501.03" cy="153.95" r="12.78"/><circle class="cls-8" cx="451.84" cy="90.7" r="12.78"/><circle class="cls-8" cx="380.93" cy="47.26" r="12.78"/><circle class="cls-8" cx="283.82" cy="26.18" r="12.78"/><circle class="cls-8" cx="182.25" cy="47.26" r="12.78"/><circle class="cls-8" cx="111.97" cy="90.7" r="12.78"/><circle class="cls-8" cx="62.78" cy="153.95" r="12.78"/><circle class="cls-8" cx="33.4" cy="231.25" r="12.78"/><circle class="cls-8" cx="28.93" cy="317.49" r="12.78"/><circle class="cls-8" cx="46.17" cy="390.96" r="12.78"/><circle class="cls-8" cx="88.34" cy="464.43" r="12.78"/><circle class="cls-8" cx="146.47" cy="513.62" r="12.78"/><text class="cls-9" transform="translate(183.19 552.66)">RUIDEA</text><text class="cls-10" transform="translate(69.54 306.45) rotate(-93.6)">R</text><text class="cls-10" transform="matrix(-0.01, -1, 1, -0.01, 68.85, 295.22)">E</text><text class="cls-10" transform="translate(68.68 285.31) rotate(-87.68)">G</text><text class="cls-10" transform="matrix(0.08, -1, 1, 0.08, 69.27, 272.63)">I</text><text class="cls-10" transform="translate(69.63 267.72) rotate(-83.27)">S</text><text class="cls-10" transform="translate(70.81 257.77) rotate(-80.64)">T</text><text class="cls-10" transform="matrix(0.21, -0.98, 0.98, 0.21, 72.32, 248.45)">R</text><text class="cls-10" transform="matrix(0.27, -0.96, 0.96, 0.27, 74.65, 237.43)">O</text><text class="cls-10" transform="translate(78.34 224.46) rotate(-72.07)"> </text><text class="cls-10" transform="translate(79.76 219.79) rotate(-69.76)">Ú</text><text class="cls-10" transform="translate(84.01 208.22) rotate(-66.35)">N</text><text class="cls-10" transform="translate(89.41 196.1) rotate(-63.91)">I</text><text class="cls-10" transform="translate(91.51 191.66) rotate(-61.71)">C</text><text class="cls-10" transform="matrix(0.52, -0.85, 0.85, 0.52, 96.95, 181.48)">O</text><text class="cls-10" transform="matrix(0.56, -0.83, 0.83, 0.56, 104.11, 170.02)"> </text><text class="cls-10" transform="translate(106.86 165.97) rotate(-54.59)">I</text><text class="cls-10" transform="matrix(0.61, -0.79, 0.79, 0.61, 109.67, 161.91)">B</text><text class="cls-10" transform="matrix(0.65, -0.76, 0.76, 0.65, 116.52, 153.02)">E</text><text class="cls-10" transform="matrix(0.69, -0.73, 0.73, 0.69, 122.94, 145.46)">R</text><text class="cls-10" transform="translate(130.62 137.25) rotate(-43.4)">O</text><text class="cls-10" transform="matrix(0.77, -0.64, 0.64, 0.77, 140.4, 128.02)">A</text><text class="cls-10" transform="translate(149.18 120.55) rotate(-36.31)">M</text><text class="cls-10" transform="translate(162.07 111.19) rotate(-32.81)">E</text><text class="cls-10" transform="translate(170.39 105.79) rotate(-29.94)">R</text><text class="cls-10" transform="matrix(0.88, -0.47, 0.47, 0.88, 180.21, 100.21)">I</text><text class="cls-10" transform="translate(184.56 97.85) rotate(-25.52)">C</text><text class="cls-10" transform="translate(194.99 92.86) rotate(-22.43)">A</text><text class="cls-10" transform="translate(205.65 88.43) rotate(-19.14)">N</text><text class="cls-10" transform="translate(218.11 84.1) rotate(-15.63)">O</text><text class="cls-10" transform="translate(231.12 80.55) rotate(-13.18)"> </text><text class="cls-10" transform="translate(235.83 79.36) rotate(-10.82)">D</text><text class="cls-10" transform="translate(248.36 77) rotate(-7.76)">E</text><text class="cls-10" transform="translate(258.25 75.69) rotate(-5.75)"> </text><text class="cls-10" transform="matrix(1, -0.06, 0.06, 1, 263.08, 75.12)">D</text><text class="cls-10" transform="translate(275.83 74.45) rotate(-0.97)">I</text><text class="cls-10" transform="translate(280.77 74.33) rotate(0.95)">F</text><text class="cls-10" transform="matrix(1, 0.05, -0.05, 1, 290.03, 74.52)">I</text><text class="cls-10" transform="matrix(1, 0.09, -0.09, 1, 294.95, 74.7)">C</text><text class="cls-10" transform="translate(306.46 75.71) rotate(8.34)">U</text><text class="cls-10" transform="matrix(0.98, 0.19, -0.19, 0.98, 318.67, 77.54)">L</text><text class="cls-10" transform="translate(327.67 79.32) rotate(13.74)">T</text><text class="cls-10" transform="translate(336.85 81.53) rotate(16.56)">A</text><text class="cls-10" transform="translate(347.93 84.81) rotate(19.81)">D</text><text class="cls-10" transform="translate(359.9 89.15) rotate(22.85)">E</text><text class="cls-10" transform="translate(369.07 93.01) rotate(25.51)">S</text><text class="cls-10" transform="translate(378.14 97.39) rotate(27.52)"> </text><text class="cls-10" transform="matrix(0.87, 0.49, -0.49, 0.87, 382.5, 99.61)">E</text><text class="cls-10" transform="translate(391.14 104.5) rotate(32.17)">S</text><text class="cls-10" transform="matrix(0.82, 0.57, -0.57, 0.82, 399.63, 109.83)">P</text><text class="cls-10" transform="translate(408.17 115.78) rotate(37.63)">E</text><text class="cls-10" transform="matrix(0.76, 0.65, -0.65, 0.76, 416.05, 121.83)">C</text><text class="cls-10" transform="translate(424.84 129.43) rotate(42.75)">Í</text><text class="cls-10" transform="translate(428.49 132.75) rotate(44.66)">F</text><text class="cls-10" transform="matrix(0.69, 0.73, -0.73, 0.69, 435.06, 139.28)">I</text><text class="cls-10" transform="translate(438.49 142.81) rotate(48.81)">C</text><text class="cls-10" transform="translate(446.1 151.5) rotate(51.93)">A</text><text class="cls-10" transform="matrix(0.58, 0.82, -0.82, 0.58, 453.21, 160.61)">S</text><text class="cls-10" transform="matrix(0.55, 0.84, -0.84, 0.55, 458.97, 168.86)"> </text><text class="cls-10" transform="translate(461.71 172.91) rotate(59.27)">D</text><text class="cls-10" transform="translate(468.17 183.84) rotate(62.33)">E</text><text class="cls-10" transform="translate(472.79 192.67) rotate(64.9)">L</text><text class="cls-10" transform="translate(476.66 201.01) rotate(66.79)"> </text><text class="cls-10" transform="translate(478.65 205.47) rotate(68.98)">A</text><text class="cls-10" transform="translate(482.85 216.22) rotate(72.72)">P</text><text class="cls-10" transform="translate(486.03 226.15) rotate(74.75)">R</text><text class="cls-10" transform="translate(488.98 237.02) rotate(77.58)">E</text><text class="cls-10" transform="translate(491.16 246.7) rotate(80.69)">N</text><text class="cls-10" transform="translate(493.3 259.73) rotate(84.19)">D</text><text class="cls-10" transform="matrix(0.06, 1, -1, 0.06, 494.51, 272.45)">I</text><text class="cls-10" transform="translate(494.85 277.37) rotate(88.58)">Z</text><text class="cls-10" transform="translate(495.12 287.14) rotate(91.48)">A</text><text class="cls-10" transform="translate(494.77 298.71) rotate(93.92)">J</text><text class="cls-10" transform="translate(494.36 305.17) rotate(96.14)">E</text></g></g></svg>