<svg xmlns="http://www.w3.org/2000/svg" viewBox="0 0 551.23 567.5"><defs><style>.cls-1{fill:#83b3fd;}.cls-2{fill:#ccc;}.cls-2,.cls-3{stroke:#e6e6e6;stroke-width:3px;opacity:0.4;}.cls-2,.cls-3,.cls-5,.cls-7{stroke-miterlimit:10;}.cls-3,.cls-7{fill:none;}.cls-4{fill:#41a1ac;}.cls-5,.cls-6{fill:#fff;}.cls-5{stroke:#fff;stroke-width:0.75px;}.cls-7{stroke:gray;stroke-width:10px;}.cls-10,.cls-8{fill:#999;}.cls-9{font-size:54.3px;fill:#4d4d4d;}.cls-10,.cls-9{font-family:Muli;}.cls-10{font-size:16px;}</style></defs><title>Recurso 3</title><g id="Capa_2" data-name="Capa 2"><g id="Cuarto"><ellipse id="Círculo_Fondo" data-name="Círculo Fondo" class="cls-1" cx="287.71" cy="287.5" rx="202.82" ry="203.79"/><line class="cls-2" x1="288.03" y1="490.01" x2="288.67" y2="84.35"/><line class="cls-2" x1="487.35" y1="285.58" x2="81.69" y2="284.94"/><path class="cls-3" d="M192.84,464.46S174,396.94,171.12,284.94"/><path class="cls-3" d="M386.41,110.54s18.89,66.31,21.72,176.32"/><path class="cls-3" d="M470.74,371.51s-68.6,18.88-182.39,21.72"/><path class="cls-3" d="M108.84,190.08s67.51-18.89,179.51-21.72"/><path class="cls-3" d="M466.27,190.08s-66.92-18.89-177.92-21.72"/><path class="cls-3" d="M386.41,464.46s18.89-67.52,21.72-179.52"/><path class="cls-3" d="M192.84,106.07S174,173.58,171.12,285.58"/><path class="cls-3" d="M100.21,371.51s70.52,18.88,187.5,21.72"/><path class="cls-4" d="M313.91,239.91l-2.56-.64-1.28.64s0,1.27-.64.63-2.55-.63-2.55-.63h-8.31v7.66s.64-.64-.64,1.28V252l-.63,1.28h4.47l1.11.51.45,1.65a6.47,6.47,0,0,0,.37,1.13c.15.22.6.15.6.15l1.51-2,1.27-.53,2.18.15,1-.15,2.63-2.63,1.35-1.42s.53.22.31-3.09l3.09-3.66-1-.45-.9-.9-.51-.37-1.55-.1-.48-.12.93-1.31Z"/><path class="cls-4" d="M161.62,286.18l1.91-.9,2.6-.9.79-.23h1.35l1.13.46a8.78,8.78,0,0,0,1,.33l1.92.57.79.22,1.24.45c.45.57.78.91.78.91l.38.52,1.43.94h0l.45.11a.82.82,0,0,1,.2.54.77.77,0,0,1-.28.54l-.37.51-.33.53-.12.59h.67l.79-.56.45-.23,1.13-.23.9-.11.45-.11h.68a1.39,1.39,0,0,0,.79,0,3.19,3.19,0,0,0,1.13-.56l.45-.91-.34-.79-1.8-.56-1.36-.22-1.29-.34-.5-.19-1.24-.83c-.51-.35-1-.71-1.48-1.06l-.9-.29h-1.91l-.91-.11-.9-.68a5.51,5.51,0,0,1-1.24-.45c-.34-.23-.9-.56-.9-.56s1.35-.34-.79-.34h-4.06l-.9.11-.79.9-1,.9-.45.57-.1,1a2.47,2.47,0,0,0,.05.5C161.17,286.27,161.62,286.18,161.62,286.18Z"/><path class="cls-4" d="M175.34,293.07l.25.35.27.13a1,1,0,0,1,.27.14c.09.08.3.31.3.31l.5.4.11.1.33.17.23,0s.39-.24.48-.32a1.81,1.81,0,0,0,.32-.28l.21-.26.21-.13.08-.18-.06-.18-.14-.15a.38.38,0,0,0-.15-.09c-.09,0-.14,0-.28,0l-.22,0-.46-.07a4.58,4.58,0,0,0-.54,0h-.49s-.31,0-.48,0a3.23,3.23,0,0,0-.44,0C175.48,292.91,175.41,292.89,175.34,293.07Z"/><path class="cls-4" d="M183.21,293.47l.26-.22.22-.21s.12,0,.15-.11l0-.08.23-.15.28-.05.3-.06a3.41,3.41,0,0,1,.51,0,1.2,1.2,0,0,0,.32,0h.39l.64-.05.34-.08.37-.07c0-.15,0-.15,0-.21V292l0-.45-.07-.34,0-.19a.43.43,0,0,0,0-.18l0-.12-.19,0-.34,0-.47-.08a.77.77,0,0,1-.22,0,.85.85,0,0,0-.17-.06s-.08,0-.08-.08,0-.18,0-.18l.12-.14.17-.16.18-.21.12,0h1.8l.41-.06h.7l.41,0h.53l.49,0a3.34,3.34,0,0,1,.5,0,.78.78,0,0,1,.4.15.94.94,0,0,0,.32.23c.15.07.28.11.41.16a3.37,3.37,0,0,0,.49.19c.22.08.49.21.49.21s.26.11.45.21.43.33.66.43.15,0,.45.15.09,0,.62.26a3.79,3.79,0,0,1,.82.4,1.3,1.3,0,0,0,.25.2l.47.34s.19.15.13.3a1,1,0,0,1-.28.49c-.21.17-.28.24-.43.34s-.15.2-.49.19a4.53,4.53,0,0,1-1-.29l-.83,0s-.62-.1-.9-.12l-.84-.09c-.25,0-.66-.09-.66-.09a2,2,0,0,0-.36-.08c-.09,0,0-.19-.17,0s-.07.32-.17.53a2,2,0,0,0-.15.45,3,3,0,0,0-.09.45c0,.19,0,.2,0,.37a1.2,1.2,0,0,1-.15.27.16.16,0,0,1-.3,0,1,1,0,0,1-.13-.4c0-.17-.06-.3-.06-.3a3.58,3.58,0,0,1-.15-.35c0-.17-.13-.36-.13-.36s0-.19-.17-.19-.2-.11-.43,0a2.81,2.81,0,0,1-.47.21c-.22.07-.24,0-.53.13l-.54.13-.68.17-.6,0a8.17,8.17,0,0,1-.86-.09,5,5,0,0,0-.68-.08,10.09,10.09,0,0,1-1-.11s-.42-.13-.43-.21S183.21,293.47,183.21,293.47Z"/><path class="cls-4" d="M199.52,293.29l.31.64.51.62.51.17.62-.17.68-.45.22-.42a.39.39,0,0,0,0-.39.92.92,0,0,0-.37-.4l-.9-.08-.84-.06h-.51s-.31.2-.31.31Z"/><path class="cls-4" d="M100.4,266.08l.39,2.66.38,1.56a24.68,24.68,0,0,0,1.42,2.78,9,9,0,0,0,1.16,1.08,4.62,4.62,0,0,0,1.16,1.21c.9.72,1.93,1.45,1.93,1.45a1.45,1.45,0,0,1,.51.48c.26.36.65.48.65,1v1.33l.51.73.9.72,1.16,1.21,1.16,1.2,1.42,1.33a7.24,7.24,0,0,1,.9,1.32l.9,1,.26.6.38,1.09,1,1.69.9,1.08.9,1.09,1.16.84s1,.48,2.19,1,2.45,1,2.45,1l2.32,1,1.15.84a14,14,0,0,0,1.68.48c1.41.37,3.86.85,3.86.85a4.67,4.67,0,0,1,1.42-.73,10.29,10.29,0,0,0,1.41-.24,5.6,5.6,0,0,1,1.93.61,3.71,3.71,0,0,0,1,.6,3.66,3.66,0,0,1,1.16.24,6,6,0,0,1,1.29.72l1.29,2.17,1.54.61a1.37,1.37,0,0,0,.9.24c.65,0,2.06.12,2.06.12h.91l1.54-.24s.52,0,.64.72.26,1.33.26,1.33l.52.6.51.48a4.86,4.86,0,0,1,.26,1.45l.77,1.21,1.16.84.77.73.26.6.39.48.64.12,1.16.36s-.26.24.51,0l.78-.24,1-.36,1,.6.77.61c.9.24,0,.24.9.24a15.61,15.61,0,0,0,1.8-.12v-.85l.26-1a1.4,1.4,0,0,1,.77-.48c.52-.13.52-.73.9-.25s1,1.21,1,1.21a6.59,6.59,0,0,0,.13,1.21,8.32,8.32,0,0,1,.13,1.44s.26,1.81.39,2.42a5.67,5.67,0,0,1,.13,1.08,6.48,6.48,0,0,0-.39,1.45c-.13.84.13.36-.64,1.45a9.62,9.62,0,0,0-1,1.68l-2.71,2.18-1.29.84-.64,1.21.9,1,.52,1-.65,2.17-1.54,2.05s-1.16.48-.13,1.44l1.42,1.33,1.41,1.45,1.29.72,1,.85.9,1.2.9,1.69a9,9,0,0,1,.65,1.45c.12.36,0,.36.38.84a3.91,3.91,0,0,1,.77,1.45c.26.72.26,1.21.52,1.93s0,.72.39,1.57.77,2,.77,2l.51,1,.65.61a9.54,9.54,0,0,0,1.8,1.2,14,14,0,0,0,1.54.85,6.15,6.15,0,0,1,1.42.36,10.52,10.52,0,0,1,1.16.48,7.79,7.79,0,0,0,1.54.48,6.37,6.37,0,0,0,1.29.12l.77.25a1.82,1.82,0,0,1,.39,1,3.39,3.39,0,0,0,.26,1.09,2.75,2.75,0,0,0,.26,1,16.16,16.16,0,0,1,.51,1.69s.13.48.26,1.08a5.64,5.64,0,0,1,.13,2.05v2.54c0,1.2-.9,1.69-.9,2.17a11.75,11.75,0,0,0,0,2.17c.12,1,0,1.33.12,2.65s.13,2.9.13,2.9a6,6,0,0,1-.25,2.29c-.39,1.08-.52,1.57-.52,1.57l-.13,1a10.64,10.64,0,0,0-.26,1.69v1.57c0,.36-.25-.36-.38,1.57a22,22,0,0,0,.13,3.86s.51.24-.13,1.56-1.29,3.14-1.29,3.14-.9,1.33-1.16,1.81a8.54,8.54,0,0,0-.51,1.45v1.56s-.13.12,0,.73a8,8,0,0,1,.13,2.05v1.81c0,.72-.26.6,0,1a3.88,3.88,0,0,1,.38,1.21l-1,1.69.13.84a.51.51,0,0,1,.13.72,3,3,0,0,0-.39,1.69,12.88,12.88,0,0,1-.51,2.17c-.13.85-.26,1.69-.39,2.42a8.48,8.48,0,0,0-.13,1.69,4.6,4.6,0,0,0,0,1.44,11.12,11.12,0,0,0,.52,2.29l.38,1s.26.12.13.84l-.13.73v1l.52.6s.13-.12.13.61a8.68,8.68,0,0,1-.39,1.93c-.13.6-.51-.12-.13,1.2a17.08,17.08,0,0,0,.78,2.17l.25.61a4.88,4.88,0,0,0,0,1.45c.13.6,1.29,4.82,1.29,4.82a2.6,2.6,0,0,1,.34.8v1.13l1,1.12.86,1.21.77.72a5,5,0,0,0,2.49.73s.26,0,.43.4a11.57,11.57,0,0,0,.6,1.37c.17.24-.09.08.77.56a10.53,10.53,0,0,0,2.23.8l2-.08a3.69,3.69,0,0,0,2.4-1,11.13,11.13,0,0,1,2.15-1.69l1.28-.32,1.29.16a2,2,0,0,0,1.29-.16,3.26,3.26,0,0,0,.68-1.45s.09-.4-1-.4H195l-2.06-.64-1.46-.49-.86-.88.08-.56.26-.73-.17-1-1.29-.65-.51-.24.08-.8.26-1.13a6.37,6.37,0,0,0-.69-1.44c-.25-.25-.68-.73-.68-.73l.08-1.2.35-1a2.77,2.77,0,0,1,.68-1.2c.43-.33.6-.49.86-.49s.26-.16.52-.24a6.18,6.18,0,0,0,1-.8l.17-.89v-1.28l.26-.81.51-.8,1.12-1.13.17-1.85-1.37-.8s.25,0-.18-.32-1.11-.73-1.11-.73l-.52-.64a5.3,5.3,0,0,1-.17-1c0-.41-.17-.41.17-.73a5.89,5.89,0,0,0,.6-.64l.86-.56,1-.73s-.34.24.43-.4a8.17,8.17,0,0,0,1.2-1.21l.35-.4a1.62,1.62,0,0,0,.43-.08,3.39,3.39,0,0,0,.68-.4,1.9,1.9,0,0,0,.43-.72,5.29,5.29,0,0,0,.26-1.37L197,408a6.22,6.22,0,0,0-.34-1.37.89.89,0,0,0-.69-.48c-.43-.08-.69-.08-.94-.16l-.26-.08-.09-.72.6-.16a5,5,0,0,1,.69-.08h2.15a1.68,1.68,0,0,0,.68-.33c.52-.32.69-.4,1-.88a3.23,3.23,0,0,0,.34-1.29c0-.24.17.57,0-.24a3.19,3.19,0,0,0-.34-1,1.24,1.24,0,0,1,1.2-.49,4.42,4.42,0,0,0,1,0c.43-.08,1.11-.16,1.11-.16l1.12-.08.69-.16a1.5,1.5,0,0,0,.77-.24c.34-.24.17-.32.77-.48s.6-.08.95-.32l.6-.41a4.2,4.2,0,0,0,1.54-.48,3.73,3.73,0,0,0,1.55-1.85l.34-.88-.09-1.21-.51-.88-.34-.48.17-.73-.35-1.2-1.11-.33s-.35-.32.08-.48a5.89,5.89,0,0,1,.86-.24s1.12.16,1.38.16,1,.08,1,.08,1.54.08,1.8.08a3.85,3.85,0,0,0,1-.48l1-.56.86-.81.68-1.52.35-1,.25-.88v-.65l.43-.48a2,2,0,0,0,.43-.32,7,7,0,0,1,1-.64l1-1,1-1.21.77-2a5.37,5.37,0,0,0,.43-.48,11,11,0,0,1,.77-.8l.6-.65a2.17,2.17,0,0,0,.43-1,9,9,0,0,0,.09-1.21s-.52-1-.61-1.28a7.81,7.81,0,0,1-.17-.89,1.23,1.23,0,0,1-.43-.56l-.17-.64.17-.49.6-.48.52-.4a4.92,4.92,0,0,0,.69-.32,4.43,4.43,0,0,1,.94-.32.73.73,0,0,0,.6-.16,5.41,5.41,0,0,1,1.12-.41,7,7,0,0,1,1-.32l.77-.24.77-.48.77-.73.43-.72a6.2,6.2,0,0,1,1.46-.4h1.29l1,.16.69.16a1.21,1.21,0,0,0,.25-.56,6.47,6.47,0,0,0-.08-.73v-.32s.08-.16.34-.56l.52-.8s0,.4.25-.33.35-.8.35-1a1.51,1.51,0,0,1,.17-.56.72.72,0,0,1,.43-.65,7.33,7.33,0,0,0,1.2-.72l1.2-1.29s.43-.32.43-.64a1.06,1.06,0,0,1,.17-.56l.26-.49.17-.8a12.15,12.15,0,0,0-.08-1.37c-.09-.56-.35-1.53-.35-1.53l-.25-.8a4.78,4.78,0,0,1-.09-1.13,6.94,6.94,0,0,1,.26-1.68,8.5,8.5,0,0,1,.25-1.29c.18-.56.52-2.41.52-2.41l.26-.57.77-1s.26-.48.43-.72a5.48,5.48,0,0,1,.6-.65l1.54-.72.69-.32.86-.32.94-.57.69-.8s.17-.08.26-.72.34-.17.08-1.69-.43-2.25-.43-2.25l-.25-.65-.78-.8a3.24,3.24,0,0,0-.6-.65,2.29,2.29,0,0,0-1-.56c-.77-.24-1.63-.48-1.63-.48l-1.28-.32a4.94,4.94,0,0,1-1.38-.48c-.51-.33-.94-.57-.94-.57l-1-1.28-.68-.73-.69-.24-1.37-.08-1.72-.08-1.8-.24-.69-.24a.62.62,0,0,0-.69-.16c-.42.16-.51.24-.77.32a8.91,8.91,0,0,1-1,.16,1.17,1.17,0,0,1-.51-.4,12.77,12.77,0,0,1-.78-1.29l-1.11-.88-.86-.65a1.05,1.05,0,0,0-.94-.56H225.8s-.09.48-.69-.32-.94-1.29-.94-1.29h-2.75l-1.46-.32-.43-1.85-.43-1.45-.34-.72s-.77-.24-.86-.56-.17-1-.17-1l-.08-1a7.71,7.71,0,0,0-1.38-.81,4.35,4.35,0,0,1-1.54-1,3.1,3.1,0,0,0-1.2-.65l-.78-.32-2-.24-1.2.08-.69.16-2.23.08-1.37-.4s.08-.24-.61-.8-2.23-2.17-2.23-2.17l-.6-.49-1.8-1a15,15,0,0,1-1.89-.72,7.14,7.14,0,0,1-1.2-.89,4.57,4.57,0,0,1-.77-.88c-.09-.25-.35-.81-.35-.81l-2.06.24a5.1,5.1,0,0,0-1.11.41l-.69.32a2.17,2.17,0,0,1-.77.08,10.53,10.53,0,0,1-1.63-.08c-.52-.08-1.8-.41-1.8-.41l-.86-.24L185.8,305l-.77-.56-1-.57a3.78,3.78,0,0,0-.86-.16,5.71,5.71,0,0,1-1.11-.24l-.61-.56a1,1,0,0,0-.68-.24,1.8,1.8,0,0,0-.86.16,3,3,0,0,1-.77.16l-.09-.72-.6-.57-.77.08a5.26,5.26,0,0,0-1,.49A12,12,0,0,1,175,303a7.77,7.77,0,0,0-1,.48c-.78.4-1.46.73-1.46.73s-.43.48-.77.8-.78.16-1.12.64a11.22,11.22,0,0,1-.94,1,2.32,2.32,0,0,0-.78,1.37l-.25,1.28-.95-.72-.51-.32-1.29-.65-.77-.16h-.86l-3,1.37a4.82,4.82,0,0,1-1.54-.32,7,7,0,0,1-.6-.65,8.86,8.86,0,0,0-1-.8l-.68-.64s-.6-.4-.6-.65a5.66,5.66,0,0,0-.17-.88v-1.37l.08-1.12a.85.85,0,0,1,.34-.81,1.77,1.77,0,0,0,.86-.72,8.16,8.16,0,0,0,.6-1s.43-.08.09-.8-.6-1.21-.6-1.21a3.31,3.31,0,0,0-.77-.64,6.68,6.68,0,0,1-1-.4,5.27,5.27,0,0,0-1.38-.32s.69-.4-1-.08a15.83,15.83,0,0,1-2.14.4h-1a15.6,15.6,0,0,1-1.72-.32s-.77-.4-1-.57a3,3,0,0,1-.6-.64v-.72a1.14,1.14,0,0,1,.17-.57c.17-.24.6-.72.6-.72l.43-.8a2.35,2.35,0,0,0,.26-1,10.7,10.7,0,0,0,0-1.69,2.41,2.41,0,0,1,.08-1,4.17,4.17,0,0,1,.35-.64s.26-.73,0-1-.43-.56-.77-.64-1.55-.16-1.55-.16a8.64,8.64,0,0,0-1.12.08c-.51.08-.85-.16-1.28.08s-1,1.52-1,1.52l-.08.73-.69,1.12a11.08,11.08,0,0,1-.77.89,3.9,3.9,0,0,1-1.29.4s-.77.16-1.29.24a16.89,16.89,0,0,1-2,.08c-.43,0-1.8-.08-1.8-.08l-2.06-.24-1.55-.56-.43-1.45-.68-1.45a16,16,0,0,1-1-2.49,13.49,13.49,0,0,1-.17-2c0-.88.09-2,.09-2V278a4.34,4.34,0,0,0,.51-1c.26-.64.09-.56.6-1.13a10.86,10.86,0,0,0,.86-1,7.66,7.66,0,0,0,.77-1.77,10.85,10.85,0,0,0-.17-2.65s-.77-.89-1.72-2.09a36.18,36.18,0,0,0-4.89-3.94,54.8,54.8,0,0,1-6.26-.89c-3-.64-5.58-1.29-8.07-.88s-6.87,1.2-6.87,1.2Z"/><path class="cls-5" d="M90,259.39l4.15,2.87,1.28,1.92v1.92l.64,1.28.64,1.91L98,271.21l1.91,2.55,1.28,1.28-1.92.64.64,1.92h1.92l2.56,1.27-.64,1.28.64,1.28,1.27.64,1.28,1.28.64-1.28-.64-1.28-1.28-1.92V277.6l-1.91-1.92-1.92-1.92-1.92-2.55-1.27-2.56.63-.64h2.56l1.28.64v1.28l28.11,3.19,1.27-.63H135l.64-1.28.64-1.28,1.91.64h7.67l.64-.64v-.64h2.55l1.28-.64L151,268h1.28l.64.64,1.91.64,1.28,1.28.64-.64.64-.64.64.64.64,1.28,1.27,1.28.64,1.91.64,2.56,1.28,1.28,1.28,1.27.64-1.27v-1.92l-.64-1.92-1.28-1.91-.64-1.92s-.64-4.47.64-5.75l1.92-1.92h1.27a.63.63,0,0,0,.64-.64A2.23,2.23,0,0,1,167,261l1.28-1.28,1.28-.64.64-.64s3.19,0,.63-1.28l-1.27-1.27V251.4h3.19l2.56-1.27v-1.28l.64-1.28.63-1.28s1.28-1.27,1.92-.64h0l1.28-1.27H181l1.27.64a4.43,4.43,0,0,0,0-3.2c-.64-1.91.64-2.55.64-2.55l1.28.64.64-.64v-.64l1.28-.64,1.27.64s2.56,0,.64-3.2v-3.19c0-.64,1.92,0,1.92,0V231s1.28-.64,1.92,0h0l1.27-.64s1.28-1.28.64-1.28h-2.55l-1.28.64-1.92.64-1.27.64v.64s-.64,1.28-1.28,0c0,0-2.56,1.28-1.92,0a7.92,7.92,0,0,1,1.28-1.92l1.28-.64,1.27-.63h.64a7.87,7.87,0,0,0,1.28-3.2h13.42s.64-1.28,1.27-.64,1.92-2.55,1.92-2.55a8.67,8.67,0,0,0,4.47,0v-4.47s-2.55-.64-3.19,0,0-2.56,0-2.56l-1.92-1.28h-2.55l-.64.64v-1.91a2.37,2.37,0,0,0-1.92-1.28c-1.28,0,0-3.2,0-3.2l-2.55-1.27.63-1.28-.63-1.28-1.28-.64-.64-.64h-.64l-.64-1.28-.64-.63h-1.27l-.64,1.27.64.64-1.28,1.28h-5.11l-.64-.64v-.64h-.64v-1.28h0v-.63h0l-.64-.64s.64.64.64,0v-.64l.64-.64v-1.28l-1.28-.64H182.3v-.64l-.64-.63-.63.63h-.64l-1.28-1.27-1.28-.64a6.35,6.35,0,0,1-1.91-.64h-3.84l-.64-.64h-1.91l-.64.64v1.28h.64l.64,1.27v4.48l-.64.63h-1.28v.64l-.64.64v.64l.64.64h1.28c.64,0,1.91,1.28,1.91,1.28V208a6.45,6.45,0,0,1-.64,1.92v.64a.62.62,0,0,0-.63.64c0,.64.63,1.28,0,1.28s-.64,0-.64.63.64.64-.64.64h-1.28l-.64-.64h-.64v1.28c0,.64-.64,1.28,0,1.28a.63.63,0,0,1,.64.64l.64.64s1.28.64.64,1.27-.64.64-.64,1.28v3.2h-3.19l-.64-.64-.64-.64h-.64l-.64-.64-.64-.64v-1.92l-.64-.63-.64-.64v-1.28a.63.63,0,0,1,.64-.64v-.64h.64l-1.28-1.28h-.63l-.64.64-1.28-.64h-5.11l-.64-.63v-.64h0l-1.28-.64-1.28-.64-.63-.64-.64-.64h-.64l-.64-.64v-1.28a.9.9,0,0,0-1.28,0A2,2,0,0,1,144,208h0l-1.27.64h-.64l-.64-.64s.64-.64,0-.64a.62.62,0,0,1-.64-.63h.64a.63.63,0,0,1-.64-.64c0-.64-1.28-.64-1.28-.64l-.64-.64-.64-.64h-.64a.62.62,0,0,1-.63-.64.63.63,0,0,0-.64-.64v-1.91s-.64,0,0-.64a2,2,0,0,1,1.27-.64l.64-1.28V197.1l-.64-.64a1.38,1.38,0,0,1,1.28-1.27c.64,0,1.92-1.28,1.92-1.28l.64-.64,1.28-.64.63-.64h1.28v-.64l-.64-1.27s-.64,0,0-.64a2.35,2.35,0,0,1,1.92-.64,6.45,6.45,0,0,0,1.92-.64l1.91-.64s1.28,0,1.28-.64V185.6l-.64-1.27v-1.28s0,.64.64,0,0,0,.64,0a6.45,6.45,0,0,0,1.92-.64v-1.28l1.27-.64h4.48l.63.64v-1.28l.64-.63h1.92l.64-.64a2.23,2.23,0,0,1-.64-1.28v-.64l-1.28-.64v-3.19l.64-1.28-.64-1.28V169h.64l.64-.64h.64a.63.63,0,0,0,.64.64c.64,0,.64-.64.64,0a.62.62,0,0,0,.63.64h1.28L167,169v-.64h1.92V169l.64.64h1.91l.64.64h0v1.28l.64.64s.64-.64.64,0a.63.63,0,0,0,.64.64l-.64,1.27v.64l-.64.64h-1.28c-.64.64-.64,0-.64.64v1.28l.64.64h1.28l.64-.64v-.64L174,176v-1.28a2.19,2.19,0,0,1,.64-1.27,6.42,6.42,0,0,1,1.91.63h1.28a2.23,2.23,0,0,1,.64,1.28v3.84a.62.62,0,0,0-.64.63c0,.64,0,0-.64.64l-.64.64a2,2,0,0,0-.63,1.28v1.28a.63.63,0,0,1-.64.64H170.8a.62.62,0,0,1-.63.63.63.63,0,0,0-.64.64v.64c0,.64-.64.64,0,.64h1.27l1.92.64h2.56l1.27-.64h1.28l.64,1.28,1.28.64.64,1.28H181a.62.62,0,0,0,.63.63.63.63,0,0,1,.64.64V192l.64.64h1.92a.89.89,0,0,1,1.28,0c.64.64,1.27,0,1.27.64a.63.63,0,0,0,.64.64,2.23,2.23,0,0,0,1.28.64.63.63,0,0,1,.64.64h1.28l.64-.64-.64-1.28-.64-.64h-1.28s.64-.64,0-.64a.63.63,0,0,1-.64-.64h2.56l.64.64h1.27c.64,0,.64.64.64-.64v-1.27a.63.63,0,0,1-.64-.64,6.52,6.52,0,0,0-.63-1.92s-.64.64-.64,0-.64-.64-1.28-1.28,0-.64-.64-.64a2.23,2.23,0,0,1-1.28-.64l-.64-1.27-.64-1.28v-1.28l.64-.64h3.84c.64,0,.64,0,1.27.64l1.28,1.28v.64l.64.64.64.64.64-.64.64-.64.64-.64.63-.64.64-.64s1.28.64,1.28,0,.64,0,.64-.64a2.19,2.19,0,0,1,.64-1.27l-.64-1.28h-3.19a6.45,6.45,0,0,0-1.92-.64,2.23,2.23,0,0,1-1.28-.64.89.89,0,0,0-1.28,0l-.63.64s-1.28,0-1.28-.64V176a.63.63,0,0,0-.64-.64h-2.56l-.64-1.28-.63-1.27c0-.64,0-.64.63-.64a2.23,2.23,0,0,0,1.28-.64l1.28-.64.64-.64h.64v-.64L190,169l-1.92-.64h-1.27l-1.28-.63h-1.28s0,.63-.64,0-1.28-.64-1.28-1.28-.64,0-.64-.64,0-.64-.63-.64-.64.64-1.28,0a9.12,9.12,0,0,0-2.56-1.28s0,.64-.64,0a2,2,0,0,1-.63-1.27h-.64L174,162h-.64s0-1.28-.64-1.28a2.23,2.23,0,0,1-1.28-.64h-.64v-1.28a2,2,0,0,0-.63-1.28,2.38,2.38,0,0,0-1.92-.63h-11.5v.63h0s-.64.64-.64,0a.62.62,0,0,0-.64-.63s-.64,0,0-.64.64-1.28,0-1.28a6.35,6.35,0,0,0-1.91.64l-.64,1.28H151c-.64,0-1.92,1.27-1.92,1.27v.64l-1.27.64a.63.63,0,0,0-.64.64v1.28c0,1.28.64,1.28.64,1.91s0,.64.64,1.28,0,.64.63,1.28a2,2,0,0,0,1.28.64l.64.64a3.16,3.16,0,0,0,1.92.64l.64.63.63,1.28s.64-1.28.64-.64v3.84a6.35,6.35,0,0,1-.64,1.91l-.63.64-.64,1.28-.64.64a2,2,0,0,1-1.28.64.64.64,0,1,1-1.28,0l-.64-1.28.64-1.28s1.28-.64.64-1.28a2,2,0,0,1-.64-1.27,1.59,1.59,0,0,0-2.55,0s.64,0,0,.64a3.2,3.2,0,0,1-1.92.63h-.64v-2.55l-1.28-1.28h-1.27v-2.55l.64-1.28s0-1.28-.64-1.28a2.23,2.23,0,0,1-1.28-.64s0,1.28-.64.64a3.16,3.16,0,0,1-.64-1.92l-.64-.63s-.64-1.28,0-1.28,0-.64,0-.64v-.64l.64-.64,1.28-.64,1.28.64.64-.64.63-1.28.64-.63h1.28l.64-.64v-.64l-1.92-.64h-.64l-.63-.64s-1.92-.64-2.56,0a2,2,0,0,1-1.28.64h-.64l-5.11,2.55s-3.19,3.2-3.19,3.84v1.91l1.92-.63h1.91l.64-1.28-.64-.64v-.64l.64-.64.64-.64h1.28V162a2.19,2.19,0,0,1-.64,1.27l-.64.64a.63.63,0,0,1-.64.64c-.64,0-.64.64-.64,1.28v1.28c0,.64-.64,0,0,.64l.64.63,1.92,1.28,1.27.64.64.64v1.92l-.64.64-.63.63s-.64-.63-.64.64v1.92a.63.63,0,0,1-.64.64c-.64,0-1.28.64-1.28,0v-3.2l.64-.63h.64a.63.63,0,0,0,.64-.64v-.64a.63.63,0,0,0-.64-.64l-.64-.64h-.64l-1.28-1.28h-.64s-.63-.64-.63,0a2.23,2.23,0,0,1-.64,1.28h0c-.64.64,0,.64-1.28.64H128a.63.63,0,0,0-.64.64c0,.64-.64,1.28.64,1.28h2.56c.64,0,.64.63.64,1.27s-.64.64-.64,1.28a.63.63,0,0,1-.64.64h-2.56s-.64.64-.64,0,0-.64-.63-.64-1.28-.64-1.28,0v1.28s0,.64-1.28,0a5,5,0,0,0-1.92-.64h-1.27S79.45,234.79,90,259.39Z"/><path class="cls-5" d="M142.7,149.83l1.27,1.92h.64l.64.63h8.31l1.91.64h1.28l1.28-.64h2.55a.9.9,0,0,1,1.28,0c.64.64,1.28,0,1.92,0h.64l.63-.63v-1.28l-.63-.64h-1.28l-1.28-.64-1.28.64h-3.19l-1.28.64-.64.64h-1.28s.64-.64-.63-.64h-1.92l-.64-.64v-.64h-4.47l-.64-.64v-3.83l3.19-5.11,4.48-2.56,1.91,1.28.64.64v1.28l-.64.63v.64h-1.28l-.63.64-.64.64-.64.64v1.28h0l.64,1.28h3.19l.64-1.28,1.28-.64h.64c.64,0,.64.64,1.27.64h3.84v.64h1.27l.64-.64.64-.64v-1.92l.64-.64s.64.64.64,0v-.64a2.23,2.23,0,0,0-.64-1.27,2,2,0,0,1,1.28-.64h.64l.64.64,1.27-.64.64-.64v-1.28l-1.27-.64h-.64l-1.28-.64,1.28-1.27c.64-.64.64-1.28,1.27-1.28a14.52,14.52,0,0,0,2.56-.64l.64-.64h6.39s1.27,0,.64-.64a2,2,0,0,1-.64-1.28h0s1.27-1.27,1.27-.63a.62.62,0,0,0,.64.63h1.28l.64-.63v-.64a.63.63,0,0,1,.64-.64h1.28l1.27-.64v-1.92l-.63-1.28v-.63l.63-.64h4.48l1.27-.64h3.2l1.28-.64.63-.64v-.64h-2.55l-.64-.64h-7v-.64l-.64-.63h-.63a.63.63,0,0,0-.64-.64H181c-.64,0,.63-1.28-1.92,0s-4.47,1.91-5.11,2.55a9.21,9.21,0,0,1-1.92,1.28l-1.91,1.92c-.64.63-1.28.63-1.28,1.27a2.23,2.23,0,0,1-.64,1.28v1.92c0,.64-.64,0-.64.64s.64.64,0,.64h-3.19c-.64,0-3.2,1.91-4.48,1.91a8.51,8.51,0,0,0-2.33.34L151,134.5l-5.75,7L143.33,146l-.63,3.83Z"/><path class="cls-5" d="M220,174.74h-3.2l-1.28.64-.64,1.92v1.28a2.23,2.23,0,0,1,.64,1.27v.64l1.28.64v3.2l.64.63,1.28,1.28,1.28,1.28a25,25,0,0,0,1.91,2.56,9,9,0,0,1,1.28,2.55l.64,1.92s-.64,0,0,.64-.64.64,1.28,1.27l1.91.64s0,.64.64,0,.64,0,1.28,0h1.28l1.27,1.28,1.28.64h1.28l1.28-1.28v-1.91l-.64-1.28.64-1.92,1.91-.64.64-.64,1.28-1.27v-1.92l.64-1.28V185.6l.64-.64,1.28-1.27a3.12,3.12,0,0,1,1.91-.64h3.84l1.27-.64,1.92-1.28,1.28-1.91.64-1.28.64-.64a.9.9,0,0,0,0-1.28s-.64-1.92,0-1.28a.88.88,0,0,0,1.27,0l3.2-.64h6.39l1.91-1.27,1.28-.64,1.28-.64h1.28s.63,1.28,1.27,0a6.38,6.38,0,0,0,.64-2.56s-.64-1.27-1.28-1.27h-.63l-.64-1.28a.63.63,0,0,0,.64-.64c0-.64,1.91-.64,1.91-.64l.64-.64a9.1,9.1,0,0,0,1.28-2.55l-.64-1.28s-1.28,0-.64-.64l1.28-1.28v-.64l1.28-1.91,1.27-.64,2.56-2.56v-3.19h1.28l-1.28-1.92h-1.28a1.38,1.38,0,0,1-1.28-1.28,2.23,2.23,0,0,0-.64-1.27v-1.28h3.2a2,2,0,0,1,1.28.64,2,2,0,0,0,1.27.64s1.92.64,1.28-.64a5,5,0,0,1-.64-1.92l-1.27-1.92-.64-.63h-1.28s-1.28.63-1.92,0a.89.89,0,0,0-1.28,0l-1.27.63.64-2.55v-1.28l1.27-.64,1.28-1.27.64-.64.64-.64V131.3h2.55s1.92.64,1.28-.64l-.64-1.27h1.92v-1.28l.64-1.28h3.19a2,2,0,0,0,1.28-.64l1.28-1.28h1.28l.63-1.27-1.27-.64h-5.75l-1.28.64s.64.63-.64.63H282a.63.63,0,0,1-.64.64h-1.91s-1.28-.64-1.28,0,0,.64-.64,1.28l-1.28,1.28h-1.27a6.45,6.45,0,0,1-1.92.64h-1.28l-.64-1.28a.63.63,0,0,0,.64-.64c0-.64,1.28-1.28,1.28-1.28l.64-.64.64-.63V123l-.64-1.28s0-.64-.64,0l-.64.64-.64.64-.64-1.28s0,.64.64,0A9.21,9.21,0,0,0,273,119.8v-1.27s0-1.92-.64-1.28a9.1,9.1,0,0,1-2.55,1.28l-1.28-1.28.64-1.28a.89.89,0,0,0-1.28,0,2,2,0,0,0-.64,1.28h-1.92l1.28-1.28-1.28-1.28L264.08,116c-.64.64-1.28-1.28-1.28-1.28h-1.92l-2.55.64-3.2.64-3.19-.64h-3.2l-1.27.64-1.92.64v.64s2.55-.64-1.28,0a17.15,17.15,0,0,1-6.39,0h-6.39l-1.91.64v1.91l-.64,1.28h-1.28l-1.28.64-1.27-.64-1.28-.64-.64-1.28h-2.56v1.92l.64.64s.64,1.28,0,1.28a27.47,27.47,0,0,1-3.19-.64l-1.28-1.28h-3.19l-1.28.64h-2.56l-1.91.64h-1.28A6.62,6.62,0,0,0,204,123l-.63.64-1.92.63-.64,1.28-1.28.64-1.28,1.28h-2.55l-.64-.64v1.28H193.8l-1.91.64s-1.28.64,0,1.27a8,8,0,0,1,1.91,1.28v.64a3.16,3.16,0,0,1-.64,1.92,9,9,0,0,1-1.91,1.28l-1.28.63h-1.28l-.64-.63-2.55,1.27-1.92.64H182.3V139l.64.64,1.28,1.27c0,1.28.64,0,0,1.28s0,1.92,0,1.92l1.28.64h1.28a2.23,2.23,0,0,1,1.27.64l1.28.64,1.28.63h10.22l.64.64,1.92.64,1.27.64,2.56,1.28s-.64,0,0,.64a38.84,38.84,0,0,1,2.55,3.83s0-.64.64,0l.64.64.64,1.92v2.55l-.64,2.56-.64.64a.87.87,0,0,0,0,1.27c.64.64,1.92,1.28,2.56,0s-.64-1.27.64-1.27h2.55c.64,0,.64,0,1.28.63s.64,1.28,1.28,1.28h.64s1.91.64,1.27,1.28l-1.27,1.28s-.64,0,0,1.27,0,1.92.64,2.56a3.9,3.9,0,0,1,.63,2.56A2.24,2.24,0,0,1,220,174.74Z"/><path class="cls-6" d="M281.64,188.48s.64.64.64,0v-.64h1.92a2.23,2.23,0,0,0,1.28-.64h0v-.64h.64s.63,1.28,1.27.64a9.21,9.21,0,0,0,1.28-1.92v-.63A.63.63,0,0,0,288,184l.64-.64-1.28-.64-.64-.64h0l-.63-.64s0-1.28-.64,0-1.28,1.28-1.28,1.28h-5.11a.63.63,0,0,1-.64.64h-2.56l-1.27-1.28s0-.64-1.28-.64-1.92,0-1.92.64-1.28,0,0,.64,1.28.64,1.92.64a2.23,2.23,0,0,1,1.28.64l-.64.64s0-.64-.64,0-1.28,1.27-.64,1.27h2.56c1.27,0,1.27.64,1.27.64s.64.64,0,.64a.63.63,0,0,0-.64.64.64.64,0,0,0,0,1.28l1.28-.64h4.47Z"/><path class="cls-6" d="M403.66,378.85l-2.55-.64-.64-.63s.64-.64,0-.64h-1.28l-.64-.64v-2.56l-.64-.64a2.19,2.19,0,0,1,.64-1.27l.64-1.28.64-.64v-1.28a2.23,2.23,0,0,1,.64-1.28v-3.19l-.64-.64-.64-.64v-.64a.63.63,0,0,1-.64-.64v-1.91h.64s1.92.64,1.92,0,.64-.64,1.27-.64h1.28a.63.63,0,0,1,.64-.64,2.23,2.23,0,0,0,1.28-.64l.64-.64v-1.28h.64s-.64-.63,0-.63,0-.64,1.27-.64a1.25,1.25,0,0,0,1.28-1.28h.64a2.23,2.23,0,0,1,.64,1.28c0,.64-.64.64,0,1.27a2,2,0,0,1,.64,1.28v.64a2.23,2.23,0,0,0,.64,1.28l-1.28.64-.64.64-.64.64v1.27h-.64v2.56h-.64v1.92a6.42,6.42,0,0,0-.63,1.91v2.56l-.64.64v1.27l.64.64v.64a2,2,0,0,1-.64,1.28c-.64.64,0,1.28-.64,1.28s-1.28,1.27-1.28,1.27Z"/><path class="cls-6" d="M351.92,398l-1.28-1.28H350l-.64-.64v-1.28H350l-.64-.63v-.64l-.64-1.28v-2.56h-1.28l-.63-.64v-1.91l-1.28-1.28-.64-.64-.64-.64a.64.64,0,1,1,0-1.27v-1.28l-1.28-.64-.64-.64v-1.92s-.64.64-.64,0V376.3l.64-1.28v-1.28l-.64-.64h-.63v-1.27l-.64-.64-.64-.64-.64-1.28L338.5,368l-.64-.64-.64-.63v-1.28c0-.64.64,0,.64-1.28V361l.64-1.28.64-.64v-1.28l-.64-1.28v-.64l.64-.63.64-.64h.64l.64-.64.63-1.28-.63-.64v-1.28h-.64l-.64-.63v-4.48l.64-1.27v-1.28h-1.28l-.64-.64v-1.28l-.64-.64-.64-.64-.64-.63A2,2,0,0,1,336,338v-.64h-.64l-.64-.64v-1.92l-.64-.64h-.64l-.64-.63-.64-1.28v-2.56h.64s-.64-.64,0-.64h.64v-3.19s.64.64.64,0v-1.92l-.64-.64s.64,0,0-.63,0-.64-.64-.64H327l-1.28-.64v-.64s.64-3.83-7.66-1.28l-2.56.64-.64.64-.64.64h-2.55l-1.28.64H300.17l-.64-.64-.64-.64h-1.28l-2.55-1.92-1.28-1.28-.64-.63-.64-1.28-.63-.64-.64-.64v-1.92l-1.28-.64-.64-.63a2.23,2.23,0,0,1-.64-1.28,2.23,2.23,0,0,0-.64-1.28l-1.28-1.28a2,2,0,0,0-1.27-.64v-1.91l-.64-.64-.64-.64v-.64a6.45,6.45,0,0,0-.64-1.92v-.63s-.64,0,0-.64a2,2,0,0,0,.64-1.28h.64l.64-.64V295.8a.62.62,0,0,1-.64-.63l-.64-.64V292l-.64-.64v-.64l-.64-.64.64-.63.64-1.92.64-.64,1.28-1.28.63-.64.64-.64v-.63L288,283l.64-.64v-2.56l.64-.64.64-.63.64-.64.64-.64h.64l1.27-.64h.64l.64-.64h.64v-.64h.64l.64-.64.64-1.28.63-.63-.63-1.92v-1.28l.63-1.28h.64v-1.91h1.92l1.92-1.28a.63.63,0,0,0,.64-.64v-.64l.63-.64V262l.64-.64.64-.64s1.28-.64,1.28,0a.63.63,0,0,0,.64.64l.64.64h5.11l.64-.64h.64l.63-.64h1.28l1.28-.64a.63.63,0,0,1,.64-.64h.64l.64-.64h2.55l.64-.64h1.28a2.23,2.23,0,0,0,1.28-.64h10.22a.63.63,0,0,1,.64.64,2.23,2.23,0,0,1-.64,1.28v1.92l.64.64.64.63a3.13,3.13,0,0,1,0,2.56l.63.64a3.16,3.16,0,0,0,1.92.64l.64.64h5.11l.64.63.64,1.28v1.28h-.64l.64.64.64-.64h1.91l1.28.64v1.92h2.56l1.27-.64.64-.64V269l-.64-1.28.64-.63a2.23,2.23,0,0,0,1.28-.64h2.56l1.27.64,1.28.63v.64h1.28a2.23,2.23,0,0,1,1.28.64h.64a2.19,2.19,0,0,0,1.27.64H366c.64,0,.64.64,1.28.64a2.23,2.23,0,0,1,1.28.64s1.91.64,1.91,0,0,0,.64-.64a2,2,0,0,1,1.28-.64A.63.63,0,0,1,373,269c.64,0,.64-.64,1.28,0a2,2,0,0,0,1.27.64s-1.27.64,0,.64h1.92l1.28.64,1.91,1.28v2.55c0,.64.64,0-.63.64s-.64,0-1.28.64-.64.64-.64,1.28-.64.64,0,1.28,1.28,1.91,1.92,2.55.63,1.28,1.27,1.92a9.1,9.1,0,0,1,1.28,2.55,14.52,14.52,0,0,1,.64,2.56c0,.64.64,0,.64,1.28s0,.63,1.28,2.55,1.27,2.56,1.27,2.56,0-1.28.64,1.27a20.63,20.63,0,0,0,1.28,3.84s.64-.64,1.28.64a5,5,0,0,0,1.28,1.91c.63.64,1.27.64,1.91,1.92a8.63,8.63,0,0,0,1.92,2.55c.64.64.64,3.84,5.11,3.84h5.75l1.28-.64,1.27-.64a2.23,2.23,0,0,1,1.28-.64H412l-.64.64v2.55l-.64.64-.64.64-.64.64v3.83a.63.63,0,0,1-.64.64,2.19,2.19,0,0,0-1.27.64.63.63,0,0,0-.64.64,2.23,2.23,0,0,1-.64,1.28v.64a.63.63,0,0,0-.64.64,2.19,2.19,0,0,1-.64,1.27l-1.28.64-.64.64-.64.64-.63.64-.64,1.28-.64.64-.64,1.27-1.28.64h-1.91a.63.63,0,0,0-.64.64v1.28s.64.64,0,.64h-1.28s-1.28,0-1.28.64v.64c0,.63.64-.64,0,.63a5,5,0,0,0-.64,1.92l-.64.64h-.64s-1.27,0-1.27.64-.64,0-.64,1.28a27.92,27.92,0,0,0,.64,3.19v1.28l.64,1.28V345a6.45,6.45,0,0,1-.64,1.92v1.92c0,.64.64.64.64,1.28s1.27,1.27,1.27,1.91v1.28a.63.63,0,0,1,.64.64v2.55l-.64,2.56-.64,1.28-.63,1.27a2.26,2.26,0,0,1-1.92,1.92l-1.28.64h-1.28a2.23,2.23,0,0,0-.64,1.28,2.25,2.25,0,0,1-.63,1.28h-.64l-.64.63h-1.28a2.23,2.23,0,0,0-.64,1.28,6.45,6.45,0,0,1-.64,1.92,2.23,2.23,0,0,1,.64,1.28c0,.63.64,1.27.64,1.91s.64.64,0,1.92l-1.28,2.55a.63.63,0,0,0-.64.64,2.25,2.25,0,0,1-.63,1.28l-1.28-.64s-1.28-.64-.64.64a5,5,0,0,1,.64,1.92v1.28l-.64,1.91s0,1.28-.64,1.28h-1.28a2.23,2.23,0,0,0-.64,1.28v1.27a.63.63,0,0,1-.64.64s.64.64,0,.64-1.27.64-1.91,1.28a2,2,0,0,0-.64,1.28v.64l-.64.64-1.28-.64s0-.64-.64,0l-1.27,1.27H366l-.64.64h-.64l-.64.64a.62.62,0,0,1-.63.64,2.23,2.23,0,0,1-1.28-.64h-.64l-.64.64c-.64.64-.64,0-.64.64s0,.64-.64.64a6.35,6.35,0,0,0-1.91.64h-4.48Z"/><path class="cls-6" d="M468.82,317.52s-1.27,0-1.27-1.91.64-2.56,1.27-2.56,1.92,1.28,1.92,1.28,0,3.19-1.92,3.19"/><path class="cls-6" d="M342.33,137.37l1.92-.64,1.28-.64,1.28.64.63.64-.63.64s-1.28,0-1.28.64a6.45,6.45,0,0,1-.64,1.92.62.62,0,0,0-.64.63v1.28l.64.64h1.28l.64.64V145h1.27s-.64-.64,0-.64a.63.63,0,0,0,.64-.64v-.64h0v-.64h.64v-.64l.64-1.91.64-.64h0a2,2,0,0,1,1.28-.64l.63-.64,1.28-1.28h.64l1.28.64s0-.64.64,0,.64,0,.64.64v1.28h0l-.64,1.28v.63l1.28.64h.63a2.23,2.23,0,0,0,1.28-.64h1.28a2.23,2.23,0,0,1,1.28.64s-.64-.64,0-.64,0-1.27,0-1.27l-1.28-.64-.64-.64h-1.28v-2.56h-.64a.62.62,0,0,0-.63-.64h-2.56l-.64-.63h-3.19v-.64c0-.64-.64-1.28,0-1.28h.64l.63-.64h2.56s-.64,0,.64.64a5,5,0,0,0,1.92.64h5.11s0,.64.64,0l.63-.64h.64l1.28-.64s.64.64.64,0a.63.63,0,0,1,.64-.64v-1.28h-.64l-1.28-.63a.62.62,0,0,1-.64.63c-.64,0-.64.64-1.27.64h-2.56a.63.63,0,0,0-.64-.64h-.64l-.64-.63h-6.39a.62.62,0,0,0-.63.63s-.64-.63-.64,0,.64,0,0,.64a2.35,2.35,0,0,1-1.92.64,6.45,6.45,0,0,0-1.92.64s-.63-.64-.63,0a2.23,2.23,0,0,1-.64,1.28v1.28h-1.28l-.64-.64v-.64c0-.64,0-.64-.64-.64a2.23,2.23,0,0,0-1.28.64s-1.27.64-1.27,0-1.28,0-1.28-.64,1.28,0,0-.64a5,5,0,0,0-1.92-.64v3.2l-.64,1.27s-.64.64,0,.64a.63.63,0,0,1,.64.64h1.28l1.28.64,1.27-.64Z"/><path class="cls-6" d="M297.61,219.78l-.63,1.28,1.27.64,1.92-.64,1.92.64.64-.64v-1.28s-.64,0,.63-.64,1.28-1.27,1.28-1.27h0c-1.28-.64-1.28,0-1.28-.64A2.23,2.23,0,0,1,304,216h.64l.64-1.28s-.64-2.55-2.55-.64l-.64.64v.64c0,.64-1.28.64-1.28.64h-.64a2.23,2.23,0,0,1-1.28-.64h0l-.64.64v1.28h0v1.91A.63.63,0,0,1,297.61,219.78Z"/><path class="cls-6" d="M307.2,225.53h-.64l-.64-.64a.63.63,0,0,0,.64-.64c0-.64,1.28-.64,1.28-.64v-2.55l-.64-1.28v-.64a.63.63,0,0,0,.64-.64.62.62,0,0,1,.63-.63h1.92v-3.2l-.64-1.28v-.64h-.64l-.64-1.27-.63-.64h0l-.64.64h-1.92V210.2a.63.63,0,0,0,.64-.64v-1.92h0l-.64-.64v-.63h0l.64-.64h.64a2,2,0,0,0,.64-1.28v-.64h1.27l.64.64h0v1.28h.64v.64H311l.64-.64a2,2,0,0,1,1.28.64h0v1.27h-.64l-.64.64-.64.64a3.09,3.09,0,0,0,0,2.56l1.28,1.91.64.64.64.64.63.64.64.64.64.64.64.64,1.28.64h0l1.28.63.64.64h0a.62.62,0,0,1,.63.64v.64h-.63l-.64-.64h-.64v3.83h-1.92l-.64-.63s-1.28,0-1.28.63-1.91.64-1.91.64h-1.92l-.64.64v.64h0a.63.63,0,0,1-.64.64h-.64l-1.27-.64Z"/><path class="cls-6" d="M424.11,166.76h-3.2l-.64-.64-1.28-.64h-.63v-1.92l-.64-.64h-1.28l-.64.64h-.64a.63.63,0,0,1-.64-.64c0-.63.64,0,.64-.63V161h1.28a2,2,0,0,0,.64-1.28l.64-.64h0l.64-1.28s-.64-1.91.63-2.55a11.94,11.94,0,0,0,2.56-1.92l.64-.64.64-.64s.64-.63,0-.63a.63.63,0,0,1-.64-.64v-.64s.64.64.64,0a.63.63,0,0,1,.64-.64h1.27l.64-.64h1.92v.64l.64-.64h.64v-.64l.64-.64v.64h.63l.64-.64h0l.64-.64,1.92,2.56-.64.64v.64h-.64l-.64.64v.63h-.64l-1.27-.63h0s.63,0,0,.63l-.64.64H427.3s-.64-.64-.64,0A2.23,2.23,0,0,1,426,154l-.64.64-1.27,1.28-.64.64h0l-.64.64h-.64l-.64.63v1.92h-.64a.89.89,0,0,0,0,1.28v1.28h0v1.27h0s-.64.64,0,.64h.64l.64.64h.64l.64.64h0l.64.64h0Z"/><path class="cls-6" d="M333.39,212.75s0,.64-.64,0l-.64-.63V210.2h0l-.64-.64v-.64l.64-.64h1.28s.64.64.64,0V207s0-1.27.64-.63A2,2,0,0,0,336,207v2.56h0l.63.64h.64s.64-1.28.64-.64a.63.63,0,0,0,.64.64v.64h0a.63.63,0,0,1-.64.64l-.64.64H336s-.64-.64-.64,0a2.23,2.23,0,0,1-.64,1.27h0c-.64,0,0,.64-.64,0Z"/><path class="cls-6" d="M456.05,179.53s-1.28,0-1.28.64a.63.63,0,0,1-.64.64l-.64.64h-1.28a.62.62,0,0,0-.63-.64h-3.84v-1.28h.64l.64-.63h1.92v-.64h1.27l.64-.64v-1.28l.64-.64v-.64l.64-.64-8.94-12.13v1.91l-.21,0-.37.4-.56.39-.51.79v.4a1,1,0,0,0,.06.53,6.42,6.42,0,0,0,.28,1c.2.48.31.76.48,1.15a6.16,6.16,0,0,0,.42.79s0,.06.37.48a6.68,6.68,0,0,0,.73.71.91.91,0,0,1,.28.33c.09.2.31,1,.31,1a2.33,2.33,0,0,1,.12.84,7.19,7.19,0,0,1-.34,1.61l-1.41.31a5.75,5.75,0,0,1-.79-.14,7.36,7.36,0,0,1-.85-.42l-.93-.79c-.25-.23-.7-.57-.7-.57a2.55,2.55,0,0,0-.59-.47,3.71,3.71,0,0,0-.71-.2l-1.49-.88-.56-.36a1.72,1.72,0,0,0-1.36-.65c-.81.06-1.18.11-1.38.14a1.67,1.67,0,0,0-.42.14s0,.25-.45,0a1.72,1.72,0,0,1-.82-.7,1.26,1.26,0,0,0-.42-.54,2,2,0,0,0-.62-.34l-.68-.14-.76,0s-.93-.39-1.3-.48a10.49,10.49,0,0,1-1.71-.84,1.36,1.36,0,0,0-.51-.26c-.11,0-.42-.84-.37.17a2.55,2.55,0,0,0,.31,1.33l.26.19.64.51a1.66,1.66,0,0,0,.6.39c.39.17,1,.4,1,.4l.68.14s.36.2.42.39a1.81,1.81,0,0,1,.14.54,1,1,0,0,1-.08.73,2,2,0,0,1-.48.93,2.29,2.29,0,0,1-.62.6,1.73,1.73,0,0,1-1,.33,1.67,1.67,0,0,1-1-.33,17.93,17.93,0,0,0-1.44-1.19,1.45,1.45,0,0,0-.62-.08,6,6,0,0,0-1.15.17l-.28.28-.06.36-.54.46-.62.39-.93.06a.85.85,0,0,1-.56-.2c-.17-.2-.42-.45-.42-.45l-.71-.06a.53.53,0,0,0-.42.14c-.14.17-.25.26-.22.45s.16.23,0,.45a.8.8,0,0,1-.5.4,1,1,0,0,1-.76.11,3.31,3.31,0,0,1-.85-.31.53.53,0,0,1,.08-.59,5.21,5.21,0,0,0,.48-.62s.68.06-.08-.62-1-.68-1-.68.06,0-.17.12a9.34,9.34,0,0,0-.9.9l-.14.22-.2.34-.14.23s0,.25-.34.25-.56-.06-.81,0-.09-.34-.88.26a4.85,4.85,0,0,1-1,.67l-.59-.11-.37-.2L412,175a4.15,4.15,0,0,0-.88.62,2.32,2.32,0,0,1-.81.53c-.09,0-.74.12-.74.12a3.28,3.28,0,0,0-.93.25c-.28.17-.7.48-.7.48l-.42.65-.17.82a.34.34,0,0,1,.08.5,1.29,1.29,0,0,1-1,.62,12.7,12.7,0,0,1-1.27.17,10.1,10.1,0,0,1-1.5-.11,3.87,3.87,0,0,1-1.15-.37,1,1,0,0,1-.48-.7c0-.34-.11-.48,0-.71a4.59,4.59,0,0,1,.48-.56s.25-.25.48-.45l.45-.42a4.49,4.49,0,0,0,.48-.82,6.78,6.78,0,0,0,.14-.82s.14-.84-.45-.62-1.13.48-1.13.48l-.51.56-.25.06a4.46,4.46,0,0,1-.9-.7c-.26-.31-.2-.37-.57-.54a2.44,2.44,0,0,0-.82-.31c-.19,0-.33-.17-.67,0s-.51.14-.51.45.56.51.56.51l.29.22.45.43a2.14,2.14,0,0,1,.39.39c.14.2.28.2.31.51s0,.62,0,.93.08,1,.08,1,.09.82.09,1.33a7.12,7.12,0,0,1,0,.93c0,.22-.11.76-.11.76a.7.7,0,0,1-.17.28,1,1,0,0,1-.85.11c-.48-.11-.84-.39-1-.42s-.87,0-.87,0l-.37-.08a1.52,1.52,0,0,1-.48-.45c-.14-.26-.22-.37-.36-.4a.73.73,0,0,0-.51,0c-.11.08-.26.11-.28.37a4,4,0,0,0,0,.59,2.8,2.8,0,0,1-.17.67,2.2,2.2,0,0,1-.59.57,3.69,3.69,0,0,1-1.41.28c-.42,0-.65,0-.82,0H392a.58.58,0,0,0-.28.37,1,1,0,0,0,0,.59,1,1,0,0,0,.45.59l.12.34.22.23a2.28,2.28,0,0,1-.11.53,1.35,1.35,0,0,1-.17.37L392,186a2,2,0,0,1-.53.06,2.79,2.79,0,0,1-.93-.09c-.4-.11-1.16-.42-1.16-.42a6.9,6.9,0,0,1-.68-.37,1.13,1.13,0,0,0-.5-.25l-.76-.23a1.91,1.91,0,0,1-.45-.17,3.44,3.44,0,0,1-.43-.25.36.36,0,0,0-.39-.06c-.2.12-.4.06-.42.31s0,.65,0,.65a6,6,0,0,0,.22.65c.12.25.31.7.31.7l.59.65a.44.44,0,0,1,.29.26,2.44,2.44,0,0,1,0,.62.35.35,0,0,1-.54.22c-.39-.22-.59-.34-.7-.56s-.23-.54-.4-.59a1.26,1.26,0,0,0-.67,0l-.31.17-.46,0s-.33-.23-.56-.37-.62-.22-.68-.31-.22.37-.25-.51a13.34,13.34,0,0,1,0-1.52l.11-.84a1.27,1.27,0,0,0-.14-.82,4,4,0,0,0-.87-.93s0-.09-1.16-.71-1.58-.81-1.58-.81-.17-.06-.14-.34a4.14,4.14,0,0,1,.11-.57l.29-.28s0-.19.28-.05,1,.62,1,.62l.26.08h.56a5.23,5.23,0,0,1,.87.09,8.38,8.38,0,0,1,1.16.42l.48.45.7.51a.9.9,0,0,0,.71,0c.39-.14.53-.31.93-.14s.51.6,1.07.74,1.15.25,1.15.25a3.66,3.66,0,0,0,1.16,0c.51-.11.85,0,1.13-.31s.45-.48.53-.56l.34-.37a1.45,1.45,0,0,1,.28-.79c.26-.25.26-.39.62-.65a3,3,0,0,1,.68-.42,1.72,1.72,0,0,0,.76-.59c.06-.2.14-.11,0-.4s.59.31-.34-.62a6.88,6.88,0,0,0-1.55-1.24l-.62-.81s-.51-1-.79-1.16a2.54,2.54,0,0,0-1.13-.14l-.5.11a8.71,8.71,0,0,1-1.13-.42,14.45,14.45,0,0,0-1.38-.45,3.48,3.48,0,0,0-.88-.23.69.69,0,0,0-.31.09l-.78-.73c-.09-.09-.31-.15-.4-.32s0-.39-.37-.47a2.61,2.61,0,0,0-1.21-.15,3.82,3.82,0,0,0-.81.4,1.43,1.43,0,0,1-.82.17c-.34,0-.14,0-1.16-.09a13.21,13.21,0,0,1-1.72-.19s-.39-.12-.19-.45.45-.43.36-.6,0-.31-.42-.33a10.89,10.89,0,0,0-1.16,0s-.11.14-.93.23-.76-.09-1.38,0a1,1,0,0,1-.93-.31l-.17-.45a2.08,2.08,0,0,1,.06-.65,2.77,2.77,0,0,0,.25-.45c.17-.37.31-.76.31-.76a2,2,0,0,0-.08-.85,3.91,3.91,0,0,0-.42-.56s-.54-.17-.79.11-.51.48-.62.62a2.85,2.85,0,0,1-.34.31.42.42,0,0,1-.56-.23c-.23-.39-.37-.47-.23-.7s.48-.34.14-.42a3.67,3.67,0,0,0-.93-.09l-.85,0a11.54,11.54,0,0,0-1.43-.06c-.74,0-1.05,0-1.27,0a8.39,8.39,0,0,1-1.07-.22l-.57-.37s-.19-.31-.39-.31h-.76a1,1,0,0,0-.45.34c-.23.28-.4.51-.51.65s-.2.34-.31.45a4.26,4.26,0,0,0-.39.36,2.13,2.13,0,0,1-.34.31s-.68.12-.9-.08-.57-.56-.57-.56h-.36a4.25,4.25,0,0,0-.77.05c-.31.06-.45,0-.45.17s-.14.34.06.65-.23.48-.23.48v.2a1.64,1.64,0,0,1-.28.42,3.11,3.11,0,0,1-.25.2.65.65,0,0,1-.25.11,1.38,1.38,0,0,0-.57.28,1.66,1.66,0,0,0-.34.45l-.33.28-1.39-.08a1.34,1.34,0,0,0-.47-.2,10.5,10.5,0,0,0-1.08-.2,2.07,2.07,0,0,0-1.07.09,4.36,4.36,0,0,0-.7.51s0,.48,0,.73a1.21,1.21,0,0,1-.34.79,2.94,2.94,0,0,1-.56.45c-.17.08-.4.31-.77-.06s-.36-.53-.64-.5-.57-.48-.93.19a4.33,4.33,0,0,0-.46,1.3l-.84-.31s-.4-.42-.51-.51a.85.85,0,0,0-.45-.2,1.71,1.71,0,0,0-.51.17s-.19,0-.19.29,0,.53,0,.73a.94.94,0,0,1-.14.42s-.17.14-.5-.05a1.67,1.67,0,0,0-.65-.29,3.15,3.15,0,0,0-.9.43v.42l.28.56.51.09.36.05.26.88-.6,1.63a2,2,0,0,1-.33.54,1.71,1.71,0,0,1-.6.34c-.36.14-.62.19-.73.36s-.22.23-.39.51-.6.9-.6.9a.71.71,0,0,0-.05.56,3.25,3.25,0,0,1,.08.62s-.56.48-.87.37-.48-.59-.59-.25a2.47,2.47,0,0,0-.26,1.21c.06.54.4.68.06.87a4.41,4.41,0,0,1-1,.34s.19-.08-.2,0a2.45,2.45,0,0,0-.82.45l-.08.76a1.18,1.18,0,0,1-.06.57,5.43,5.43,0,0,1-.42.56,3.41,3.41,0,0,0-.48.79l-.14.56s.11.14-.28.43a10,10,0,0,0-1,.87,1.54,1.54,0,0,1-.54.34c-.28.08-.42.14-.53.05a1.64,1.64,0,0,0-.54-.28c-.11,0-.05-.14-.36.06a5.47,5.47,0,0,0-.59.45s-.2.37-.34.65a2.25,2.25,0,0,1-.37.51l-.34.36-.56.17-.37.17a2.65,2.65,0,0,1-.5.28c-.23.09-.48.62-.57.73s-.9.15-.9.15a2.32,2.32,0,0,1-.56.16c-.17,0-.43.29-.51.43a2.92,2.92,0,0,0-.2.48l-.51.93a1.6,1.6,0,0,0-.25.53,6.54,6.54,0,0,0-.11.79c0,.26,0,.34,0,.45s0-.56.08.59a5.1,5.1,0,0,0,.2,1.41l.22.4s.26.39.43.59.22.14.28.51a16.23,16.23,0,0,1,.17,1.94,2.5,2.5,0,0,0,0,1c.08.59,0,.73.45,1.1a4.94,4.94,0,0,0,1.16.65s.08.28.7,0,.42-.48,1.21-1a7.16,7.16,0,0,0,1.35-1c.09-.11-.62-.05.29-.42s1.24-.42,1.49-.25.23.25.42.22.06.14.65-.25a1.48,1.48,0,0,1,1.33,0l.39.57.31.93.08.42v.25l.23.48.4.31a1,1,0,0,1,.36.34,1.94,1.94,0,0,1,.2.56l.06.65v.54l.31.36a.35.35,0,0,1,.42.34,6,6,0,0,0,0,1.24,5.68,5.68,0,0,0,.19.79l.34.42.57.71.39.2.7.19.48,0,.48-.08.71-.25.48-.31s.56-.48.64-.57.34-.36.34-.36a4.85,4.85,0,0,1,.54-.43c.2-.11.36-.22.67-.39s.82-.48.82-.48a.71.71,0,0,0,.48-.54,5.65,5.65,0,0,0,.09-1l-.23-.71-.06-.36.17-.71s.9-.34,1-.36.37.08.42-.15a1.69,1.69,0,0,0-.08-.67s-.59,0-.37-.51a.6.6,0,0,1,.76-.28l.26.17a2,2,0,0,0,.48.05c.08,0,.16-.08.36-.31s.45-.56.45-.56l.12-.59a.8.8,0,0,0,0-.51l-.23-.48s-.28-.36-.36-.48-.65-.67-.65-.67l-.37-.23-.85-.22-.42-.09a3.17,3.17,0,0,1-.7-.31c-.17-.14-.45-.14-.45-.53a1.62,1.62,0,0,1,.22-.82,3.51,3.51,0,0,1,.28-.45c.14-.17.4-.54.4-.54l.34-.14.45-.08a7.77,7.77,0,0,0,.34-.79.63.63,0,0,0-.06-.48,3.42,3.42,0,0,0-.54-.73,2.59,2.59,0,0,1-.25-.26s-.2,0,0-.31.11-.34.42-.67l.6-.65.5-.23.48,0a.29.29,0,0,0,.28-.33c0-.34-.14-.54.06-.74l.48-.48,1.46-1,.57-1.1a2.23,2.23,0,0,0,.39-.34c.28-.28-.22-.2.4-.39a7.82,7.82,0,0,1,.79-.23l.36,0,.54,0s.56-.09.56-.43v-.76a.94.94,0,0,0-.2-.48c-.14-.22-.36-.62-.36-.62l0-.39.37-.34a1.14,1.14,0,0,1,.5-.25L357,184l.36-.47a2.37,2.37,0,0,1,.34-.71c.2-.23.11-.28.31-.42a4.18,4.18,0,0,1,.62-.31l.88-.09s0,.09.5.2a5.16,5.16,0,0,0,.93.11.84.84,0,0,0,.71,0,8.51,8.51,0,0,1,1-.31l.59,0a3,3,0,0,1,.51,0,1.15,1.15,0,0,1,.57.45,1.32,1.32,0,0,1,.14.62c0,.31-.17.57-.2.88a3.55,3.55,0,0,1,0,.79,2.34,2.34,0,0,1-.2.73c-.14.25-.22.48-.36.73a7.33,7.33,0,0,1-.51.79.68.68,0,0,1-.59.28,3.46,3.46,0,0,1-.79-.05.56.56,0,0,0-.4.05c-.22.12-.62.31-.64.62a2,2,0,0,0,0,.62c0,.12.08.06,0,.29a.91.91,0,0,1-.39.56,2.94,2.94,0,0,0-.87.65,3.72,3.72,0,0,0-.51.7s0,.26-.34.62-.76.28-1,.54-.45.59-.36.9,0,.48.31.76.5.39.7.56.56,0,.56.46a2.28,2.28,0,0,1-.08.93c-.14.59-.14,1.07-.23,1.57a12.29,12.29,0,0,0-.05,1.58l.08.14a3.42,3.42,0,0,0,.57.34,1.87,1.87,0,0,0,.73.11,2,2,0,0,0,.87-.33l.31-.23.23-.31.79-.39a1.89,1.89,0,0,1,.79,0,6.64,6.64,0,0,0,.67.23l.4-.11a2.94,2.94,0,0,1,.48-.48l.64-.54.34-.08H366c.28,0,.62.08,1.18.11s1.21,0,1.21,0l.31-.09h.14l.43.09s.28,0,.33.2a.68.68,0,0,1,0,.42,1.52,1.52,0,0,0,0,.28,3.32,3.32,0,0,0,.79,0,4.2,4.2,0,0,1,.82,0s.11-.2.37.14a3.6,3.6,0,0,1,.42.9,1.32,1.32,0,0,1-.28.9,4.46,4.46,0,0,1-.85.54c-.31.2-.36,0-.53.34a1.9,1.9,0,0,0-.2.53c0,.09-.11.23-.56.31a15.29,15.29,0,0,1-1.78.09,11.22,11.22,0,0,0-1.27-.11c-.51,0-1.18,0-1.46,0s-.91,0-1.3,0-.76-.17-1.16-.17a2.4,2.4,0,0,0-.81,0c-.17.09-.37-.11-.34.31s0,.62.14.82.17.14.39.36.43.26.51.71.06.65.14,1.21a8.28,8.28,0,0,1,.2,1.66c0,.77.11,1.27-.23,1.7a4.53,4.53,0,0,1-.95.9,1.29,1.29,0,0,1-.68.25,1.62,1.62,0,0,1-1,0l-.85-.28a1,1,0,0,1-.11-.62,1.43,1.43,0,0,1,.31-.73,3,3,0,0,0,.31-.76s.22-.71-.09-.79-1.1-.17-1.26.31a14.38,14.38,0,0,1-.82,1.58l-.09.17-.22.5s.14.09-.09.31a2.27,2.27,0,0,1-.39.34,2.55,2.55,0,0,1-.42.23c-.23.11-.51-.06-.43.42a3.09,3.09,0,0,0,.34.93c.14.31.14.14.26.51a1.11,1.11,0,0,1-.12,1,2.67,2.67,0,0,1-.59.48c-.37.28-.48.39-.51.59s.09.23,0,.45-.06.34-.48.51a13,13,0,0,1-2.59,0,5.81,5.81,0,0,1-1,.14c-.62,0-1.55,0-1.55,0l-.67.09-.6-.43s-.59,0-.81.31-.17.57-.26.68-.48.17-.79.2a2.1,2.1,0,0,0-.76.36l-.22.29-.28.47-.26.26s-.53.11-.9.14a4.32,4.32,0,0,1-1-.06,2.78,2.78,0,0,1-.65-.14l-.53-.31-.17-.39a2,2,0,0,0-.45-.57c-.28-.22-.4-.34-.59-.36s-.34-.37-.65,0a4.59,4.59,0,0,0-.51.68l-.53.5-.62.12a5.14,5.14,0,0,1-.68.05,2.46,2.46,0,0,1-.85-.2c-.19-.14-.48-.36-.65-.47a4.69,4.69,0,0,0-.76-.54,2.58,2.58,0,0,0-.62-.11,2.15,2.15,0,0,0-.76,0c-.31.08-1.1,1.1-1.1,1.1l-.28.28-.51.36-.56.12s-1.3-.06-1.55-.09-.53-.08-.7-.08a2.4,2.4,0,0,1-.65-.14c-.11-.06-.2-.23-.34,0a.7.7,0,0,0-.14.59c.06.17.08.31.11.42s.23.17-.08.42-.43.26-.62.48a4.9,4.9,0,0,0-.51.6c-.17.25-1.78,2.05-1.78,2.05a2.65,2.65,0,0,0-.39.31c-.17.17-.48.45-.48.45l-.76.23-.76-.14-.31-.14-.57.48a5.69,5.69,0,0,1-.31.84,2.08,2.08,0,0,1-.45.59,5.73,5.73,0,0,1-.56.43,4.66,4.66,0,0,0-.59.64,1.53,1.53,0,0,0,.08.62c.12.34.2.48.12.77a2.55,2.55,0,0,1-.34.87,2.33,2.33,0,0,1-.65.48,1.48,1.48,0,0,1-.93.11c-.34-.11-1.13-.48-1.13-.48s-.17-.11-.42.14-.59.48-.71.6a2.2,2.2,0,0,1-1,.31,7.93,7.93,0,0,1-1,0c-.19,0-.5,0-.65.34a2.12,2.12,0,0,0-.16.64c-.06.26.33.31-.34.34s-1.13.06-1.27.09a3.83,3.83,0,0,1-.4,0l-.76-.11-1-.56-.76-.42a.59.59,0,0,0-.51-.06,1.21,1.21,0,0,0-.53.56,1,1,0,0,0-.15.45c0,.2-.39.17.29.6a7.75,7.75,0,0,0,1.26.64,5.06,5.06,0,0,1,.62.23,2.43,2.43,0,0,1,.6.42,3.24,3.24,0,0,0,.53.37,1.67,1.67,0,0,0,.59.45,1.73,1.73,0,0,0,.76.17c.37,0,.77-.06,1-.06s.68,0,.68.48a2,2,0,0,1-.25.9l.19.45.4.45a1.44,1.44,0,0,1,.25.6,3.61,3.61,0,0,1,.25,1.07,10.55,10.55,0,0,1,.06,1.63,4.72,4.72,0,0,1,0,1.36,5.77,5.77,0,0,1-.5.81,5.57,5.57,0,0,1-.6.71,2,2,0,0,0-.39.34l-.11.14,1.1.05s.42,0,.5-.05a2.29,2.29,0,0,1,.54.08,2.5,2.5,0,0,1,.51.37,4.35,4.35,0,0,0,.5.45s.26.31.4.45a1.17,1.17,0,0,0,.39.28,1.1,1.1,0,0,0,.57.17c.33,0,.56,0,.9,0h1.07l.84.06s.4,0,.54,0,.08,0,.28,0a1.28,1.28,0,0,0,.37,0l.25-.17a2.64,2.64,0,0,0,0-.53,1.55,1.55,0,0,0-.14-.59c-.08-.2-.22-.26-.11-.37s-.17-.23.65-.23,1.66-.08,2-.11.31-.17.9-.11.87-.17,1.1.2.22.42.51.56a3.43,3.43,0,0,0,1.6.11c.2-.11.28,0,.48-.28a1.88,1.88,0,0,1,1-.76,10,10,0,0,1,1.72-.76,10.2,10.2,0,0,0,1.89-.79s-.17,0,.33,0a2.72,2.72,0,0,1,1.1.31,5.31,5.31,0,0,1,.82.37,2.23,2.23,0,0,0,.45.22,1.62,1.62,0,0,1,.73.2c.2.17.31.37.54,1a8.06,8.06,0,0,0,.42,1c.17.39.17.48.34.84a2.48,2.48,0,0,0,.51.68l.93.39a4.34,4.34,0,0,1,1.66.51c.54.4,1.3,1.13,1.3,1.13a1.2,1.2,0,0,0,.42.34,4.47,4.47,0,0,0,.87.25l.82.17,1,.62.53,1c.17.31.17.11.17.78s0,.93,0,1.61.14.54-.14,1.16-.36.84-.76,1a2.32,2.32,0,0,1-1.44.31c-.59-.09-1.07-.14-1.07-.14l-1-.17c-.23,0-1,.2-1.07.53s-.26.43,0,.77.19.39.62.5a4.39,4.39,0,0,0,.84.17c.26,0,.62-.2.9.17s.29.45.57.76.28.65.65.68.53,0,.73-.26.36-.28.25-.7-.22-.82-.22-.82-.23,0,.42-.31a5.35,5.35,0,0,0,1.07-.65c.56-.36,1-.16,1.35-1.09a5,5,0,0,0,.43-1.3l.16-1.3s-.11-.28-.33-.7-.31-.45-.29-.59-.62-.2.26-.2.67-.17,1,.08a4,4,0,0,0,.62.37,2.5,2.5,0,0,0,1,.34c.45,0,1.15.17,1.29,0s.2-.26.17-.37a2,2,0,0,0-.62-.65c-.17-.05.28.14-.65-.31s-1.46-.73-1.46-.73.11.06-.71-.23l-1.55-.53a12.88,12.88,0,0,1-1.24-.79c-.25-.23-1-.73-1.41-1a7.05,7.05,0,0,1-.84-.67,8.16,8.16,0,0,1-.82-1l-.31-.45-.82-.93-.53-.59s-.2,0-.48-.45a5.74,5.74,0,0,1-.45-1l.17-.42-.12-.73-.05-.9,0-.85.79-.53.84-.09a6.29,6.29,0,0,1,.71.51c.17.17.82.51,1.1.76a9.87,9.87,0,0,1,.93.65,5.73,5.73,0,0,1,1,.93c.37.48.65.7.85,1s.54.43.76.79a4.91,4.91,0,0,1,.51.93,3.15,3.15,0,0,0,.42.74,4.86,4.86,0,0,1,.9.08c.31.09.82.14,1.07.25s.6,0,1.08.31.84.23,1,.65a12.67,12.67,0,0,1,.2,2c0,.09.06.34.11.71s0,.67.06,1,0,.31.11.53.09.31.23.45,0,.2.31.17a1.37,1.37,0,0,0,.48-.17s.16-.05.22.23a2.1,2.1,0,0,1,0,.62c0,.31-.06.42-.06.73s-.28.23,0,.42a2.38,2.38,0,0,0,.65.29c.08,0-.11-.14.39.08s.6,0,1.16.59.82.59,1,1a5.38,5.38,0,0,1,.39,1,7.2,7.2,0,0,1-.11,1.32c0,.34-.06.93-.06.93a2,2,0,0,0,.09.76c.11.2.19.28.53.34a6.06,6.06,0,0,0,1.33-.14l.31-.34.59-.67.14-.48.08-1.1-.39-.54s-.34-.34-.54-.59-.56-.87-.56-.87l.11-1s0-.36,0-.87a13.28,13.28,0,0,0-.14-1.64c0-.08-.31-.28-.17-.5a2.33,2.33,0,0,1,.7-.51,2.79,2.79,0,0,1,.91,0,2.22,2.22,0,0,0,.9.32c.59.08,1.35.16,1.35.16s.71.12.9,0a2.39,2.39,0,0,0,.34-.29s-.08-.33,0-.45.2-.25.73-.25.93,0,1.07.11-.08.45-.14.65-.31.34-.08.68a2.28,2.28,0,0,0,.62.65c.14.08.73.36.82.53s.53-.11.08.82a3.28,3.28,0,0,0-.34,1.72l.42.34c.12.08.34,0,.48,0s.29-.31.43,0a1.66,1.66,0,0,1,.19,1c0,.42-.14.59-.14.85s-.28.16.09.42a1.56,1.56,0,0,0,.67.28l.43-.11.62-.14.28.45a4.22,4.22,0,0,0,.31.45l.51.17s-.29,0,.53,0,.88,0,1,.11a3.26,3.26,0,0,1,.34.68c.08.25-.17.36.25.48s.48-.06.9-.17a1.07,1.07,0,0,0,.65-.37,39,39,0,0,1,4-.05s-.07-.06.68-.08,2.12,0,2.65,0l1.93,0,1.49,0,.26.11.17.58,0,1,.12,1.18-.1,1a4.53,4.53,0,0,0-.13.94c0,.43-.06,1.18-.06,1.18l0,.74-.07.28a1.08,1.08,0,0,1-.38.37,3,3,0,0,1-.54.14.37.37,0,0,0-.36.16,1,1,0,0,0-.19.74,1.6,1.6,0,0,0,.1.69,1.57,1.57,0,0,1,.2.7,12.18,12.18,0,0,1,0,1.46l-.17,1.3s0,1.15,0,1.24,0,.32,0,.53,0,.43,0,.43l.08,1.33a2.19,2.19,0,0,1,0,.3c0,.17,0,.42-.06.68a7.66,7.66,0,0,1-.51,1.26.6.6,0,0,0,.08.79,6.29,6.29,0,0,0,.77.69c.17.13.62.4.62.4s.39-.45.71.3a3.21,3.21,0,0,1,.32,1.05s-.07.3-.15.54a4,4,0,0,0-.09.68,3.33,3.33,0,0,0,.36.85,2.16,2.16,0,0,0,.58.35,1.41,1.41,0,0,1,.47.25,5.7,5.7,0,0,0,.88.49l.51.35a.26.26,0,0,1,.3.19,2.5,2.5,0,0,1,.13.75v.53c0,.19,0,.43,0,.43s-.09.19.19.25.56.24.56.48a2.16,2.16,0,0,1-.21.68,1.12,1.12,0,0,0-.13.55,1,1,0,0,0,.34.71c.11.09.47,0,.47,0s.32-.28.25.3-.29.75-.15,1.16a1.42,1.42,0,0,0,.56.85,7.32,7.32,0,0,1,.77.51,1.87,1.87,0,0,1,.51.47c.18.26.09.28.39.52a4.08,4.08,0,0,0,.88.45c.25.13.46-.34.91.51a10.16,10.16,0,0,1,.73,2.09l.11.39a.82.82,0,0,1,.17.28,2.27,2.27,0,0,0,.28.45l.17.51a3.56,3.56,0,0,0,.34.62l.39.56a6.26,6.26,0,0,1,.74.79c.22.34.34.29.5.57a1.84,1.84,0,0,1,.29.79,4.36,4.36,0,0,1,.28,1.63,40.24,40.24,0,0,1-.28,4.17s-.06.28.5.51a3.75,3.75,0,0,0,1.41.34,13.68,13.68,0,0,0,1.52,0l1.13-.28,1-.4s.34-.11.39-.28,0-.34.23-.39a4.64,4.64,0,0,1,.79-.06,7.83,7.83,0,0,0,.79.11,1.94,1.94,0,0,0,1-.22l.28-.51s.45-.4.68-.28a2.13,2.13,0,0,1,.45.34H410l1.18-.68s.22,0,.22-.45-.22-.74,0-.9a8.46,8.46,0,0,1,.79-.46s.45-.22.68,0,0,.4.39.29,1.08-1.3,1.08-1.3l1.24-1.13a3.47,3.47,0,0,1,.95-.17,1.34,1.34,0,0,0,.85-.45l.17-.5a1.2,1.2,0,0,1,.68-.17,1.05,1.05,0,0,1,.5.28l.74.11a.37.37,0,0,0,.56,0,1.72,1.72,0,0,0,.45-.51s-.23.23.11-.45.45-1,.45-1a2.49,2.49,0,0,1,.34-.5c.17-.17.73-.57.73-.57l.74-.67.28-.28c.22-.23.51-.62.51-.62a2.42,2.42,0,0,0,.22-.29,6.73,6.73,0,0,1,.57-.62,1,1,0,0,1,.28-.33l.17-.12.28-.05a2.71,2.71,0,0,1,.51-.06l.56.11.7-.17a.62.62,0,0,0,.2-.36,7.53,7.53,0,0,0,.09-1.1,9.66,9.66,0,0,0-.23-1l-.25-.68s-.51-.36.22-.5,1.05-.14,1.24-.17.48.11.65-.11.56-.91.56-.91.68-.33-.05-.59a7.7,7.7,0,0,1-1.3-.59,2.66,2.66,0,0,0-.93-.34c-.34,0-.65-.05-.76.06s-1.24-.31-1.24-.31l.06-.34s.17-.06.14-.39a.92.92,0,0,0-.74-.82l-.95-.14s-.2,1.07-.26-.37a9,9,0,0,0-.14-1.89,2.78,2.78,0,0,0-.42-.62s-.09,0-.31.06a2.86,2.86,0,0,0-.59.51l-.76.84-.6,1a3.32,3.32,0,0,1-.64.42,3.78,3.78,0,0,1-1.44.4c-.56.05-1.27.05-1.27.05l-.84-.11a4.14,4.14,0,0,0-1.05.2c-.25.14-.25.28-.76.14s-.73-.28-1.18-.37-2.17-1.27-1.72-2.39a2.59,2.59,0,0,0-.09-2.09l-1.41-1.1a1.53,1.53,0,0,1-1.18-.82,7.57,7.57,0,0,0-.7-1.15l-.48-.56-.65-.68-.62-.51-.56-.25s-.34-.2-.34-.42-.12-.12,0-.51A2.83,2.83,0,0,1,406,272c.14-.23.4-.57.4-.57l.42-.36.51-.17s.28-.23.53-.4.48-.39.74-.28a4.94,4.94,0,0,1,.56.31l.85-.08.73-.17s.28-.23.7.17a6.63,6.63,0,0,1,1,.93,5.35,5.35,0,0,0,.56.7,1.82,1.82,0,0,1,.57.7,2.16,2.16,0,0,1,.11,1,4.71,4.71,0,0,0,.11,1.16s-.25.22.79,1.15a6.18,6.18,0,0,0,1.58,1.13l1.07.4,1.89.42a7.55,7.55,0,0,0,1.21.17,1.92,1.92,0,0,0,1.16-.26,2,2,0,0,1,.65-.28,3.62,3.62,0,0,1,1.15-.11,6,6,0,0,1,1.27.22c.14.09.28.65.42.91a1.61,1.61,0,0,0,.45.56c.15.08.37.08.51.25s.09.4.57.54.42-.06,1.69.11a22.51,22.51,0,0,0,3.15.09l.88-.09a1,1,0,0,1,.76.31,1.09,1.09,0,0,0,1,.54c.5,0,1.46,0,1.46,0l1.44-.23a3.11,3.11,0,0,1,.7-.51,1.37,1.37,0,0,1,.82-.19c.51,0,1.38.05,1.95.05s1.43-.08,1.86-.11l1.43-.08a.93.93,0,0,1,0,.76c-.17.48-.28.42-.28.73s-.14.42.4.65.93.25,1.07.48a4.53,4.53,0,0,1,.42.56c.14.28-.23.4.42.79s.79.31,1.16.54a3.84,3.84,0,0,1,.76.59c.28.25,1.44.22,1.44.22s.59-.14.73.23.31.22.08.82a3,3,0,0,1-.87,1.35c-.34.25-1-.11-.7.59s.33.93.95,1,.76.14,1.19-.17a3.3,3.3,0,0,1,.87-.45l2.42-.11.57-.2s.08-.33.25-.14.54.4.57.9a1.21,1.21,0,0,1-.37,1.19,5.32,5.32,0,0,0-.76,1.8,5.44,5.44,0,0,0-.14,1,1.49,1.49,0,0,0,.25,1,3.25,3.25,0,0,0,.59.67s.62-.2.76.37a6.88,6.88,0,0,1-.33,2.17c-.06.25-.54,0-.37.59a2.93,2.93,0,0,0,.76,1.18,3.71,3.71,0,0,0,.56.51c.14.09.57.48.57.48a2.13,2.13,0,0,1-.17.54c-.09.08-.2.05-.23.25s-.05.28.17.37a1,1,0,0,0,.48,0,.3.3,0,0,1,.28-.08c.2,0,.29-.11.37.14s.14.56.14.56a1,1,0,0,1,0,.4c0,.2-.19.14-.28.48a2.25,2.25,0,0,0,.09.9l.25.51.2.25a1,1,0,0,1,.31.09.91.91,0,0,1,.25.42,1.29,1.29,0,0,1,0,.42,4.4,4.4,0,0,0,.08.71s.17.39.28.7a1.65,1.65,0,0,0,.23.51c.11.14.14.11.25.25s.29.09.23.48a4,4,0,0,0-.09.85,1,1,0,0,0,.2.39l.31.31.57.31s.28.25.31.42,0,.31,0,.51a1.26,1.26,0,0,0,.12.48,3,3,0,0,0,.25.59,2.18,2.18,0,0,1,.17.82c0,.28-.71.37-.06.65s1,.5,1.38.11a17.73,17.73,0,0,0,1.36-1.92,2.37,2.37,0,0,0,.42-.28c.2-.17.42-.25.62-.45l.65-.62s.39-.39.62-.65l.53-.62s.62-.53.71-.65a5.46,5.46,0,0,0,.28-.64l.11-1.58a12.86,12.86,0,0,1-.28-1.5c-.06-.62-.14-1.1-.14-1.6a13.35,13.35,0,0,1,0-1.55c.06-.57-.09-.76.14-1a6.67,6.67,0,0,1,.62-.45,1.14,1.14,0,0,0,.59-.34c.26-.28.28-.34.68-.73s.39-.54.68-.82,1.8-1.66,1.8-1.66.25-.26.48-.54.67-.62.79-.76a.46.46,0,0,1,.42-.23c.23,0,.48.09.65-.05s.53-.37.53-.37l.57-.53a6.11,6.11,0,0,1,.48-.76c.28-.4,1.57-2,1.57-2l.82-1.16a3.84,3.84,0,0,1,.79-.9c.68-.65.82-.76,1.13-1.1a3.49,3.49,0,0,1,.93-.73c.31-.17,1.18-.51,1.18-.51a8.93,8.93,0,0,0,1.41-.31,5.73,5.73,0,0,0,1.13-.51,7.39,7.39,0,0,1,1.8-.73h.45l3.16-1.92-3.59-39.79L480.1,223l-16.54-39.38Z"/><ellipse id="Contorno" class="cls-7" cx="287.71" cy="287.5" rx="202.83" ry="203.15"/><circle class="cls-8" cx="420.91" cy="512.37" r="12.14"/><circle class="cls-8" cx="479.05" cy="463.18" r="12.78"/><circle class="cls-8" cx="521.21" cy="389.71" r="12.78"/><circle class="cls-8" cx="538.46" cy="316.25" r="12.78"/><circle class="cls-8" cx="533.99" cy="230" r="12.78"/><circle class="cls-8" cx="505.24" cy="152.7" r="12.78"/><circle class="cls-8" cx="456.05" cy="89.46" r="12.78"/><circle class="cls-8" cx="385.14" cy="46.02" r="12.78"/><circle class="cls-8" cx="288.03" cy="24.94" r="12.78"/><circle class="cls-8" cx="186.46" cy="46.02" r="12.78"/><circle class="cls-8" cx="116.18" cy="89.46" r="12.78"/><circle class="cls-8" cx="66.99" cy="152.7" r="12.78"/><circle class="cls-8" cx="37.61" cy="230" r="12.78"/><circle class="cls-8" cx="33.13" cy="316.25" r="12.78"/><circle class="cls-8" cx="50.38" cy="389.71" r="12.78"/><circle class="cls-8" cx="92.55" cy="463.18" r="12.78"/><circle class="cls-8" cx="150.68" cy="512.37" r="12.78"/><text class="cls-9" transform="translate(187.4 551.41)">RUIDEA</text><text class="cls-10" transform="translate(81.24 345.07) rotate(-104.64)">R</text><text class="cls-10" transform="translate(78.6 334.91) rotate(-102)">E</text><text class="cls-10" transform="translate(76.63 325.85) rotate(-99.17)">G</text><text class="cls-10" transform="translate(74.82 314.18) rotate(-96.95)">I</text><text class="cls-10" transform="translate(74.22 309.58) rotate(-95.06)">S</text><text class="cls-10" transform="translate(73.4 300.27) rotate(-92.59)">T</text><text class="cls-10" transform="translate(72.97 291.47) rotate(-89.98)">R</text><text class="cls-10" transform="matrix(0.05, -1, 1, 0.05, 72.95, 280.97)">O</text><text class="cls-10" transform="translate(73.72 268.41) rotate(-84.54)"> </text><text class="cls-10" transform="matrix(0.13, -0.99, 0.99, 0.13, 74.08, 263.86)">Ú</text><text class="cls-10" transform="matrix(0.19, -0.98, 0.98, 0.19, 75.6, 252.45)">N</text><text class="cls-10" transform="translate(78 240.31) rotate(-76.86)">I</text><text class="cls-10" transform="translate(79 235.79) rotate(-74.78)">C</text><text class="cls-10" transform="matrix(0.31, -0.95, 0.95, 0.31, 81.8, 225.38)">O</text><text class="cls-10" transform="translate(85.83 213.47) rotate(-69.36)"> </text><text class="cls-10" transform="translate(87.45 209.17) rotate(-68.13)">I</text><text class="cls-10" transform="translate(89.12 204.87) rotate(-66.11)">B</text><text class="cls-10" transform="translate(93.37 195.31) rotate(-63.47)">E</text><text class="cls-10" transform="translate(97.49 187.01) rotate(-60.83)">R</text><text class="cls-10" transform="matrix(0.53, -0.85, 0.85, 0.53, 102.59, 177.81)">O</text><text class="cls-10" transform="matrix(0.58, -0.82, 0.82, 0.58, 109.29, 167.22)">A</text><text class="cls-10" transform="translate(115.48 158.39) rotate(-51.19)">M</text><text class="cls-10" transform="matrix(0.67, -0.74, 0.74, 0.67, 124.85, 146.86)">E</text><text class="cls-10" transform="matrix(0.7, -0.71, 0.71, 0.7, 131.06, 139.95)">R</text><text class="cls-10" transform="translate(138.5 132.52) rotate(-43.24)">I</text><text class="cls-10" transform="translate(141.83 129.31) rotate(-41.15)">C</text><text class="cls-10" transform="matrix(0.79, -0.62, 0.62, 0.79, 149.95, 122.21)">A</text><text class="cls-10" transform="matrix(0.82, -0.57, 0.57, 0.82, 158.39, 115.52)">N</text><text class="cls-10" transform="translate(168.48 108.42) rotate(-31.73)">O</text><text class="cls-10" transform="translate(179.23 101.87) rotate(-29.41)"> </text><text class="cls-10" transform="translate(183.15 99.57) rotate(-27.19)">D</text><text class="cls-10" transform="matrix(0.91, -0.41, 0.41, 0.91, 193.73, 94.17)">E</text><text class="cls-10" transform="translate(202.23 90.37) rotate(-22.49)"> </text><text class="cls-10" transform="translate(206.44 88.58) rotate(-20.58)">P</text><text class="cls-10" transform="matrix(0.95, -0.3, 0.3, 0.95, 215.48, 85.11)">E</text><text class="cls-10" transform="translate(224.36 82.26) rotate(-15.46)">R</text><text class="cls-10" transform="translate(234.5 79.47) rotate(-12.81)">S</text><text class="cls-10" transform="translate(243.6 77.36) rotate(-9.87)">O</text><text class="cls-10" transform="matrix(0.99, -0.11, 0.11, 0.99, 255.96, 75.2)">N</text><text class="cls-10" transform="translate(268.23 73.82) rotate(-3.38)">A</text><text class="cls-10" transform="translate(278.99 73.2) rotate(-0.66)">S</text><text class="cls-10" transform="matrix(1, 0.02, -0.02, 1, 288.39, 73.13)"> </text><text class="cls-10" transform="matrix(1, 0.06, -0.06, 1, 292.94, 73.17)">C</text><text class="cls-10" transform="matrix(0.99, 0.11, -0.11, 0.99, 303.72, 73.77)">O</text><text class="cls-10" transform="matrix(0.99, 0.17, -0.17, 0.99, 316.18, 75.18)">N</text><text class="cls-10" transform="translate(328.35 77.37) rotate(12.11)"> </text><text class="cls-10" transform="translate(332.82 78.25) rotate(14.32)">D</text><text class="cls-10" transform="translate(344.35 81.27) rotate(16.54)">I</text><text class="cls-10" transform="translate(348.76 82.54) rotate(18.31)">F</text><text class="cls-10" transform="translate(356.97 85.29) rotate(20.09)">I</text><text class="cls-10" transform="translate(361.31 86.82) rotate(22.16)">C</text><text class="cls-10" transform="translate(371.29 90.87) rotate(25.14)">U</text><text class="cls-10" transform="matrix(0.88, 0.47, -0.47, 0.88, 381.76, 95.82)">L</text><text class="cls-10" transform="matrix(0.86, 0.5, -0.5, 0.86, 389.31, 99.79)">T</text><text class="cls-10" transform="translate(396.96 104.21) rotate(32.77)">A</text><text class="cls-10" transform="translate(406.04 110.03) rotate(35.8)">D</text><text class="cls-10" transform="matrix(0.78, 0.62, -0.62, 0.78, 415.66, 117.01)">E</text><text class="cls-10" transform="translate(422.91 122.79) rotate(41.14)">S</text><text class="cls-10" transform="matrix(0.73, 0.68, -0.68, 0.73, 429.97, 129.02)"> </text><text class="cls-10" transform="translate(433.33 132.1) rotate(44.9)">E</text><text class="cls-10" transform="translate(439.91 138.65) rotate(47.42)">S</text><text class="cls-10" transform="translate(446.24 145.53) rotate(49.99)">P</text><text class="cls-10" transform="translate(452.48 152.97) rotate(52.56)">E</text><text class="cls-10" transform="translate(458.15 160.34) rotate(55.29)">C</text><text class="cls-10" transform="translate(464.27 169.26) rotate(57.38)">Í</text><text class="cls-10" transform="matrix(0.51, 0.86, -0.86, 0.51, 466.78, 173.13)">F</text><text class="cls-10" transform="translate(471.19 180.57) rotate(60.97)">I</text><text class="cls-10" transform="translate(473.47 184.57) rotate(63.05)">C</text><text class="cls-10" transform="matrix(0.41, 0.91, -0.91, 0.41, 478.37, 194.18)">A</text><text class="cls-10" transform="translate(482.75 204.04) rotate(68.63)">S</text><text class="cls-10" transform="translate(486.14 212.81) rotate(70.49)"> </text><text class="cls-10" transform="translate(487.73 217.05) rotate(72.72)">D</text><text class="cls-10" transform="matrix(0.25, 0.97, -0.97, 0.25, 491.24, 228.43)">E</text><text class="cls-10" transform="matrix(0.21, 0.98, -0.98, 0.21, 493.57, 237.43)">L</text><text class="cls-10" transform="translate(495.35 245.81) rotate(79.61)"> </text><text class="cls-10" transform="translate(496.22 250.28) rotate(81.68)">A</text><text class="cls-10" transform="translate(497.78 260.96) rotate(84.45)">P</text><text class="cls-10" transform="translate(498.73 270.64) rotate(87.19)">R</text><text class="cls-10" transform="translate(499.23 281.15) rotate(89.88)">E</text><text class="cls-10" transform="translate(499.3 290.41) rotate(92.8)">N</text><text class="cls-10" transform="translate(498.69 302.72) rotate(96.08)">D</text><text class="cls-10" transform="matrix(-0.14, 0.99, -0.99, -0.14, 497.36, 314.55)">I</text><text class="cls-10" transform="translate(496.73 319.12) rotate(100.16)">Z</text><text class="cls-10" transform="translate(495.14 328.12) rotate(102.85)">A</text><text class="cls-10" transform="matrix(-0.26, 0.97, -0.97, -0.26, 492.69, 338.66)">J</text><text class="cls-10" transform="matrix(-0.3, 0.96, -0.96, -0.3, 491.15, 344.49)">E</text></g></g></svg>