<svg width="30" height="30" viewBox="0 0 30 30" fill="none" xmlns="http://www.w3.org/2000/svg">
<path d="M28.751 19.0386C28.0592 19.0386 27.502 19.5867 27.502 20.2672V27.5368H2.49796V20.2672C2.49796 19.5867 1.94082 19.0386 1.24898 19.0386C0.557143 19.0386 0 19.5867 0 20.2672V28.7715C0 29.452 0.557143 30.0001 1.24898 30.0001H28.751C29.4429 30.0001 30 29.452 30 28.7715V20.2672C30 19.5867 29.4429 19.0386 28.751 19.0386Z" fill="#1F1F1F"/>
<path d="M7.92039 9.71947L13.4471 4.26067V20.0991C13.4471 20.7899 14.0097 21.3462 14.7083 21.3462C15.4068 21.3462 15.9694 20.7899 15.9694 20.0991V4.26067L21.4961 9.71947C22.2565 10.4163 23.0355 9.96398 23.2827 9.71947C23.7773 9.23044 23.7773 8.44188 23.2827 7.95285L15.5985 0.366772C15.1039 -0.122257 14.3064 -0.122257 13.8119 0.366772L6.13996 7.95285C5.6454 8.44188 5.6454 9.23044 6.13996 9.71947C6.62835 10.2085 7.43201 10.2085 7.92039 9.71947Z" fill="#1F1F1F"/>
</svg>
