<svg width="1920" height="220" viewBox="0 0 1920 220" fill="none" xmlns="http://www.w3.org/2000/svg">
<path d="M1920 183.344L1856 146.751C1792 110.159 1664 36.9733 1536 18.677C1408 0.380737 1280 36.9733 1152 67.5053C1024 97.5798 896 122.737 768 116.219C640 110.159 512 73.5659 384 49.209C256 24.3946 128 12.9594 64 6.44139L0 0.380737V219.936H64C128 219.936 256 219.936 384 219.936C512 219.936 640 219.936 768 219.936C896 219.936 1024 219.936 1152 219.936C1280 219.936 1408 219.936 1536 219.936C1664 219.936 1792 219.936 1856 219.936H1920V183.344Z" fill="#8FD5DD"/>
</svg>
