<?xml version="1.0" encoding="UTF-8"?>
<svg xmlns="http://www.w3.org/2000/svg" xmlns:xlink="http://www.w3.org/1999/xlink" width="256pt" height="256pt" viewBox="0 0 256 256" version="1.1">
<g id="surface10260282">
<path style=" stroke:none;fill-rule:nonzero;fill:rgb(100%,100%,100%);fill-opacity:1;" d="M 218 218 C 218 229 209 238 198 238 L 38 238 C 27 238 18 229 18 218 L 18 108 C 18 97 27 88 38 88 L 198 88 C 209 88 218 97 218 108 Z M 218 218 "/>
<path style=" stroke:none;fill-rule:nonzero;fill:rgb(26.666667%,29.411765%,32.941176%);fill-opacity:1;" d="M 198 244 L 38 244 C 23.601562 244 12 232.398438 12 218 L 12 108 C 12 93.601562 23.601562 82 38 82 L 144 82 C 147.398438 82 150 84.601562 150 88 C 150 91.398438 147.398438 94 144 94 L 38 94 C 30.199219 94 24 100.199219 24 108 L 24 218 C 24 225.800781 30.199219 232 38 232 L 198 232 C 205.800781 232 212 225.800781 212 218 L 212 154 C 212 150.601562 214.601562 148 218 148 C 221.398438 148 224 150.601562 224 154 L 224 218 C 224 232.398438 212.398438 244 198 244 Z M 198 244 "/>
<path style=" stroke:none;fill-rule:nonzero;fill:rgb(81.568627%,83.137255%,84.705882%);fill-opacity:1;" d="M 148 214 L 58 214 C 54.601562 214 52 211.398438 52 208 C 52 204.601562 54.601562 202 58 202 L 148 202 C 151.398438 202 154 204.601562 154 208 C 154 211.398438 151.398438 214 148 214 Z M 104 184 L 58 184 C 54.601562 184 52 181.398438 52 178 C 52 174.601562 54.601562 172 58 172 L 104 172 C 107.398438 172 110 174.601562 110 178 C 110 181.398438 107.398438 184 104 184 Z M 144 184 C 143.601562 184 143.199219 184 142.800781 183.800781 C 142.398438 183.800781 142 183.601562 141.601562 183.398438 C 141.199219 183.199219 141 183 140.601562 182.800781 C 140.199219 182.601562 140 182.398438 139.601562 182 C 139.398438 181.800781 139 181.398438 138.800781 181.199219 C 138.601562 180.800781 138.398438 180.601562 138.199219 180.199219 C 138 179.800781 138 179.398438 137.800781 179 C 137.800781 178.601562 137.601562 178.199219 137.601562 177.800781 C 137.601562 177.398438 137.601562 177 137.800781 176.601562 C 137.800781 176.199219 138 175.800781 138.199219 175.398438 C 138.398438 175 138.601562 174.800781 138.800781 174.398438 C 139 174 139.199219 173.800781 139.601562 173.601562 C 140 173.398438 140.199219 173 140.601562 172.800781 C 141 172.601562 141.199219 172.398438 141.601562 172.199219 C 142 172 142.398438 172 142.800781 171.800781 C 143.601562 171.601562 144.398438 171.601562 145.199219 171.800781 C 145.601562 171.800781 146 172 146.398438 172.199219 C 146.800781 172.398438 147.199219 172.601562 147.398438 172.800781 C 147.800781 173 148 173.199219 148.398438 173.601562 C 148.601562 173.800781 149 174.199219 149.199219 174.398438 C 149.398438 174.800781 149.601562 175 149.800781 175.398438 C 150 175.800781 150 176.199219 150.199219 176.601562 C 150.199219 177 150.398438 177.398438 150.398438 177.800781 C 150.398438 178.199219 150.398438 178.601562 150.199219 179 C 150.199219 179.398438 150 179.800781 149.800781 180.199219 C 149.601562 180.601562 149.398438 181 149.199219 181.199219 C 149 181.601562 148.800781 181.800781 148.398438 182 C 148.199219 182.199219 147.800781 182.601562 147.398438 182.800781 C 147 183 146.800781 183.199219 146.398438 183.398438 C 146 183.601562 145.601562 183.601562 145.199219 183.800781 C 144.800781 184 144.398438 184 144 184 Z M 144 184 "/>
<path style=" stroke:none;fill-rule:nonzero;fill:rgb(26.666667%,29.411765%,32.941176%);fill-opacity:1;" d="M 74 156 C 59.601562 156 48 144.398438 48 130 C 48 115.601562 59.601562 104 74 104 C 88.398438 104 100 115.601562 100 130 C 100 144.398438 88.398438 156 74 156 Z M 74 116 C 66.199219 116 60 122.199219 60 130 C 60 137.800781 66.199219 144 74 144 C 81.800781 144 88 137.800781 88 130 C 88 122.199219 81.800781 116 74 116 Z M 74 116 "/>
<path style=" stroke:none;fill-rule:nonzero;fill:rgb(94.509804%,76.862745%,5.882353%);fill-opacity:1;" d="M 253 118.800781 L 210.601562 48.199219 C 208.800781 45.199219 205.601562 43.398438 202 43.398438 C 198.398438 43.398438 195.199219 45.199219 193.398438 48.199219 L 151 118.800781 C 149.199219 122 149 125.601562 150.800781 128.800781 C 152.601562 132 155.800781 133.800781 159.601562 133.800781 L 244.199219 133.800781 C 247.800781 133.800781 251.199219 132 253 128.800781 C 254.800781 125.800781 254.800781 122 253 118.800781 Z M 253 118.800781 "/>
<path style=" stroke:none;fill-rule:nonzero;fill:rgb(100%,100%,100%);fill-opacity:1;" d="M 202 100 C 198.601562 100 196 97.398438 196 94 L 196 74 C 196 70.601562 198.601562 68 202 68 C 205.398438 68 208 70.601562 208 74 L 208 94 C 208 97.398438 205.398438 100 202 100 Z M 202 120 C 200.398438 120 198.800781 119.398438 197.800781 118.199219 C 197.601562 118 197.199219 117.601562 197 117.199219 C 196.800781 116.800781 196.601562 116.601562 196.398438 116.199219 C 196.199219 115.800781 196.199219 115.398438 196 115 C 196 114.601562 195.800781 114.199219 195.800781 113.800781 C 195.800781 112.199219 196.398438 110.601562 197.601562 109.601562 C 199.800781 107.398438 203.800781 107.398438 206 109.601562 C 207.199219 110.800781 207.800781 112.199219 207.800781 113.800781 C 207.800781 114.199219 207.800781 114.601562 207.601562 115 C 207.601562 115.398438 207.398438 115.800781 207.199219 116.199219 C 207 116.601562 206.800781 117 206.601562 117.199219 C 206.398438 117.601562 206.199219 117.800781 205.800781 118.199219 C 205.199219 119.398438 203.601562 120 202 120 Z M 202 120 "/>
</g>
</svg>
