<svg width="601" height="675" viewBox="0 0 601 675" fill="none" xmlns="http://www.w3.org/2000/svg">
<path d="M601 673H0V675H601V673Z" fill="#3F3D56"/>
<path d="M396.924 152.995H394.654V39.0347C394.654 28.6939 390.546 18.7767 383.234 11.4647C375.922 4.15275 366.005 0.0449219 355.664 0.0449219H101.874C91.5335 0.0449219 81.6162 4.15275 74.3042 11.4647C66.9921 18.7767 62.8843 28.6939 62.8842 39.0347V88.9648H62.0242C61.4168 88.9649 60.8344 89.2061 60.4049 89.6356C59.9755 90.065 59.7342 90.6475 59.7342 91.2548V113.585C59.7342 114.192 59.9755 114.775 60.4049 115.204C60.8344 115.634 61.4168 115.875 62.0242 115.875H62.8842V138.225H61.8242C61.5235 138.225 61.2257 138.284 60.9478 138.399C60.67 138.514 60.4175 138.683 60.2048 138.896C59.9922 139.108 59.8235 139.361 59.7084 139.639C59.5934 139.916 59.5341 140.214 59.5342 140.515V182.775C59.5342 183.382 59.7755 183.965 60.2049 184.394C60.6344 184.823 61.2168 185.065 61.8242 185.065H62.8842V201.455H61.9242C61.6235 201.455 61.3257 201.514 61.0479 201.629C60.7701 201.744 60.5176 201.913 60.305 202.125C60.0923 202.338 59.9236 202.59 59.8085 202.868C59.6934 203.146 59.6342 203.444 59.6342 203.744V246.405C59.6342 247.012 59.8755 247.595 60.3049 248.024C60.7344 248.454 61.3169 248.695 61.9242 248.695H62.8842V635.325C62.8842 645.666 66.992 655.583 74.304 662.895C81.6161 670.207 91.5334 674.315 101.874 674.315H355.664C366.005 674.315 375.922 670.207 383.234 662.895C390.546 655.583 394.654 645.666 394.654 635.325V234.725H396.924C397.532 234.725 398.114 234.484 398.543 234.054C398.973 233.625 399.214 233.042 399.214 232.435V155.285C399.214 154.677 398.973 154.095 398.543 153.665C398.114 153.236 397.532 152.995 396.924 152.995Z" fill="#3F3D56"/>
<path d="M239.224 30.084H200.634C199.475 30.0828 198.365 29.6221 197.545 28.8031C196.726 27.984 196.265 26.8733 196.264 25.7148V24.0439C196.265 22.8855 196.726 21.7748 197.545 20.9557C198.365 20.1367 199.475 19.676 200.634 19.6748H239.224C240.382 19.676 241.493 20.1367 242.312 20.9557C243.131 21.7748 243.592 22.8854 243.594 24.0439V25.7148C243.592 26.8733 243.131 27.984 242.312 28.803C241.493 29.6221 240.382 30.0828 239.224 30.084V30.084Z" fill="white"/>
<path d="M255.434 30.2249C258.383 30.2249 260.774 27.8341 260.774 24.8849C260.774 21.9357 258.383 19.5449 255.434 19.5449C252.485 19.5449 250.094 21.9357 250.094 24.8849C250.094 27.8341 252.485 30.2249 255.434 30.2249Z" fill="white"/>
<path d="M347.814 17.6045H309.814V22.1745C309.814 27.9297 307.528 33.4492 303.458 37.5187C299.389 41.5882 293.869 43.8745 288.114 43.8745H167.054C164.206 43.8758 161.385 43.3161 158.753 42.2273C156.121 41.1385 153.729 39.5419 151.714 37.5287C149.699 35.5155 148.1 33.1252 147.009 30.4941C145.918 27.8631 145.355 25.0429 145.354 22.1945V17.6045H109.724C102.736 17.6045 96.0333 20.3806 91.0918 25.3222C86.1502 30.2638 83.374 36.966 83.374 43.9545V43.9545V630.395C83.374 637.383 86.1502 644.085 91.0918 649.027C96.0333 653.968 102.736 656.745 109.724 656.745H347.814C354.8 656.745 361.5 653.969 366.439 649.03C371.379 644.09 374.154 637.39 374.154 630.404V43.9545C374.155 40.4955 373.475 37.0701 372.153 33.8738C370.83 30.6776 368.891 27.7732 366.446 25.3264C364.001 22.8795 361.098 20.9382 357.903 19.6133C354.708 18.2884 351.283 17.6058 347.824 17.6045H347.814Z" fill="white"/>
<path d="M279.764 585.584H177.764C170.47 585.584 163.475 582.687 158.318 577.529C153.161 572.372 150.264 565.377 150.264 558.084C150.264 550.791 153.161 543.796 158.318 538.639C163.475 533.481 170.47 530.584 177.764 530.584H279.764C287.058 530.584 294.052 533.481 299.21 538.639C304.367 543.796 307.264 550.791 307.264 558.084C307.264 565.377 304.367 572.372 299.21 577.529C294.052 582.687 287.058 585.584 279.764 585.584V585.584Z" fill="#41A1AC"/>
<path d="M319.764 359.694H137.764C135.244 359.694 132.828 358.693 131.046 356.912C129.265 355.13 128.264 352.714 128.264 350.194C128.264 347.675 129.265 345.258 131.046 343.477C132.828 341.695 135.244 340.694 137.764 340.694H319.764C322.284 340.694 324.7 341.695 326.482 343.477C328.263 345.258 329.264 347.675 329.264 350.194C329.264 352.714 328.263 355.13 326.482 356.912C324.7 358.693 322.284 359.694 319.764 359.694V359.694Z" fill="#E6E6E6"/>
<path d="M319.764 387.694H137.764C135.244 387.694 132.828 386.693 131.046 384.912C129.265 383.13 128.264 380.714 128.264 378.194C128.264 375.675 129.265 373.258 131.046 371.477C132.828 369.695 135.244 368.694 137.764 368.694H319.764C322.284 368.694 324.7 369.695 326.482 371.477C328.263 373.258 329.264 375.675 329.264 378.194C329.264 380.714 328.263 383.13 326.482 384.912C324.7 386.693 322.284 387.694 319.764 387.694V387.694Z" fill="#E6E6E6"/>
<path d="M319.764 415.694H137.764C135.244 415.694 132.828 414.693 131.046 412.912C129.265 411.13 128.264 408.714 128.264 406.194C128.264 403.675 129.265 401.258 131.046 399.477C132.828 397.695 135.244 396.694 137.764 396.694H319.764C322.284 396.694 324.7 397.695 326.482 399.477C328.263 401.258 329.264 403.675 329.264 406.194C329.264 408.714 328.263 411.13 326.482 412.912C324.7 414.693 322.284 415.694 319.764 415.694V415.694Z" fill="#E6E6E6"/>
<path d="M319.764 443.694H137.764C135.244 443.694 132.828 442.693 131.046 440.912C129.265 439.13 128.264 436.714 128.264 434.194C128.264 431.675 129.265 429.258 131.046 427.477C132.828 425.695 135.244 424.694 137.764 424.694H319.764C322.284 424.694 324.7 425.695 326.482 427.477C328.263 429.258 329.264 431.675 329.264 434.194C329.264 436.714 328.263 439.13 326.482 440.912C324.7 442.693 322.284 443.694 319.764 443.694V443.694Z" fill="#E6E6E6"/>
<path d="M195.764 471.694H137.764C135.244 471.694 132.828 470.693 131.046 468.912C129.265 467.13 128.264 464.714 128.264 462.194C128.264 459.675 129.265 457.258 131.046 455.477C132.828 453.695 135.244 452.694 137.764 452.694H195.764C198.284 452.694 200.7 453.695 202.482 455.477C204.263 457.258 205.264 459.675 205.264 462.194C205.264 464.714 204.263 467.13 202.482 468.912C200.7 470.693 198.284 471.694 195.764 471.694H195.764Z" fill="#E6E6E6"/>
<path d="M348.25 281.843H109.278C107.165 281.841 105.14 281.001 103.646 279.507C102.152 278.013 101.312 275.988 101.31 273.876V96.5137C101.312 94.4012 102.152 92.3759 103.646 90.8822C105.14 89.3884 107.165 88.5482 109.278 88.5459H348.25C350.362 88.5483 352.387 89.3885 353.881 90.8822C355.375 92.3759 356.215 94.4012 356.217 96.5137V273.876C356.215 275.988 355.375 278.013 353.881 279.507C352.387 281.001 350.362 281.841 348.25 281.843V281.843Z" fill="#E6E6E6"/>
<g opacity="0.1">
<path opacity="0.1" d="M390.577 231.215C390.577 229.842 390.577 228.462 390.577 227.075C390.522 228.144 390.522 229.216 390.577 230.285C390.567 230.595 390.577 230.905 390.577 231.215Z" fill="black"/>
</g>
<path d="M430.442 309.849C444.933 309.849 456.681 298.101 456.681 283.61C456.681 269.119 444.933 257.371 430.442 257.371C415.951 257.371 404.203 269.119 404.203 283.61C404.203 298.101 415.951 309.849 430.442 309.849Z" fill="#FFB8B8"/>
<path d="M498.684 496.376C499.708 495.438 500.514 494.288 501.045 493.005C501.577 491.722 501.82 490.338 501.759 488.951C501.697 487.564 501.332 486.207 500.69 484.976C500.047 483.746 499.143 482.671 498.04 481.827L494.462 450.047L474.537 455.486L484.238 484.089C482.944 486.036 482.409 488.39 482.734 490.705C483.06 493.02 484.223 495.135 486.004 496.649C487.785 498.164 490.059 498.972 492.396 498.922C494.733 498.872 496.971 497.966 498.684 496.376V496.376Z" fill="#FFB8B8"/>
<path d="M513.242 657.281L524.24 650.168L502.036 604.365L485.805 614.864L513.242 657.281Z" fill="#FFB8B8"/>
<path d="M552.054 646.661L517.491 669.017L508.853 655.663L530.562 641.622C532.25 640.53 534.136 639.781 536.114 639.419C538.091 639.056 540.121 639.086 542.086 639.508C544.052 639.929 545.916 640.734 547.57 641.876C549.225 643.017 550.639 644.474 551.731 646.162L552.054 646.661V646.661Z" fill="#2F2E41"/>
<path d="M415.851 661.936H428.948L435.181 611.418H415.851V661.936Z" fill="#FFB8B8"/>
<path d="M454.207 674.098H413.044V658.194H438.898C442.958 658.194 446.852 659.807 449.723 662.678C452.594 665.549 454.207 669.443 454.207 673.503V674.098V674.098Z" fill="#2F2E41"/>
<path d="M468.416 335.71C466.674 341.381 472.848 347.555 474.841 353.129C476.834 358.704 479.516 364.067 480.593 369.901C481.331 373.911 498.038 462.5 497.235 467.895C492.092 466.353 486.553 466.861 481.776 469.312C478.439 463.45 476.433 456.925 475.902 450.2C475.701 446.212 475.739 442.216 476.016 438.233C476.534 426.963 471.649 415.677 471.487 404.399C471.537 400.49 471.228 396.584 470.563 392.732C470.028 390.083 470.077 385.124 469.502 382.483C468.586 378.286 472.524 376.35 472.305 372.048L471.106 348.552C470.855 344.436 466.723 339.388 468.416 335.71Z" fill="#2F2E41"/>
<path d="M409.177 434.29C404.966 440.859 396.101 442.28 389.901 446.986C380.425 454.219 404.597 616.716 412.578 645.583C433.633 642.425 434.37 642.436 436.792 641.372C439.213 640.309 441.403 557.772 446.52 540.758C456.094 549.782 486.231 627.338 492.59 644.531C517.857 638.214 492.59 644.531 525.226 636.108C524.953 630.15 476.998 435.985 475.25 420.688C453.31 425.057 431.054 429.931 409.177 434.29Z" fill="#2F2E41"/>
<path d="M406.339 312.27C403.738 319.975 407.278 349.953 407.538 356.694C407.91 362.813 407.91 368.95 407.538 375.069C406.638 385.666 403.487 396.337 405.601 406.756C406.987 413.651 409.45 420.06 410.025 427.076C410.414 431.937 410.292 436.879 411.832 441.489C417.503 439.059 467.784 430.704 471.479 425.844C468.951 413.635 471.398 401.028 469.721 388.672C468.748 381.551 466.342 374.696 465.208 367.607C463.806 358.857 464.398 349.783 461.846 341.284C460.431 336.98 458.633 332.813 456.474 328.831C454.277 324.302 451.521 320.581 450.578 320.583C448.188 320.713 406.491 311.584 406.339 312.27Z" fill="#41A1AC"/>
<path d="M396.713 495.717C396.713 495.717 405.43 478.322 405.868 468.372C406.022 464.799 415.809 450.58 420.217 447.356C430.668 439.699 438.373 388.381 434.841 375.928C428.732 354.401 418.442 334.332 407.999 314.547C407.687 313.809 407.184 313.169 406.54 312.692C404.418 311.371 402.117 313.972 400.666 316.006C395.748 322.9 387.646 326.587 380.225 330.662C372.804 334.737 365.212 340.166 362.968 348.325C361.461 353.802 362.636 359.611 363.778 365.161C364.92 370.71 368.915 375.118 371.937 379.793C375.439 384.952 384.54 407.832 384.47 410.548C384.649 427.335 384.819 444.18 382.785 460.854C381.643 470.276 380.638 489.211 380.638 489.211L396.713 495.717Z" fill="#2F2E41"/>
<path d="M475.886 477.73C459.836 441.198 460.735 399.626 450.535 361.061C447.505 349.613 443.454 338.108 444.183 326.287C444.312 324.172 444.758 321.798 446.524 320.615C448.096 319.562 450.235 319.846 451.961 320.615C453.687 321.385 455.161 322.641 456.822 323.5C459.504 324.869 462.623 325.258 465.2 326.805C469.024 329.106 470.976 333.481 472.686 337.597C476.34 346.388 479.978 355.422 480.269 364.95C480.885 383.455 472.678 401.239 476.956 419.233C477.878 422.782 478.982 426.281 480.261 429.717C484.55 442.13 488.068 454.796 490.794 467.643C491.272 469.838 476.559 479.269 475.886 477.73Z" fill="#2F2E41"/>
<path d="M424.933 469.086C425.148 467.715 425.059 466.313 424.673 464.979C424.287 463.645 423.614 462.412 422.7 461.367C421.786 460.322 420.654 459.489 419.384 458.929C418.113 458.369 416.736 458.094 415.347 458.123L392.713 435.529L380.543 452.217L405.978 468.506C406.182 470.835 407.233 473.008 408.933 474.613C410.632 476.218 412.861 477.144 415.198 477.216C417.534 477.287 419.816 476.499 421.61 475.001C423.405 473.503 424.587 471.398 424.933 469.086V469.086Z" fill="#FFB8B8"/>
<path d="M352.816 417.775C353.189 421.17 381.704 456.971 397.199 468.656C396.3 464.046 408.444 449.008 412.374 446.659C402.554 437.396 382.037 415.911 381.359 414.737C379.139 410.451 381.359 405.33 383.296 400.899C389.397 386.809 392.273 370.824 388.36 355.973C386.885 350.399 384.309 344.816 379.617 341.389C377.568 339.898 374.797 338.878 372.52 340.012C371.567 340.561 370.739 341.303 370.089 342.191C362.822 351.031 352.54 415.255 352.816 417.775Z" fill="#2F2E41"/>
<path d="M419.258 306.57C420.79 300.07 413.045 286.084 414.577 279.584C415.615 275.182 425.966 278.174 428.382 274.351C430.797 270.527 434.843 267.43 439.366 267.379C444.564 267.321 449.679 271.176 454.603 269.51C459.581 267.825 461.173 261.007 458.971 256.234C456.77 251.461 452.029 248.42 447.344 246.036C439.366 241.978 430.078 239.014 421.539 241.699C416.378 243.322 412.062 246.84 407.886 250.28C404.079 253.415 400.208 256.622 397.547 260.775C392.334 268.909 392.648 279.87 397.103 288.444C401.559 297.017 409.677 303.309 418.622 306.961" fill="#2F2E41"/>
<path d="M120.843 164.622H124.036C124.749 164.622 125.354 164.583 125.853 164.505C126.351 164.427 126.805 164.29 127.215 164.095C127.635 163.89 127.947 163.597 128.152 163.216C128.357 162.825 128.46 162.347 128.46 161.78C128.46 161.468 128.431 161.185 128.372 160.931C128.323 160.677 128.26 160.457 128.182 160.271C128.104 160.076 127.977 159.905 127.801 159.759C127.635 159.612 127.483 159.495 127.347 159.407C127.22 159.31 127.015 159.231 126.731 159.173C126.458 159.104 126.229 159.056 126.043 159.026C125.867 158.987 125.594 158.963 125.223 158.953C124.852 158.934 124.559 158.924 124.344 158.924C124.129 158.914 123.797 158.909 123.348 158.909H120.843V164.622ZM117.122 177V155.672H123.201C123.914 155.672 124.529 155.682 125.047 155.701C125.574 155.721 126.141 155.765 126.746 155.833C127.361 155.892 127.889 155.984 128.328 156.111C128.768 156.238 129.212 156.404 129.661 156.609C130.12 156.805 130.501 157.054 130.804 157.356C131.116 157.659 131.395 158.016 131.639 158.426C131.893 158.836 132.078 159.319 132.195 159.876C132.312 160.433 132.371 161.058 132.371 161.751C132.371 162.894 132.186 163.86 131.814 164.651C131.453 165.442 130.901 166.067 130.159 166.526C129.427 166.976 128.567 167.303 127.581 167.508C126.604 167.703 125.442 167.801 124.095 167.801H120.843V177H117.122ZM141.058 168.328H146.771C145.647 164.998 144.705 162.229 143.943 160.022C143.309 161.868 142.347 164.637 141.058 168.328ZM133.558 177L142.127 155.672H145.906L154.549 177H150.345L148.279 171.8H139.666L137.645 177H133.558ZM163.865 177.337C162.4 177.337 160.989 177.122 159.632 176.692C158.274 176.263 157.205 175.667 156.424 174.905L158.006 172.239C158.699 172.776 159.598 173.23 160.701 173.602C161.814 173.973 162.791 174.158 163.631 174.158C164.949 174.158 165.921 173.914 166.546 173.426C167.181 172.938 167.498 172.195 167.498 171.199C167.498 170.809 167.469 170.496 167.41 170.262C167.352 170.018 167.22 169.769 167.015 169.515C166.81 169.251 166.502 169.012 166.092 168.797C165.691 168.572 165.149 168.338 164.466 168.094C164.173 167.996 163.675 167.835 162.972 167.61C162.278 167.386 161.771 167.215 161.448 167.098C159.69 166.434 158.416 165.652 157.625 164.754C156.834 163.846 156.438 162.62 156.438 161.077C156.438 159.827 156.766 158.758 157.42 157.869C158.084 156.98 158.963 156.326 160.057 155.906C161.15 155.486 162.4 155.276 163.807 155.276C165.711 155.276 167.19 155.462 168.245 155.833C169.3 156.204 170.296 156.839 171.233 157.737L169.329 160.198C168.128 159.056 166.463 158.484 164.334 158.484C163.172 158.484 162.225 158.685 161.492 159.085C160.77 159.485 160.408 160.096 160.408 160.916C160.408 161.316 160.442 161.648 160.511 161.912C160.579 162.166 160.721 162.42 160.936 162.674C161.16 162.918 161.478 163.147 161.888 163.362C162.298 163.567 162.845 163.792 163.528 164.036C163.772 164.124 164.28 164.295 165.052 164.549C165.833 164.793 166.414 164.988 166.795 165.135C168.533 165.828 169.744 166.624 170.428 167.522C171.111 168.421 171.453 169.671 171.453 171.272C171.453 172.337 171.243 173.274 170.823 174.085C170.403 174.886 169.832 175.516 169.109 175.975C168.387 176.434 167.586 176.775 166.707 177C165.828 177.225 164.881 177.337 163.865 177.337ZM180.813 168.328H186.526C185.403 164.998 184.461 162.229 183.699 160.022C183.064 161.868 182.103 164.637 180.813 168.328ZM173.313 177L181.883 155.672H185.662L194.305 177H190.101L188.035 171.8H179.422L177.4 177H173.313ZM200.999 164.622H204.192C204.905 164.622 205.511 164.583 206.009 164.505C206.507 164.427 206.961 164.29 207.371 164.095C207.791 163.89 208.104 163.597 208.309 163.216C208.514 162.825 208.616 162.347 208.616 161.78C208.616 161.468 208.587 161.185 208.528 160.931C208.479 160.677 208.416 160.457 208.338 160.271C208.26 160.076 208.133 159.905 207.957 159.759C207.791 159.612 207.64 159.495 207.503 159.407C207.376 159.31 207.171 159.231 206.888 159.173C206.614 159.104 206.385 159.056 206.199 159.026C206.023 158.987 205.75 158.963 205.379 158.953C205.008 158.934 204.715 158.924 204.5 158.924C204.285 158.914 203.953 158.909 203.504 158.909H200.999V164.622ZM197.278 177V155.672H203.357C204.07 155.672 204.686 155.682 205.203 155.701C205.73 155.721 206.297 155.765 206.902 155.833C207.518 155.892 208.045 155.984 208.484 156.111C208.924 156.238 209.368 156.404 209.817 156.609C210.276 156.805 210.657 157.054 210.96 157.356C211.272 157.659 211.551 158.016 211.795 158.426C212.049 158.836 212.234 159.319 212.352 159.876C212.469 160.433 212.527 161.058 212.527 161.751C212.527 162.894 212.342 163.86 211.971 164.651C211.609 165.442 211.058 166.067 210.315 166.526C209.583 166.976 208.724 167.303 207.737 167.508C206.761 167.703 205.599 167.801 204.251 167.801H200.999V177H197.278ZM225.843 177.337C222.513 177.337 219.886 176.336 217.962 174.334C216.048 172.322 215.091 169.622 215.091 166.233C215.091 162.933 216.053 160.281 217.977 158.279C219.91 156.277 222.547 155.276 225.887 155.276C229.119 155.276 231.688 156.277 233.592 158.279C235.506 160.271 236.463 162.923 236.463 166.233C236.463 169.632 235.521 172.332 233.636 174.334C231.751 176.336 229.153 177.337 225.843 177.337ZM225.755 174.158C227.933 174.158 229.588 173.475 230.721 172.107C231.854 170.73 232.42 168.772 232.42 166.233C232.42 163.772 231.854 161.863 230.721 160.506C229.588 159.139 227.952 158.455 225.813 158.455C223.655 158.455 221.995 159.139 220.833 160.506C219.681 161.863 219.104 163.772 219.104 166.233C219.104 168.782 219.666 170.74 220.789 172.107C221.912 173.475 223.567 174.158 225.755 174.158ZM244.49 164.827H248.05C250.706 164.827 252.034 163.797 252.034 161.736C252.034 160.613 251.756 159.856 251.199 159.466C250.643 159.065 249.725 158.865 248.445 158.865H244.49V164.827ZM240.813 177V155.672H248.504C249.676 155.672 250.687 155.76 251.536 155.936C252.396 156.111 253.172 156.414 253.865 156.844C254.559 157.264 255.081 157.869 255.433 158.66C255.784 159.441 255.96 160.408 255.96 161.561C255.96 162.762 255.604 163.826 254.891 164.754C254.178 165.672 253.104 166.292 251.668 166.614C252.947 167.327 253.89 168.44 254.495 169.954L257.381 177H253.353L250.906 170.657C250.506 169.612 250.071 168.904 249.603 168.533C249.134 168.162 248.426 167.977 247.479 167.977H244.534V177H240.813ZM265.101 177V158.865H258.523V155.672H275.501V158.865H268.821V177H265.101ZM278.46 177V155.672H291.922V158.865H282.181V164.563H291.395V167.771H282.225V173.807H292.347V177H278.46ZM305.589 177V155.672H309.529C316.307 165.496 319.915 170.73 320.354 171.375V155.672H323.899V177H319.944C313.392 167.537 309.754 162.293 309.031 161.268V177H305.589ZM333.172 164.563C331.912 164.563 330.828 164.129 329.92 163.26C329.021 162.381 328.572 161.312 328.572 160.052C328.572 158.802 329.021 157.737 329.92 156.858C330.828 155.97 331.912 155.525 333.172 155.525C334.432 155.525 335.511 155.965 336.409 156.844C337.317 157.723 337.771 158.792 337.771 160.052C337.771 161.321 337.322 162.391 336.424 163.26C335.525 164.129 334.441 164.563 333.172 164.563ZM333.172 162.586C333.875 162.586 334.461 162.347 334.93 161.868C335.408 161.38 335.647 160.779 335.647 160.066C335.647 159.354 335.408 158.758 334.93 158.279C334.461 157.791 333.875 157.547 333.172 157.547C332.479 157.547 331.897 157.791 331.429 158.279C330.97 158.758 330.74 159.354 330.74 160.066C330.74 160.779 330.975 161.38 331.443 161.868C331.912 162.347 332.488 162.586 333.172 162.586ZM226.795 221.337C225.984 221.337 225.198 221.273 224.437 221.146C223.685 221.029 223.06 220.883 222.562 220.707C222.063 220.531 221.619 220.355 221.229 220.18C220.848 219.994 220.569 219.838 220.394 219.711L220.13 219.535L221.258 216.737C221.404 216.835 221.658 216.977 222.02 217.162C222.391 217.338 222.986 217.548 223.807 217.792C224.637 218.036 225.423 218.158 226.165 218.158C227.483 218.158 228.494 217.86 229.197 217.265C229.9 216.659 230.252 215.834 230.252 214.789C230.252 213.676 229.773 212.846 228.816 212.299C227.869 211.742 226.551 211.464 224.861 211.464H224.393L223.455 211.493L223.426 208.344H224.48C226.375 208.344 227.708 208.095 228.479 207.597C229.261 207.099 229.651 206.21 229.651 204.931C229.651 204.149 229.285 203.544 228.553 203.114C227.82 202.675 226.976 202.455 226.019 202.455C225.56 202.455 225.12 202.494 224.7 202.572C224.28 202.65 223.899 202.763 223.558 202.909C223.216 203.046 222.938 203.173 222.723 203.29C222.508 203.397 222.269 203.534 222.005 203.7C221.741 203.866 221.58 203.969 221.521 204.008L219.866 201.327C221.009 200.565 222.02 200.033 222.898 199.73C223.787 199.428 224.993 199.276 226.517 199.276C227.415 199.276 228.265 199.394 229.065 199.628C229.876 199.862 230.604 200.204 231.248 200.653C231.902 201.093 232.42 201.674 232.801 202.396C233.191 203.119 233.387 203.935 233.387 204.843C233.387 205.595 233.255 206.308 232.991 206.981C232.737 207.655 232.298 208.261 231.673 208.798C231.058 209.325 230.301 209.657 229.402 209.794C230.799 210.048 231.893 210.653 232.684 211.61C233.484 212.558 233.885 213.671 233.885 214.95C233.885 215.927 233.689 216.825 233.299 217.646C232.918 218.456 232.4 219.13 231.746 219.667C231.102 220.194 230.35 220.604 229.49 220.897C228.641 221.19 227.742 221.337 226.795 221.337ZM221.243 216.737H221.258H221.243Z" fill="#3F3D56"/>
<path d="M184.815 558.45H187.9C190.202 558.45 191.354 557.557 191.354 555.771C191.354 554.798 191.112 554.142 190.63 553.804C190.147 553.457 189.352 553.283 188.243 553.283H184.815V558.45ZM181.629 569V550.516H188.294C189.31 550.516 190.186 550.592 190.922 550.744C191.667 550.896 192.34 551.159 192.94 551.531C193.541 551.895 193.994 552.42 194.299 553.105C194.604 553.783 194.756 554.62 194.756 555.619C194.756 556.66 194.447 557.583 193.829 558.387C193.211 559.182 192.28 559.72 191.036 559.999C192.145 560.617 192.962 561.582 193.486 562.894L195.987 569H192.496L190.376 563.503C190.029 562.597 189.652 561.984 189.246 561.662C188.84 561.34 188.226 561.18 187.405 561.18H184.854V569H181.629ZM206.423 569.292C205.238 569.292 204.197 569.148 203.3 568.86C202.403 568.573 201.679 568.196 201.129 567.73C200.587 567.257 200.147 566.673 199.809 565.979C199.47 565.276 199.237 564.561 199.11 563.833C198.983 563.105 198.92 562.293 198.92 561.396V550.516H202.145V561.535C202.145 562.297 202.216 562.97 202.36 563.554C202.504 564.138 202.699 564.616 202.944 564.988C203.198 565.361 203.507 565.665 203.871 565.902C204.243 566.139 204.633 566.304 205.039 566.397C205.454 566.491 205.911 566.537 206.41 566.537C207.053 566.537 207.62 566.457 208.111 566.296C208.611 566.135 209.059 565.873 209.457 565.509C209.855 565.136 210.16 564.616 210.371 563.947C210.583 563.279 210.688 562.47 210.688 561.522V550.516H213.913V561.408C213.913 562.297 213.854 563.101 213.735 563.82C213.617 564.54 213.388 565.251 213.05 565.953C212.72 566.656 212.284 567.244 211.742 567.718C211.201 568.192 210.477 568.573 209.571 568.86C208.674 569.148 207.625 569.292 206.423 569.292ZM218.039 569V550.516H221.264V569H218.039ZM225.859 569V550.516H231.014C234.712 550.516 237.476 551.303 239.304 552.877C241.132 554.443 242.046 556.698 242.046 559.644C242.046 562.699 241.149 565.022 239.354 566.613C237.569 568.204 234.962 569 231.534 569H225.859ZM229.084 566.232H231.699C233.934 566.232 235.647 565.674 236.841 564.557C238.034 563.439 238.631 561.798 238.631 559.631C238.631 557.574 238.026 556.004 236.815 554.921C235.614 553.829 233.777 553.283 231.306 553.283H229.084V566.232ZM245.816 569V550.516H257.483V553.283H249.041V558.222H257.026V561.002H249.079V566.232H257.852V569H245.816ZM265.926 561.484H270.877C269.904 558.598 269.087 556.199 268.427 554.286C267.877 555.886 267.043 558.285 265.926 561.484ZM259.426 569L266.853 550.516H270.128L277.618 569H273.975L272.185 564.493H264.72L262.968 569H259.426Z" fill="white"/>
</svg>
