<?xml version="1.0" encoding="UTF-8"?>
<svg xmlns="http://www.w3.org/2000/svg" xmlns:xlink="http://www.w3.org/1999/xlink" width="144pt" height="144pt" viewBox="0 0 144 144" version="1.1">
<g id="surface9915585">
<path style=" stroke:none;fill-rule:nonzero;fill:rgb(96.078431%,71.372549%,7.45098%);fill-opacity:1;" d="M 72 144 C 32.234375 144 0 111.765625 0 72 C 0 32.234375 32.234375 0 72 0 C 111.765625 0 144 32.234375 144 72 C 144 111.765625 111.765625 144 72 144 Z M 72 144 "/>
<path style=" stroke:none;fill-rule:nonzero;fill:rgb(100%,100%,100%);fill-opacity:1;" d="M 33 60 C 26.371094 60 21 65.371094 21 72 C 21 78.628906 26.371094 84 33 84 C 39.628906 84 45 78.628906 45 72 C 45 65.371094 39.628906 60 33 60 Z M 72 60 C 65.371094 60 60 65.371094 60 72 C 60 78.628906 65.371094 84 72 84 C 78.628906 84 84 78.628906 84 72 C 84 65.371094 78.628906 60 72 60 Z M 111 60 C 104.371094 60 99 65.371094 99 72 C 99 78.628906 104.371094 84 111 84 C 117.628906 84 123 78.628906 123 72 C 123 65.371094 117.628906 60 111 60 Z M 111 60 "/>
</g>
</svg>
