<?xml version="1.0" encoding="UTF-8"?>
<svg xmlns="http://www.w3.org/2000/svg" xmlns:xlink="http://www.w3.org/1999/xlink" width="144pt" height="144pt" viewBox="0 0 144 144" version="1.1">
<g id="surface10261328">
<path style=" stroke:none;fill-rule:nonzero;fill:rgb(94.509804%,76.862745%,5.882353%);fill-opacity:1;" d="M 19.441406 144 C 8.703125 144 0 135.296875 0 124.558594 L 0 19.441406 C 0 8.703125 8.703125 0 19.441406 0 L 124.558594 0 C 135.296875 0 144 8.703125 144 19.441406 L 144 124.558594 C 144 135.296875 135.296875 144 124.558594 144 Z M 19.441406 144 "/>
<path style=" stroke:none;fill-rule:nonzero;fill:rgb(100%,100%,100%);fill-opacity:1;" d="M 36.316406 61.019531 C 30.25 61.019531 25.335938 65.9375 25.335938 72 C 25.335938 78.0625 30.25 82.980469 36.316406 82.980469 C 42.378906 82.980469 47.296875 78.0625 47.296875 72 C 47.296875 65.9375 42.378906 61.019531 36.316406 61.019531 Z M 72 61.019531 C 65.9375 61.019531 61.019531 65.9375 61.019531 72 C 61.019531 78.0625 65.9375 82.980469 72 82.980469 C 78.0625 82.980469 82.980469 78.0625 82.980469 72 C 82.980469 65.9375 78.0625 61.019531 72 61.019531 Z M 107.683594 61.019531 C 101.621094 61.019531 96.703125 65.9375 96.703125 72 C 96.703125 78.0625 101.621094 82.980469 107.683594 82.980469 C 113.75 82.980469 118.664062 78.0625 118.664062 72 C 118.664062 65.9375 113.75 61.019531 107.683594 61.019531 Z M 107.683594 61.019531 "/>
</g>
</svg>
